<?xml version="1.0" encoding="UTF-8"?>
<!-- Generator: visioncortex VTracer 0.6.3 -->
<svg version="1.1" xmlns="http://www.w3.org/2000/svg" width="1280" height="1280">
<path d="M0 0 C0.85 -0.01 1.7 -0.02 2.57 -0.03 C3.49 -0.03 4.41 -0.04 5.36 -0.04 C6.32 -0.05 7.29 -0.06 8.28 -0.06 C11.44 -0.08 14.6 -0.09 17.76 -0.09 C18.83 -0.09 19.9 -0.09 21 -0.09 C35.42 -0.1 49.71 0.29 64.07 1.6 C64.81 1.67 65.56 1.73 66.32 1.8 C78.18 2.91 78.18 2.91 80.7 4.16 C82.29 4.44 83.89 4.67 85.49 4.88 C86.45 5.01 87.41 5.14 88.4 5.27 C89.4 5.4 90.41 5.53 91.45 5.66 C103.59 7.26 103.59 7.26 108.7 8.16 C108.7 8.82 108.7 9.48 108.7 10.16 C109.72 10.13 110.74 10.1 111.79 10.07 C115.5 10.16 118.54 10.65 122.12 11.55 C123.31 11.85 124.5 12.15 125.73 12.45 C126.95 12.77 128.18 13.09 129.45 13.41 C130.66 13.71 131.87 14.01 133.12 14.32 C140.5 16.19 147.59 18.44 154.7 21.16 C155.69 21.49 156.68 21.82 157.7 22.16 C162.4 23.73 167.05 25.44 171.7 27.16 C172.87 27.59 174.05 28.02 175.26 28.46 C176.44 28.9 177.61 29.34 178.82 29.79 C179.92 30.19 181.01 30.6 182.14 31.01 C184.7 32.16 184.7 32.16 185.7 34.16 C188.02 34.52 190.36 34.85 192.7 35.16 C195.63 36.22 195.63 36.22 197.7 37.16 C197.7 37.82 197.7 38.48 197.7 39.16 C198.5 39.35 198.5 39.35 199.32 39.54 C202.16 40.28 204.92 41.21 207.7 42.16 C207.7 42.82 207.7 43.48 207.7 44.16 C208.79 44.47 209.88 44.78 211.01 45.1 C213.25 45.74 215.48 46.42 217.7 47.16 C217.7 47.82 217.7 48.48 217.7 49.16 C219.18 48.67 219.18 48.67 220.7 48.16 C221.03 49.15 221.36 50.14 221.7 51.16 C223.54 51.85 223.54 51.85 225.7 52.16 C229.06 52.77 230.35 53.72 232.7 56.16 C233.69 56.49 234.68 56.82 235.7 57.16 C235.7 57.82 235.7 58.48 235.7 59.16 C237.4 59.56 237.4 59.56 239.13 59.97 C240.31 60.37 241.48 60.76 242.7 61.16 C243.03 62.15 243.36 63.14 243.7 64.16 C247.13 65.33 247.13 65.33 250.7 66.16 C251.36 66.49 252.02 66.82 252.7 67.16 C252.7 67.82 252.7 68.48 252.7 69.16 C253.47 69.53 253.47 69.53 254.26 69.91 C260.05 72.88 264.7 75.98 269.7 80.16 C271.69 81.45 273.71 82.67 275.74 83.9 C277.63 85.12 279.3 86.44 281.01 87.91 C283.54 90.31 283.54 90.31 286.7 91.16 C287.03 92.15 287.36 93.14 287.7 94.16 C290.7 95.87 290.7 95.87 293.7 97.16 C293.7 97.82 293.7 98.48 293.7 99.16 C294.69 99.49 295.68 99.82 296.7 100.16 C297.93 101.66 299.16 103.15 300.37 104.67 C302.2 106.73 304.29 107.87 306.7 109.16 C309.01 110.72 309.01 110.72 310.7 112.16 C310.7 112.82 310.7 113.48 310.7 114.16 C311.36 114.16 312.02 114.16 312.7 114.16 C312.7 114.82 312.7 115.48 312.7 116.16 C313.27 116.42 313.85 116.67 314.45 116.93 C316.93 118.29 318.59 119.8 320.59 121.79 C321.65 122.85 321.65 122.85 322.73 123.93 C323.46 124.66 324.19 125.4 324.95 126.16 C325.69 126.9 326.44 127.64 327.2 128.4 C328.26 129.46 328.26 129.46 329.34 130.54 C329.98 131.18 330.63 131.83 331.29 132.5 C332.7 134.16 332.7 134.16 332.7 136.16 C333.69 136.49 334.68 136.82 335.7 137.16 C335.7 137.82 335.7 138.48 335.7 139.16 C336.36 139.49 337.02 139.82 337.7 140.16 C337.7 140.82 337.7 141.48 337.7 142.16 C340.22 144.9 342.59 147.09 345.7 149.16 C346.5 150.13 347.3 151.1 348.13 152.1 C350.44 155.12 350.44 155.12 352.88 156.72 C355.23 158.59 355.78 160.34 356.7 163.16 C357.03 164.15 357.36 165.14 357.7 166.16 C358.69 166.49 359.68 166.82 360.7 167.16 C360.98 167.9 361.27 168.65 361.57 169.41 C362.98 172.85 365.05 174.58 367.7 177.16 C369.99 180.38 372.04 183.57 373.7 187.16 C374.36 187.16 375.02 187.16 375.7 187.16 C376.03 188.15 376.36 189.14 376.7 190.16 C378.02 191.84 379.35 193.5 380.7 195.16 C382.16 197.48 383.5 199.73 384.63 202.22 C385.65 204.32 385.65 204.32 387.76 206.04 C390.17 208.69 390.38 210.65 390.7 214.16 C391.36 214.16 392.02 214.16 392.7 214.16 C394.12 217.48 395.09 220.6 395.7 224.16 C396.36 224.16 397.02 224.16 397.7 224.16 C399.18 229.11 399.18 229.11 400.7 234.16 C401.36 234.16 402.02 234.16 402.7 234.16 C403.03 235.81 403.36 237.46 403.7 239.16 C404.36 239.16 405.02 239.16 405.7 239.16 C405.7 240.81 405.7 242.46 405.7 244.16 C406.36 244.16 407.02 244.16 407.7 244.16 C407.88 245.12 407.88 245.12 408.07 246.1 C408.28 246.78 408.48 247.46 408.7 248.16 C409.36 248.49 410.02 248.82 410.7 249.16 C410.7 250.81 410.7 252.46 410.7 254.16 C411.36 254.16 412.02 254.16 412.7 254.16 C414.66 257.11 414.95 257.96 415.2 261.29 C415.36 262.56 415.53 263.84 415.7 265.16 C416.36 265.49 417.02 265.82 417.7 266.16 C418.48 267.83 418.48 267.83 419.2 269.91 C419.45 270.64 419.71 271.36 419.97 272.11 C420.21 272.79 420.45 273.46 420.7 274.16 C421.05 275.01 421.4 275.85 421.76 276.72 C422.95 279.82 423.81 282.97 424.7 286.16 C425.03 287.15 425.36 288.14 425.7 289.16 C425.73 290.83 425.74 292.5 425.7 294.16 C426.36 294.16 427.02 294.16 427.7 294.16 C428 295.25 428.31 296.35 428.63 297.47 C429.28 299.72 429.96 301.95 430.7 304.16 C430.7 305.48 430.7 306.8 430.7 308.16 C431.36 308.49 432.02 308.82 432.7 309.16 C436.1 314.76 435.86 321.78 435.7 328.16 C436.36 328.49 437.02 328.82 437.7 329.16 C441.29 335.13 440.84 342.47 440.53 349.22 C440.56 351.49 440.56 351.49 442.7 354.16 C442.94 356.47 443.1 358.78 443.2 361.1 C443.26 365.79 443.26 365.79 444.73 370.13 C446.68 374.22 445.71 379.19 445.57 383.63 C445.42 386.99 445.42 386.99 446.69 388.93 C448.13 392.13 447.94 394.89 447.94 398.39 C447.94 399.11 447.94 399.83 447.94 400.58 C447.95 402.95 447.94 405.33 447.93 407.7 C447.92 409.36 447.92 411.01 447.92 412.66 C447.92 416.11 447.91 419.57 447.9 423.02 C447.88 427.46 447.88 431.9 447.88 436.34 C447.88 439.75 447.88 443.15 447.87 446.56 C447.86 448.2 447.86 449.84 447.86 451.47 C447.86 453.75 447.85 456.04 447.84 458.32 C447.84 459.62 447.83 460.92 447.83 462.26 C447.7 465.16 447.7 465.16 446.7 466.16 C445.72 472.86 445.58 479.4 445.7 486.16 C444.71 486.49 443.72 486.82 442.7 487.16 C442.7 492.77 442.7 498.38 442.7 504.16 C441.71 504.16 440.72 504.16 439.7 504.16 C439.79 505 439.89 505.85 439.98 506.72 C440.09 507.81 440.21 508.91 440.32 510.04 C440.44 511.13 440.55 512.22 440.67 513.34 C440.68 514.27 440.69 515.2 440.7 516.16 C440.04 516.82 439.38 517.48 438.7 518.16 C438.3 520.82 438.3 520.82 438.2 523.85 C437.82 529.32 437.3 534.18 434.66 539.08 C433.62 541.33 433.37 543.01 433.2 545.47 C432.82 549.59 431.95 553.22 430.7 557.16 C430.04 557.16 429.38 557.16 428.7 557.16 C428.65 557.79 428.6 558.41 428.55 559.06 C428.47 559.88 428.4 560.69 428.32 561.54 C428.22 562.75 428.22 562.75 428.11 564 C427.7 566.16 427.7 566.16 425.7 568.16 C425.7 569.15 425.7 570.14 425.7 571.16 C425.7 572.15 425.7 573.14 425.7 574.16 C425.04 574.82 424.38 575.48 423.7 576.16 C423.3 578.15 422.96 580.15 422.7 582.16 C422.04 582.16 421.38 582.16 420.7 582.16 C420.55 582.97 420.41 583.77 420.26 584.6 C419.7 587.16 419.7 587.16 418.7 588.16 C418.61 589.09 418.53 590.02 418.45 590.97 C417.39 599.1 412.9 606.85 409.49 614.22 C408.69 616.18 408.16 618.1 407.7 620.16 C407.04 620.16 406.38 620.16 405.7 620.16 C405.51 621.24 405.51 621.24 405.32 622.35 C404.7 625.12 403.81 627.56 402.7 630.16 C402.04 630.16 401.38 630.16 400.7 630.16 C400.51 631.24 400.51 631.24 400.32 632.35 C399.7 635.12 398.81 637.56 397.7 640.16 C397.04 640.16 396.38 640.16 395.7 640.16 C395.51 641.24 395.51 641.24 395.32 642.35 C394.7 645.12 393.81 647.56 392.7 650.16 C392.04 650.16 391.38 650.16 390.7 650.16 C390.54 651.21 390.54 651.21 390.38 652.29 C389.22 657.14 387.27 660.73 383.7 664.16 C382.68 665.82 381.68 667.49 380.7 669.16 C380.04 669.82 379.38 670.48 378.7 671.16 C378.41 671.94 378.12 672.73 377.82 673.54 C376.55 676.49 375.14 678.1 372.7 680.16 C372.04 680.16 371.38 680.16 370.7 680.16 C370.6 681.27 370.6 681.27 370.51 682.41 C369.44 686.04 367.87 687.2 364.7 689.16 C363.71 688.83 362.72 688.5 361.7 688.16 C361.43 688.8 361.16 689.44 360.88 690.1 C359.7 692.16 359.7 692.16 356.7 693.16 C356.7 693.82 356.7 694.48 356.7 695.16 C356.04 695.16 355.38 695.16 354.7 695.16 C354.94 695.68 355.19 696.19 355.45 696.72 C355.85 700.63 353.76 702.9 351.7 706.16 C351.04 706.16 350.38 706.16 349.7 706.16 C349.7 706.82 349.7 707.48 349.7 708.16 C348.12 709.68 348.12 709.68 346.01 711.41 C343.34 713.66 340.98 715.86 338.82 718.6 C338.12 719.44 337.42 720.29 336.7 721.16 C336.04 721.16 335.38 721.16 334.7 721.16 C334.7 721.82 334.7 722.48 334.7 723.16 C334.01 723.35 333.33 723.53 332.63 723.73 C328.5 725.75 325.83 728.78 322.7 732.1 C318.88 736.1 315.51 739.38 310.7 742.16 C308.37 744.5 306.18 746.93 303.98 749.4 C301.7 751.16 301.7 751.16 298.91 750.93 C298.18 750.67 297.45 750.42 296.7 750.16 C296.93 750.74 297.16 751.33 297.4 751.93 C297.7 754.16 297.7 754.16 296.37 756 C295.71 756.62 295.05 757.24 294.36 757.88 C293.65 758.56 292.93 759.25 292.19 759.96 C291.05 761.02 291.05 761.02 289.88 762.1 C288.39 763.5 286.9 764.9 285.43 766.31 C284.76 766.93 284.09 767.55 283.41 768.19 C281.49 770.4 280.73 772.45 279.7 775.16 C277.26 777.54 277.26 777.54 274.7 779.16 C273.71 778.83 272.72 778.5 271.7 778.16 C271.9 778.72 272.11 779.27 272.32 779.85 C272.8 782.82 271.96 784.48 270.7 787.16 C270.04 787.16 269.38 787.16 268.7 787.16 C268.37 788.15 268.04 789.14 267.7 790.16 C267.04 790.16 266.38 790.16 265.7 790.16 C265.54 791.21 265.54 791.21 265.38 792.29 C264.59 795.6 263.43 798.23 261.7 801.16 C258.17 802.34 255.02 802.28 251.35 802.24 C250.22 802.24 250.22 802.24 249.06 802.23 C246.53 802.22 244 802.2 241.46 802.18 C239.65 802.17 237.84 802.16 236.02 802.15 C231.09 802.13 226.17 802.09 221.24 802.06 C216.09 802.03 210.94 802 205.79 801.97 C196.04 801.91 186.28 801.85 176.53 801.79 C165.43 801.72 154.32 801.65 143.22 801.58 C120.38 801.45 97.54 801.31 74.7 801.16 C73.74 798.3 73.56 796.51 73.55 793.54 C73.55 792.59 73.54 791.63 73.53 790.65 C73.53 789.08 73.53 789.08 73.53 787.47 C73.52 786.36 73.52 785.24 73.51 784.09 C73.49 780.34 73.48 776.59 73.47 772.84 C73.46 770.84 73.45 768.84 73.44 766.84 C73.4 757.34 73.38 747.83 73.35 738.33 C73.35 737.58 73.35 736.83 73.35 736.05 C73.31 721.16 73.27 706.28 73.25 691.39 C73.25 688.12 73.24 684.84 73.24 681.57 C73.23 680.35 73.23 680.35 73.23 679.11 C73.21 665.92 73.16 652.74 73.1 639.55 C73.04 626.02 73.01 612.49 73 598.96 C72.99 591.36 72.97 583.76 72.92 576.16 C72.88 569.69 72.87 563.22 72.88 556.75 C72.89 553.44 72.88 550.14 72.85 546.84 C72.81 543.26 72.83 539.69 72.85 536.11 C72.83 535.06 72.81 534.02 72.79 532.94 C72.89 526.13 72.89 526.13 75.17 523.38 C78.61 520.74 80.24 520.16 84.7 520.16 C84.7 519.5 84.7 518.84 84.7 518.16 C85.42 517.88 86.14 517.61 86.88 517.32 C90.44 515.85 93.79 514.07 97.2 512.28 C99.71 511.16 101.98 510.59 104.7 510.16 C104.7 509.5 104.7 508.84 104.7 508.16 C105.58 507.77 106.47 507.38 107.38 506.97 C110.84 505.08 112.96 502.97 115.7 500.16 C116.47 499.72 117.24 499.28 118.03 498.82 C121.09 496.91 123.27 494.71 125.76 492.1 C128.64 489.08 130.94 486.94 134.7 485.16 C135.6 483.78 136.5 482.4 137.36 481 C139.08 478.63 141.09 476.74 143.2 474.72 C146.92 471.1 149.42 467.81 151.7 463.16 C152.36 463.16 153.02 463.16 153.7 463.16 C153.88 462.26 153.88 462.26 154.07 461.35 C154.7 459.16 154.7 459.16 156.7 456.16 C157.36 456.16 158.02 456.16 158.7 456.16 C158.82 455.44 158.94 454.72 159.07 453.97 C159.69 451.2 160.58 448.76 161.7 446.16 C162.36 446.16 163.02 446.16 163.7 446.16 C163.82 445.44 163.94 444.72 164.07 443.97 C164.69 441.2 165.58 438.76 166.7 436.16 C167.36 436.16 168.02 436.16 168.7 436.16 C168.57 434.89 168.57 434.89 168.45 433.6 C168.71 429.93 169.81 428.08 171.75 425.02 C173.36 421.86 173.36 418.67 173.7 415.16 C174.35 413.49 175.01 411.82 175.7 410.16 C176.05 407.83 176.39 405.5 176.7 403.16 C177.03 402.5 177.36 401.84 177.7 401.16 C177.9 399.16 178.06 397.16 178.2 395.16 C178.58 389.38 178.58 389.38 179.7 387.16 C180.47 372.39 179.9 358.01 171.7 345.16 C169.13 342.35 169.13 342.35 166.7 340.16 C166 338.84 165.33 337.51 164.7 336.16 C162.84 333.82 160.7 332.54 158.13 331.1 C154.7 329.16 154.7 329.16 152.7 327.16 C145.46 322.87 137.99 322.82 129.82 322.85 C128.78 322.83 127.74 322.82 126.68 322.8 C120.09 322.8 114.78 323.66 108.7 326.16 C107.78 326.49 106.86 326.81 105.92 327.15 C102.56 328.67 99.75 330.85 96.78 333.02 C96.09 333.39 95.4 333.77 94.7 334.16 C93.71 333.83 92.72 333.5 91.7 333.16 C91.43 333.8 91.16 334.44 90.88 335.1 C89.7 337.16 89.7 337.16 86.7 338.16 C86.94 338.72 87.19 339.27 87.45 339.85 C87.7 342.16 87.7 342.16 85.82 344.72 C85.12 345.53 84.42 346.33 83.7 347.16 C83.37 348.15 83.04 349.14 82.7 350.16 C82.04 350.16 81.38 350.16 80.7 350.16 C80.59 350.82 80.49 351.48 80.38 352.16 C79.7 355.16 79.7 355.16 78.2 358.72 C76.37 363.51 76.14 368.08 76.01 373.16 C75.97 374.03 75.94 374.9 75.9 375.8 C75.82 377.92 75.76 380.04 75.7 382.16 C74.71 382.16 73.72 382.16 72.7 382.16 C72.72 382.83 72.74 383.49 72.77 384.17 C72.94 392.91 72.94 392.91 70.7 397.16 C70.39 397.86 70.08 398.56 69.76 399.29 C68.62 401.29 67.32 402.54 65.7 404.16 C65.28 404.88 64.87 405.6 64.45 406.35 C60.3 413 55.03 419.02 47.7 422.16 C46.38 422.16 45.06 422.16 43.7 422.16 C43.7 422.82 43.7 423.48 43.7 424.16 C39.44 426.23 35.59 426.45 30.95 426.43 C30.21 426.43 29.47 426.43 28.72 426.43 C27.17 426.43 25.62 426.43 24.07 426.42 C21.7 426.41 19.34 426.42 16.98 426.43 C15.47 426.43 13.96 426.43 12.45 426.43 C11.74 426.43 11.04 426.43 10.32 426.44 C6.34 426.4 3.28 425.91 -0.3 424.16 C-0.3 423.5 -0.3 422.84 -0.3 422.16 C-0.96 422.08 -1.62 422 -2.3 421.91 C-11.01 419.73 -14.96 415.72 -20.32 408.72 C-22.15 406.24 -22.15 406.24 -23.94 404.57 C-31.25 397.01 -32.7 382.93 -33.76 372.97 C-33.84 372.23 -33.92 371.49 -34.01 370.72 C-34.16 369.27 -34.3 367.81 -34.43 366.35 C-34.96 361.23 -36.25 356.87 -38.3 352.16 C-38.59 351.49 -38.87 350.81 -39.16 350.12 C-41.53 344.93 -44.64 341.27 -48.74 337.35 C-49.3 336.79 -49.86 336.23 -50.44 335.66 C-54.93 331.26 -59.39 328.36 -65.3 326.16 C-66.42 325.65 -67.54 325.15 -68.69 324.62 C-74.3 322.53 -79.89 322.72 -85.8 322.79 C-86.89 322.77 -87.98 322.76 -89.11 322.75 C-95.59 322.77 -100.39 323.52 -106.3 326.16 C-107.96 326.54 -109.63 326.9 -111.3 327.16 C-111.63 328.15 -111.96 329.14 -112.3 330.16 C-114.05 331.36 -114.05 331.36 -116.18 332.41 C-116.88 332.77 -117.58 333.12 -118.3 333.49 C-120.3 334.16 -120.3 334.16 -123.3 333.16 C-123.3 333.82 -123.3 334.48 -123.3 335.16 C-123.96 335.16 -124.62 335.16 -125.3 335.16 C-125.09 335.74 -124.88 336.32 -124.66 336.92 C-124.2 339.83 -124.9 340.7 -126.55 343.1 C-127.02 343.79 -127.49 344.48 -127.97 345.19 C-128.41 345.84 -128.85 346.49 -129.3 347.16 C-129.86 348.15 -130.42 349.14 -130.99 350.16 C-131.43 350.82 -131.86 351.48 -132.3 352.16 C-132.96 352.16 -133.62 352.16 -134.3 352.16 C-134.45 352.97 -134.59 353.77 -134.74 354.6 C-135.3 357.16 -135.3 357.16 -136.3 358.16 C-136.42 361.22 -136.47 364.25 -136.47 367.31 C-136.48 368.23 -136.48 369.15 -136.48 370.1 C-136.49 372.05 -136.49 374.01 -136.49 375.96 C-136.49 378.95 -136.51 381.94 -136.53 384.93 C-136.53 386.83 -136.53 388.72 -136.54 390.62 C-136.55 391.96 -136.55 391.96 -136.56 393.33 C-136.55 394.17 -136.55 395 -136.55 395.87 C-136.55 396.97 -136.55 396.97 -136.55 398.09 C-136.27 400.47 -135.38 402.04 -134.3 404.16 C-134.3 406.49 -134.3 408.83 -134.3 411.16 C-133.64 412.15 -132.98 413.14 -132.3 414.16 C-131.94 416.51 -131.8 418.83 -131.65 421.2 C-131.54 421.85 -131.42 422.49 -131.3 423.16 C-130.64 423.49 -129.98 423.82 -129.3 424.16 C-128.77 425.97 -128.77 425.97 -128.3 428.16 C-127.82 429.5 -127.32 430.83 -126.8 432.16 C-125.99 434.24 -125.3 436.17 -124.84 438.35 C-124.66 438.95 -124.49 439.54 -124.3 440.16 C-123.64 440.49 -122.98 440.82 -122.3 441.16 C-121.2 443.56 -120.38 445.83 -119.8 448.41 C-119.64 448.99 -119.47 449.57 -119.3 450.16 C-118.64 450.49 -117.98 450.82 -117.3 451.16 C-116.84 452.34 -116.84 452.34 -116.37 453.54 C-115.28 456.22 -114.34 457.21 -112.3 459.16 C-109.3 463.72 -109.3 463.72 -109.3 466.16 C-108.64 466.16 -107.98 466.16 -107.3 466.16 C-106.3 467.82 -105.3 469.49 -104.3 471.16 C-101.7 474.45 -98.94 477.54 -95.93 480.47 C-94.3 482.16 -94.3 482.16 -94.3 484.16 C-93.76 484.37 -93.22 484.58 -92.67 484.79 C-88.82 487.02 -86.01 490.42 -82.99 493.64 C-79.39 497.37 -75.89 499.74 -71.3 502.16 C-69.95 503.14 -68.62 504.13 -67.3 505.16 C-66.31 505.82 -65.32 506.48 -64.3 507.16 C-64.3 507.82 -64.3 508.48 -64.3 509.16 C-63.46 509.41 -62.61 509.66 -61.74 509.91 C-58.7 511.02 -56.14 512.37 -53.36 514.02 C-47.34 517.37 -40.91 520.2 -34.3 522.16 C-34.3 522.82 -34.3 523.48 -34.3 524.16 C-33.64 524.16 -32.98 524.16 -32.3 524.16 C-32.3 615.57 -32.3 706.98 -32.3 801.16 C-94.34 801.16 -156.38 801.16 -220.3 801.16 C-220.3 800.17 -220.3 799.18 -220.3 798.16 C-221.29 797.83 -222.28 797.5 -223.3 797.16 C-222.97 796.17 -222.64 795.18 -222.3 794.16 C-222.96 793.83 -223.62 793.5 -224.3 793.16 C-224.64 791.83 -224.97 790.49 -225.3 789.16 C-225.96 788.83 -226.62 788.5 -227.3 788.16 C-228.16 786.9 -228.97 785.6 -229.74 784.29 C-231.37 781.52 -233.01 779.4 -235.3 777.16 C-236.29 775.68 -236.29 775.68 -237.3 774.16 C-238.02 773.48 -238.02 773.48 -238.74 772.79 C-240.3 771.16 -240.3 771.16 -241.4 769.08 C-244.18 764.82 -247.75 761.47 -251.37 757.91 C-252.1 757.18 -252.83 756.45 -253.59 755.69 C-257.12 751.99 -257.12 751.99 -261.3 749.16 C-261.3 748.17 -261.3 747.18 -261.3 746.16 C-261.84 745.95 -262.38 745.75 -262.93 745.54 C-266.22 743.63 -268.9 741.11 -271.3 738.16 C-271.3 737.5 -271.3 736.84 -271.3 736.16 C-272.18 735.78 -272.18 735.78 -273.07 735.38 C-275.5 734.06 -277.09 732.61 -279.02 730.64 C-279.71 729.95 -280.39 729.26 -281.1 728.54 C-281.81 727.82 -282.51 727.09 -283.24 726.35 C-283.95 725.64 -284.65 724.92 -285.37 724.19 C-286.74 722.81 -288.11 721.42 -289.47 720.03 C-291.01 718.46 -292.56 716.91 -294.11 715.37 C-297.67 711.78 -301.19 708.14 -303.68 703.72 C-306.46 699.33 -310.6 694.51 -315.3 692.16 C-315.53 691.46 -315.76 690.76 -315.99 690.04 C-317.31 687.14 -318.4 685.98 -320.68 683.85 C-324.41 680.32 -326.15 676.79 -328.3 672.16 C-328.96 671.83 -329.62 671.5 -330.3 671.16 C-330.3 670.5 -330.3 669.84 -330.3 669.16 C-331.29 668.83 -332.28 668.5 -333.3 668.16 C-333.3 666.84 -333.3 665.52 -333.3 664.16 C-333.96 664.16 -334.62 664.16 -335.3 664.16 C-335.3 663.17 -335.3 662.18 -335.3 661.16 C-335.96 660.83 -336.62 660.5 -337.3 660.16 C-338.56 658.64 -338.56 658.64 -339.87 656.79 C-340.52 655.88 -340.52 655.88 -341.18 654.95 C-342.3 653.16 -342.3 653.16 -343.3 650.16 C-344.29 649.5 -345.28 648.84 -346.3 648.16 C-346.99 645.04 -346.99 645.04 -347.3 642.16 C-347.96 642.16 -348.62 642.16 -349.3 642.16 C-349.74 641.25 -350.17 640.35 -350.62 639.41 C-352.1 636.28 -352.1 636.28 -353.8 634.35 C-355.75 631.51 -356.53 628.59 -357.56 625.33 C-358.47 622.67 -359.79 620.52 -361.3 618.16 C-363.58 614.11 -365.4 610.27 -366.43 605.72 C-366.72 604.55 -367.01 603.37 -367.3 602.16 C-367.96 601.83 -368.62 601.5 -369.3 601.16 C-370.23 599.23 -370.23 599.23 -371.18 596.72 C-371.53 595.82 -371.87 594.92 -372.23 593.99 C-372.59 593.05 -372.94 592.12 -373.3 591.16 C-373.99 589.45 -374.68 587.74 -375.37 586.04 C-378.25 578.81 -380.88 571.55 -383.3 564.16 C-383.54 563.46 -383.78 562.77 -384.02 562.05 C-386.25 555.46 -388.29 548.82 -390.3 542.16 C-390.61 541.18 -390.92 540.21 -391.24 539.2 C-396.44 522.07 -400.29 504.21 -401.98 486.38 C-402.24 483.28 -402.24 483.28 -402.79 480.76 C-403.28 478.29 -403.58 475.9 -403.8 473.4 C-403.89 472.5 -403.97 471.61 -404.05 470.7 C-404.14 469.78 -404.22 468.86 -404.3 467.91 C-404.47 466.09 -404.64 464.28 -404.8 462.46 C-404.88 461.66 -404.95 460.86 -405.02 460.03 C-405.18 458.42 -405.35 456.81 -405.55 455.2 C-406.28 449.31 -406.45 443.53 -406.44 437.61 C-406.44 436.62 -406.44 435.64 -406.44 434.63 C-406.44 432.56 -406.44 430.5 -406.44 428.43 C-406.43 425.3 -406.44 422.17 -406.44 419.04 C-406.44 417.02 -406.44 415 -406.44 412.98 C-406.44 411.6 -406.44 411.6 -406.44 410.19 C-406.42 403.8 -405.96 397.52 -405.3 391.16 C-405.15 389.45 -404.99 387.74 -404.84 386.04 C-404.68 384.41 -404.53 382.79 -404.37 381.16 C-404.29 380.33 -404.22 379.5 -404.14 378.64 C-404.06 377.84 -403.98 377.05 -403.9 376.22 C-403.84 375.51 -403.77 374.8 -403.7 374.07 C-403.3 372.16 -403.3 372.16 -401.3 369.16 C-401.96 368.83 -402.62 368.5 -403.3 368.16 C-402.64 368.16 -401.98 368.16 -401.3 368.16 C-401.3 364.53 -401.3 360.9 -401.3 357.16 C-400.64 357.16 -399.98 357.16 -399.3 357.16 C-399.8 355.68 -399.8 355.68 -400.3 354.16 C-400.09 352.11 -399.79 350.07 -399.43 348.04 C-399.25 346.96 -399.06 345.89 -398.88 344.78 C-398.3 342.16 -398.3 342.16 -397.3 341.16 C-397.12 339.77 -396.98 338.37 -396.87 336.97 C-396.48 333.12 -395.63 329.81 -394.3 326.16 C-393.94 324.5 -393.6 322.83 -393.3 321.16 C-392.64 321.16 -391.98 321.16 -391.3 321.16 C-391.39 320.05 -391.47 318.93 -391.55 317.79 C-391.57 313.19 -390.13 309.71 -388.32 305.54 C-387.02 302.49 -386.19 299.36 -385.3 296.16 C-384.82 294.82 -384.32 293.49 -383.8 292.16 C-382.87 289.72 -382.08 287.37 -381.37 284.85 C-379.54 278.5 -377.61 272.09 -374.18 266.41 C-372.22 263.02 -371.28 259.94 -370.3 256.16 C-369.66 254.48 -369.01 252.81 -368.3 251.16 C-367.64 251.16 -366.98 251.16 -366.3 251.16 C-366.18 250.44 -366.06 249.72 -365.93 248.97 C-365.31 246.2 -364.42 243.76 -363.3 241.16 C-362.64 241.16 -361.98 241.16 -361.3 241.16 C-361.18 240.44 -361.06 239.72 -360.93 238.97 C-360.31 236.2 -359.42 233.76 -358.3 231.16 C-357.64 231.16 -356.98 231.16 -356.3 231.16 C-356.18 230.44 -356.06 229.72 -355.93 228.97 C-354.44 222.27 -354.44 222.27 -351.88 219.76 C-350.15 218 -349.19 216.34 -348.05 214.16 C-346.02 210.4 -343.87 206.73 -341.62 203.1 C-341.04 202.16 -340.45 201.22 -339.86 200.25 C-339.34 199.56 -338.83 198.87 -338.3 198.16 C-337.64 198.16 -336.98 198.16 -336.3 198.16 C-336.2 197.59 -336.09 197.02 -335.98 196.44 C-335.19 193.79 -334.01 191.99 -332.43 189.72 C-330.81 187.37 -329.26 185.09 -327.87 182.6 C-325.86 179.46 -323.41 176.84 -320.93 174.07 C-319.2 172.15 -319.2 172.15 -317.8 169.66 C-315.93 166.53 -313.59 164.01 -311.12 161.32 C-309.19 159.12 -309.19 159.12 -307.43 156.25 C-305.15 152.94 -302.65 150.38 -299.74 147.6 C-295.95 144.03 -295.95 144.03 -292.96 139.82 C-291.04 136.74 -288.83 134.48 -286.23 131.93 C-285.75 131.45 -285.27 130.98 -284.77 130.49 C-283.25 128.98 -281.71 127.48 -280.18 125.97 C-278.64 124.46 -277.1 122.95 -275.56 121.43 C-274.18 120.06 -272.78 118.69 -271.39 117.33 C-269.27 115.34 -269.27 115.34 -268.3 113.16 C-267.59 112.92 -266.88 112.68 -266.14 112.43 C-261.57 110.38 -258.67 106.66 -255.3 103.04 C-251.57 99.15 -248.03 96.72 -243.3 94.16 C-241.51 92.65 -241.51 92.65 -240.18 91.1 C-237.83 88.48 -235.34 86.94 -232.3 85.16 C-230.56 83.93 -228.83 82.68 -227.12 81.41 C-226.16 80.72 -225.21 80.02 -224.23 79.3 C-222.31 77.9 -220.39 76.49 -218.47 75.08 C-217.59 74.45 -216.71 73.81 -215.8 73.16 C-215.01 72.58 -214.22 72.01 -213.4 71.41 C-211.3 70.16 -211.3 70.16 -208.3 70.16 C-208.3 69.5 -208.3 68.84 -208.3 68.16 C-190.98 55.16 -190.98 55.16 -183.3 55.16 C-183.3 54.5 -183.3 53.84 -183.3 53.16 C-180.35 50.42 -179.53 50.16 -175.3 50.16 C-175.3 49.5 -175.3 48.84 -175.3 48.16 C-171.99 46.74 -168.86 45.77 -165.3 45.16 C-165.3 44.5 -165.3 43.84 -165.3 43.16 C-161.99 41.74 -158.86 40.77 -155.3 40.16 C-155.3 39.5 -155.3 38.84 -155.3 38.16 C-154.77 38 -154.24 37.84 -153.69 37.68 C-148.42 36.03 -143.69 33.9 -138.8 31.36 C-135.69 29.86 -132.52 28.82 -129.22 27.84 C-127.02 27.15 -127.02 27.15 -124.3 25.16 C-121.98 24.48 -119.64 23.81 -117.3 23.16 C-116.09 22.69 -114.87 22.21 -113.62 21.72 C-109.2 20.01 -104.66 18.97 -100.04 17.91 C-97.35 17.27 -97.35 17.27 -95.21 16.08 C-92.99 15.01 -91.5 14.95 -89.05 15.04 C-87.82 15.08 -86.58 15.12 -85.3 15.16 C-85.3 14.5 -85.3 13.84 -85.3 13.16 C-84.59 13.03 -83.88 12.9 -83.15 12.76 C-82.23 12.58 -81.31 12.41 -80.37 12.22 C-79.45 12.05 -78.53 11.88 -77.59 11.7 C-75.35 11.38 -75.35 11.38 -74.3 10.16 C-72.23 9.95 -70.15 9.75 -68.08 9.54 C-65.05 9.13 -62.15 8.45 -59.18 7.72 C-53.15 6.27 -47.14 5.39 -40.99 4.63 C-37.6 4.2 -34.24 3.67 -30.87 3.1 C-25.15 2.19 -19.46 1.77 -13.68 1.5 C-9.99 1.33 -9.99 1.33 -6.36 0.66 C-4.17 0.13 -2.25 0.02 0 0 Z M366.7 683.16 C367.03 684.15 367.36 685.14 367.7 686.16 C368.03 685.17 368.36 684.18 368.7 683.16 C368.04 683.16 367.38 683.16 366.7 683.16 Z M326.7 723.16 C327.03 723.82 327.36 724.48 327.7 725.16 C328.36 724.5 329.02 723.84 329.7 723.16 C328.71 723.16 327.72 723.16 326.7 723.16 Z M321.7 728.16 C322.7 730.16 322.7 730.16 322.7 730.16 Z M319.7 730.16 C320.03 730.82 320.36 731.48 320.7 732.16 C321.03 731.5 321.36 730.84 321.7 730.16 C321.04 730.16 320.38 730.16 319.7 730.16 Z M316.7 733.16 C317.03 734.15 317.36 735.14 317.7 736.16 C318.03 735.17 318.36 734.18 318.7 733.16 C318.04 733.16 317.38 733.16 316.7 733.16 Z M276.7 773.16 C277.03 774.15 277.36 775.14 277.7 776.16 C278.03 775.17 278.36 774.18 278.7 773.16 C278.04 773.16 277.38 773.16 276.7 773.16 Z " fill="#3C2B2F" transform="translate(618.304931640625,211.8388671875)"/>
<path d="M0 0 C0.72 -0 1.45 -0.01 2.19 -0.01 C4.64 -0.02 7.08 -0.01 9.53 -0.01 C11.29 -0.01 13.05 -0.01 14.81 -0.02 C19.67 -0.03 24.53 -0.03 29.39 -0.02 C34.63 -0.02 39.86 -0.03 45.1 -0.04 C55.36 -0.05 65.62 -0.05 75.88 -0.05 C84.21 -0.05 92.55 -0.05 100.88 -0.05 C102.66 -0.05 102.66 -0.05 104.47 -0.05 C106.88 -0.06 109.28 -0.06 111.69 -0.06 C134.27 -0.07 156.85 -0.07 179.43 -0.06 C200.11 -0.05 220.79 -0.07 241.48 -0.09 C262.69 -0.1 283.9 -0.11 305.11 -0.11 C317.03 -0.11 328.94 -0.11 340.86 -0.12 C351.01 -0.14 361.15 -0.14 371.3 -0.13 C376.48 -0.12 381.66 -0.12 386.84 -0.13 C391.58 -0.14 396.31 -0.14 401.05 -0.12 C402.77 -0.12 404.49 -0.12 406.21 -0.13 C408.53 -0.14 410.86 -0.13 413.18 -0.12 C414.48 -0.12 415.77 -0.12 417.11 -0.12 C418.58 0.07 418.58 0.07 420.09 0.25 C420.75 1.24 421.41 2.23 422.09 3.25 C421.76 3.58 421.43 3.91 421.09 4.25 C421.03 6.74 421.02 9.2 421.06 11.68 C421.08 13.22 421.09 14.75 421.1 16.28 C421.13 18.71 421.15 21.13 421.19 23.56 C421.22 25.89 421.23 28.22 421.25 30.56 C421.27 31.65 421.27 31.65 421.29 32.76 C421.31 36.49 421.22 38.06 419.09 41.25 C418.8 43.64 418.6 46.04 418.47 48.44 C418.39 49.71 418.32 50.99 418.24 52.3 C418.19 53.27 418.14 54.25 418.09 55.25 C417.43 55.25 416.77 55.25 416.09 55.25 C416.11 55.88 416.14 56.51 416.16 57.15 C416.18 57.97 416.2 58.79 416.22 59.63 C416.24 60.44 416.26 61.25 416.29 62.09 C416.09 64.25 416.09 64.25 414.09 66.25 C413.73 68.58 413.4 70.92 413.09 73.25 C412.5 75.62 411.8 77.92 411.09 80.25 C410.43 80.25 409.77 80.25 409.09 80.25 C407.61 85.2 407.61 85.2 406.09 90.25 C405.43 90.25 404.77 90.25 404.09 90.25 C403.82 91.16 403.55 92.07 403.28 93 C402.17 96.04 401.09 97.78 399.09 100.25 C398.66 101 398.22 101.74 397.78 102.5 C394.8 107.35 391.86 112.08 387.09 115.25 C386.1 115.25 385.11 115.25 384.09 115.25 C384.09 116.24 384.09 117.23 384.09 118.25 C382.17 120.73 380.23 122.97 378.09 125.25 C377.27 126.14 376.45 127.02 375.61 127.93 C374.74 128.84 373.86 129.75 372.97 130.69 C371.72 131.99 371.72 131.99 370.46 133.31 C368.09 135.25 368.09 135.25 364.09 135.25 C363.76 136.24 363.43 137.23 363.09 138.25 C361.31 139.57 361.31 139.57 359.15 140.82 C356.79 142.2 355.04 143.3 353.09 145.25 C351.77 145.25 350.45 145.25 349.09 145.25 C349.09 145.91 349.09 146.57 349.09 147.25 C344.09 149.25 344.09 149.25 341.72 150.19 C340.02 150.88 338.32 151.59 336.63 152.32 C331.86 154.36 328.34 155.52 323.09 155.25 C322.43 155.91 321.77 156.57 321.09 157.25 C318.71 157.67 318.71 157.67 315.97 157.88 C314.6 157.99 314.6 157.99 313.21 158.11 C312.51 158.16 311.81 158.2 311.09 158.25 C311.09 158.91 311.09 159.57 311.09 160.25 C307.93 161.84 304.53 161.4 301.06 161.39 C300.22 161.4 299.38 161.4 298.51 161.4 C295.68 161.41 292.85 161.41 290.02 161.42 C287.99 161.42 285.97 161.43 283.95 161.43 C278.44 161.44 272.93 161.45 267.42 161.45 C263.98 161.46 260.55 161.46 257.11 161.47 C246.36 161.48 235.61 161.49 224.86 161.49 C212.44 161.5 200.01 161.52 187.59 161.54 C177.99 161.57 168.4 161.58 158.81 161.58 C153.07 161.58 147.34 161.58 141.6 161.6 C136.21 161.62 130.82 161.62 125.43 161.61 C123.44 161.61 121.46 161.62 119.48 161.63 C116.78 161.64 114.08 161.63 111.38 161.62 C110.59 161.63 109.8 161.64 108.99 161.65 C104.68 161.61 102.28 161.21 99.09 158.25 C96.74 157.69 96.74 157.69 94.34 157.57 C93.54 157.5 92.74 157.44 91.92 157.37 C91.01 157.31 91.01 157.31 90.09 157.25 C90.09 156.59 90.09 155.93 90.09 155.25 C87.78 155.25 85.47 155.25 83.09 155.25 C82.76 154.59 82.43 153.93 82.09 153.25 C79.76 152.92 77.43 152.58 75.09 152.25 C74.43 151.59 73.77 150.93 73.09 150.25 C70.48 148.77 68.02 147.88 65.09 147.25 C65.09 146.59 65.09 145.93 65.09 145.25 C64.04 145.1 64.04 145.1 62.97 144.94 C58.11 143.78 54.52 141.83 51.09 138.25 C50.31 137.8 49.52 137.35 48.72 136.88 C45.71 135.02 43.55 132.78 41.09 130.25 C40.1 129.59 39.11 128.93 38.09 128.25 C35.9 126.75 35.9 126.75 34.09 125.25 C34.09 124.59 34.09 123.93 34.09 123.25 C31 119.9 27.67 117.06 24.09 114.25 C22.08 112.24 20.62 110.23 19.03 107.88 C18.5 107.11 17.97 106.34 17.43 105.54 C16.17 103.38 15.69 101.65 15.09 99.25 C14.43 98.92 13.77 98.59 13.09 98.25 C10.32 95.95 9.2 93.66 8.09 90.25 C8.09 89.26 8.09 88.27 8.09 87.25 C7.43 86.92 6.77 86.59 6.09 86.25 C3.09 80.02 3.09 80.02 3.09 76.25 C2.43 76.25 1.77 76.25 1.09 76.25 C-0.91 69.25 -0.91 69.25 -2.91 62.25 C-3.26 61.08 -3.61 59.91 -3.98 58.7 C-4.88 55.38 -5.48 52.15 -5.97 48.75 C-6.13 47.69 -6.28 46.63 -6.44 45.54 C-6.67 43.91 -6.67 43.91 -6.91 42.25 C-7.08 41.19 -7.24 40.13 -7.41 39.04 C-7.92 35.16 -8.16 31.32 -8.3 27.42 C-8.32 26.7 -8.35 25.99 -8.37 25.25 C-8.42 23.74 -8.47 22.24 -8.52 20.74 C-8.6 18.43 -8.69 16.12 -8.78 13.82 C-8.83 12.35 -8.87 10.89 -8.92 9.42 C-8.96 8.39 -8.96 8.39 -9.01 7.33 C-9.05 5.64 -8.99 3.95 -8.91 2.25 C-6.03 -0.62 -4.03 0 0 0 Z M379.09 119.25 C378.43 120.57 377.77 121.89 377.09 123.25 C377.75 123.25 378.41 123.25 379.09 123.25 C379.42 121.93 379.75 120.61 380.09 119.25 C379.76 119.25 379.43 119.25 379.09 119.25 Z M372.09 126.25 C372.42 126.91 372.75 127.57 373.09 128.25 C373.42 127.59 373.75 126.93 374.09 126.25 C373.43 126.25 372.77 126.25 372.09 126.25 Z M370.09 128.25 C370.42 129.24 370.75 130.23 371.09 131.25 C371.42 130.26 371.75 129.27 372.09 128.25 C371.43 128.25 370.77 128.25 370.09 128.25 Z " fill="#3C2B2F" transform="translate(432.9091262817383,1118.745524406433)"/>
<path d="M0 0 C10.67 0 21.33 0 32 0 C32 0.66 32 1.32 32 2 C33.28 2.14 34.56 2.29 35.88 2.44 C38.26 2.71 39.84 2.92 42 4 C42 4.66 42 5.32 42 6 C42.89 6.23 43.77 6.45 44.69 6.69 C48.58 8.23 50.18 9.91 53 13 C54.35 14.31 55.71 15.63 57.06 16.94 C61.38 21.25 64.27 25.54 67 31 C67.99 31.99 67.99 31.99 69 33 C69.31 33.8 69.62 34.61 69.94 35.44 C70.8 38.01 70.8 38.01 72.56 39.5 C74.49 41.51 74.63 43.3 75 46 C75.66 46 76.32 46 77 46 C77.27 46.76 77.54 47.53 77.81 48.31 C78.81 51 78.81 51 80.62 52.62 C81.08 53.08 81.53 53.53 82 54 C82 54.99 82 55.98 82 57 C82.66 57.33 83.32 57.66 84 58 C85.17 60.63 86.09 63.27 87 66 C87.66 66 88.32 66 89 66 C90.04 67.64 91.04 69.31 92 71 C92.66 71.66 93.32 72.32 94 73 C95.05 75.34 95.92 77.46 96.31 80 C96.94 82.32 96.94 82.32 99.56 84.5 C102 87 102 87 102 91 C102.66 91 103.32 91 104 91 C105.04 92.64 106.04 94.31 107 96 C107.66 96.66 108.32 97.32 109 98 C110.15 100.63 111.09 103.27 112 106 C112.66 106 113.32 106 114 106 C114.59 107.83 114.59 107.83 115.19 109.69 C116.69 113.76 118.84 116.01 122 119 C122.56 120.94 122.56 120.94 123 123 C124.83 125.95 126.55 128.55 129 131 C129.84 133.01 130.52 135.06 131.22 137.12 C131.94 139.2 131.94 139.2 134 141 C134.72 143.32 135.38 145.65 136 148 C136.33 148.99 136.66 149.98 137 151 C137.23 154.68 137.19 158.37 137.19 162.06 C137.2 163.08 137.21 164.1 137.22 165.15 C137.23 166.12 137.23 167.1 137.23 168.1 C137.23 168.99 137.24 169.88 137.24 170.8 C137 173 137 173 135 175 C134.6 177.32 134.26 179.66 134 182 C133.34 182 132.68 182 132 182 C131.9 182.7 131.79 183.4 131.69 184.12 C129.33 193.99 120.83 201.75 112.56 207.19 C109 209 109 209 105 209 C105 209.66 105 210.32 105 211 C103.36 211.43 103.36 211.43 101.69 211.88 C97.96 212.82 97.96 212.82 95 215 C87.91 216.77 79.07 216.9 72 215 C71.4 214.55 70.8 214.09 70.19 213.62 C67.38 211.54 64.54 210.75 61.22 209.75 C55.19 207.72 49.74 204.2 45 200 C45 199.34 45 198.68 45 198 C44.34 198 43.68 198 43 198 C42.01 195.52 42.01 195.52 41 193 C40.34 193 39.68 193 39 193 C39 192.01 39 191.02 39 190 C38.34 189.67 37.68 189.34 37 189 C36.78 188.01 36.78 188.01 36.56 187 C36.38 186.34 36.19 185.68 36 185 C35.01 184.67 34.02 184.34 33 184 C31.06 180.92 30.1 177.45 29 174 C28.34 174 27.68 174 27 174 C24 168.25 24 168.25 24 166 C23.34 165.67 22.68 165.34 22 165 C20.64 162.73 19.44 160.39 18.22 158.03 C17.16 155.86 17.16 155.86 15 155 C14.38 151.94 14.38 151.94 14 149 C13.34 149 12.68 149 12 149 C9 143.25 9 143.25 9 141 C8.34 140.67 7.68 140.34 7 140 C5.75 138.29 5.75 138.29 4.44 136.19 C4 135.5 3.57 134.81 3.12 134.11 C2 132 2 132 1.47 129.8 C1.32 129.21 1.16 128.61 1 128 C0.01 127.5 0.01 127.5 -1 127 C-3.61 123.94 -5.27 120.61 -7 117 C-7.35 116.3 -7.7 115.6 -8.06 114.88 C-9.04 112.92 -10.02 110.96 -11 109 C-11.66 109 -12.32 109 -13 109 C-13.27 108.24 -13.54 107.47 -13.81 106.69 C-14.8 104.02 -14.8 104.02 -16.5 102.5 C-18 101 -18 101 -18.9 98.73 C-20.43 94.94 -22.59 91.66 -24.76 88.21 C-26 86 -26 86 -26 84 C-26.66 84 -27.32 84 -28 84 C-29 82 -30 80 -31 78 C-31.5 77.15 -31.99 76.31 -32.5 75.44 C-36.91 65.34 -37.76 54.87 -37 44 C-36.5 43.51 -36.5 43.51 -36 43 C-35.72 40.71 -35.55 38.43 -35.38 36.13 C-35 34 -35 34 -33 32 C-32.36 29.93 -32.36 29.93 -32 28 C-31.34 28 -30.68 28 -30 28 C-29.91 27.26 -29.81 26.53 -29.71 25.77 C-28.89 22.59 -27.75 21.1 -25.56 18.69 C-24.95 17.99 -24.33 17.29 -23.69 16.57 C-22 15 -22 15 -20 15 C-19.67 14.01 -19.34 13.02 -19 12 C-6.93 2 -6.93 2 0 2 C0 1.34 0 0.68 0 0 Z M83 213 C83 213.33 83 213.66 83 214 C86.96 214 90.92 214 95 214 C95 213.67 95 213.34 95 213 C91.04 213 87.08 213 83 213 Z " fill="#3C2B2F" transform="translate(252,0)"/>
<path d="M0 0 C0.99 0 1.98 0 3 0 C4.74 -0.03 6.48 -0.05 8.22 -0.08 C11.14 -0.12 14.07 -0.14 17 -0.16 C18.53 -0.18 20.07 -0.2 21.61 -0.23 C23.84 -0.26 26.07 -0.28 28.3 -0.29 C28.98 -0.31 29.66 -0.32 30.37 -0.34 C35 -0.34 38.01 0.71 42 3 C43.39 3.53 43.39 3.53 44.81 4.06 C47 5 47 5 48 7 C48.68 7.39 49.36 7.78 50.06 8.19 C56.73 12.3 63.03 17.52 65.56 25.12 C66.47 27.84 66.92 28.92 69 31 C69.72 33.32 70.38 35.65 71 38 C71.33 38.99 71.66 39.98 72 41 C72.23 45.18 72.19 49.37 72.19 53.56 C72.2 54.72 72.21 55.89 72.22 57.08 C72.23 58.19 72.23 59.3 72.23 60.44 C72.23 61.46 72.24 62.48 72.24 63.53 C72 66 72 66 70 68 C68.86 71.63 67.89 75.3 67 79 C66.34 79 65.68 79 65 79 C64.6 80.39 64.6 80.39 64.19 81.81 C63.04 84.89 62.27 85.83 60 88 C59.29 90.1 59.29 90.1 59 92 C58.34 92 57.68 92 57 92 C56.85 93.14 56.85 93.14 56.69 94.31 C55.93 97.27 55.13 97.96 53 100 C52.29 102.1 52.29 102.1 52 104 C51.34 104 50.68 104 50 104 C49.67 105.32 49.34 106.64 49 108 C48.34 108 47.68 108 47 108 C46.9 108.54 46.79 109.07 46.69 109.62 C45.65 113.21 44.31 116.77 41.55 119.36 C38.99 122.06 37.8 125.46 36.28 128.82 C35 131 35 131 32 132 C31.9 132.7 31.79 133.4 31.69 134.12 C30.53 138.98 28.58 142.57 25 146 C23.99 147.66 22.99 149.33 22 151 C21.34 151.66 20.68 152.32 20 153 C19.36 155.07 19.36 155.07 19 157 C18.34 157 17.68 157 17 157 C16.9 157.76 16.79 158.53 16.69 159.31 C15.93 162.27 15.13 162.96 13 165 C12.29 167.1 12.29 167.1 12 169 C11.34 169 10.68 169 10 169 C9.73 169.93 9.46 170.86 9.19 171.81 C8.03 174.92 7.28 175.81 5 178 C4.67 178.82 4.34 179.65 4 180.5 C2.96 183.1 1.98 184.09 0 186 C-1.05 187.64 -2.04 189.31 -3 191 C-3.36 191.62 -3.71 192.24 -4.08 192.88 C-5.06 194.58 -6.03 196.29 -7 198 C-7.66 198 -8.32 198 -9 198 C-9 198.66 -9 199.32 -9 200 C-11.47 201.95 -14.28 203.42 -17 205 C-17.88 205.54 -18.76 206.07 -19.66 206.62 C-24.87 209.67 -29.04 211.66 -35.12 211.8 C-37.34 211.89 -37.34 211.89 -40 214 C-43.07 214.27 -43.07 214.27 -46.56 214.25 C-47.72 214.26 -48.88 214.26 -50.07 214.27 C-53 214 -53 214 -55 212 C-56.9 211.65 -56.9 211.65 -59.06 211.56 C-63.82 211.12 -68.81 210.42 -73 208 C-73.75 205.89 -73.75 205.89 -74 204 C-74.7 203.94 -75.4 203.88 -76.12 203.81 C-81.92 202.17 -85.48 197.65 -89 193 C-89.87 192.03 -90.73 191.06 -91.62 190.06 C-94.3 186.61 -96 183.44 -96 179 C-96.66 178.67 -97.32 178.34 -98 178 C-100.26 170.46 -101.58 162.85 -101 155 C-100.95 154.05 -100.89 153.09 -100.84 152.11 C-100.29 144.44 -100.29 144.44 -98 141 C-97.69 140.03 -97.38 139.06 -97.06 138.06 C-96.04 135.13 -94.9 133.4 -93 131 C-92.67 130.01 -92.34 129.02 -92 128 C-91.34 128 -90.68 128 -90 128 C-89.88 127.24 -89.75 126.47 -89.62 125.69 C-89 123 -89 123 -87 120 C-86.34 120 -85.68 120 -85 120 C-84.9 119.46 -84.79 118.93 -84.69 118.38 C-83.32 113.66 -80.94 109.87 -78 106 C-77.5 104.52 -77.5 104.52 -77 103 C-76.34 103 -75.68 103 -75 103 C-74.77 102.36 -74.55 101.72 -74.31 101.06 C-71.89 95.41 -68.91 90.13 -65.25 85.19 C-63.23 82.33 -62.79 81.17 -62 78 C-60.69 76.64 -59.35 75.31 -58 74 C-55.69 70.49 -53.84 66.78 -52 63 C-51.34 63 -50.68 63 -50 63 C-49.81 61.86 -49.81 61.86 -49.62 60.69 C-49 58 -49 58 -47 55 C-46.34 55 -45.68 55 -45 55 C-44.9 54.46 -44.79 53.93 -44.69 53.38 C-43.32 48.66 -40.94 44.87 -38 41 C-37.67 40.01 -37.34 39.02 -37 38 C-36.34 38 -35.68 38 -35 38 C-34.73 37.27 -34.45 36.55 -34.17 35.8 C-29.8 25.36 -22.08 13.91 -13 7 C-11.68 7 -10.36 7 -9 7 C-9 6.34 -9 5.68 -9 5 C-3.38 2 -3.38 2 0 2 C0 1.34 0 0.68 0 0 Z " fill="#3C2B2F" transform="translate(987,0)"/>
<path d="M0 0 C6.97 0.08 13.25 1.3 19.95 3.26 C19.95 3.92 19.95 4.58 19.95 5.26 C20.82 5.5 21.7 5.75 22.61 6 C32.89 9.88 41.55 19.9 46.95 29.26 C47.61 29.59 48.27 29.92 48.95 30.26 C49.51 32.04 49.51 32.04 49.95 34.2 C50.55 37.17 50.73 38.05 52.95 40.26 C53.34 44.36 53.27 48.46 53.26 52.58 C53.26 54.62 53.28 56.66 53.31 58.7 C53.31 59.98 53.31 61.27 53.31 62.6 C53.31 63.78 53.31 64.96 53.32 66.18 C52.91 69.54 52.14 70.77 49.95 73.26 C49.24 75.41 49.24 75.41 48.95 77.26 C48.29 77.26 47.63 77.26 46.95 77.26 C46.78 78.36 46.78 78.36 46.6 79.49 C44.68 87.59 37.71 94.75 30.95 99.26 C29.63 99.26 28.31 99.26 26.95 99.26 C26.95 99.92 26.95 100.58 26.95 101.26 C24.47 101.75 24.47 101.75 21.95 102.26 C21.95 102.92 21.95 103.58 21.95 104.26 C21.28 104.51 20.62 104.77 19.93 105.03 C14.45 107.15 14.45 107.15 9.26 109.88 C4.9 112.48 -0.11 113.36 -5.05 114.26 C-5.05 114.92 -5.05 115.58 -5.05 116.26 C-8.37 117.68 -11.5 118.65 -15.05 119.26 C-15.05 119.92 -15.05 120.58 -15.05 121.26 C-17.68 122.26 -20.3 123.26 -22.93 124.26 C-23.68 124.55 -24.42 124.83 -25.19 125.13 C-30.83 127.26 -30.83 127.26 -33.05 127.26 C-33.05 127.92 -33.05 128.58 -33.05 129.26 C-34.43 129.77 -34.43 129.77 -35.83 130.28 C-37.02 130.73 -38.2 131.18 -39.43 131.63 C-40.61 132.08 -41.8 132.52 -43.02 132.97 C-46.1 134.05 -46.1 134.05 -48.05 136.26 C-52.01 137.53 -55.97 138.52 -60.05 139.26 C-60.05 139.92 -60.05 140.58 -60.05 141.26 C-63.37 142.68 -66.5 143.65 -70.05 144.26 C-70.05 144.92 -70.05 145.58 -70.05 146.26 C-72.69 146.59 -75.33 146.92 -78.05 147.26 C-78.05 147.92 -78.05 148.58 -78.05 149.26 C-79.27 149.71 -80.49 150.17 -81.74 150.63 C-87.45 152.69 -87.45 152.69 -92.91 155.3 C-95.32 156.38 -96.98 156.52 -99.61 156.53 C-100.47 156.53 -101.33 156.53 -102.22 156.53 C-103.56 156.52 -103.56 156.52 -104.93 156.51 C-105.82 156.52 -106.7 156.53 -107.61 156.53 C-112.45 156.52 -116.58 156.3 -121.05 154.26 C-121.38 153.6 -121.71 152.94 -122.05 152.26 C-123.69 152.07 -123.69 152.07 -125.37 151.88 C-129.55 151.18 -130.34 150.34 -133.05 147.26 C-134.71 146.25 -136.38 145.25 -138.05 144.26 C-139.05 143.26 -140.05 142.26 -141.05 141.26 C-142.04 140.93 -143.03 140.6 -144.05 140.26 C-145.08 138.61 -146.08 136.94 -147.05 135.26 C-147.98 134.39 -147.98 134.39 -148.93 133.5 C-156.02 126.04 -159.3 115.3 -160.05 105.26 C-160.12 104.42 -160.19 103.58 -160.27 102.71 C-160.55 95.92 -158.93 89.75 -157.05 83.26 C-156.39 83.26 -155.73 83.26 -155.05 83.26 C-155.16 81.94 -155.16 81.94 -155.27 80.6 C-154.75 72.61 -146.7 65.36 -141.11 60.03 C-133.77 53.69 -123.98 47.26 -114.05 47.26 C-114.05 46.6 -114.05 45.94 -114.05 45.26 C-110.74 43.84 -107.61 42.87 -104.05 42.26 C-104.05 41.6 -104.05 40.94 -104.05 40.26 C-102.86 39.91 -101.66 39.56 -100.43 39.2 C-94.76 37.33 -89.57 34.61 -84.29 31.88 C-81.57 30.52 -78.89 29.35 -76.05 28.26 C-73.03 26.97 -70.01 25.68 -66.99 24.38 C-64.33 23.36 -61.86 22.72 -59.05 22.26 C-59.05 21.6 -59.05 20.94 -59.05 20.26 C-56.7 19.31 -54.35 18.37 -51.98 17.47 C-46.36 15.31 -40.93 12.83 -35.49 10.26 C-34.75 9.91 -34.01 9.56 -33.25 9.2 C-30.23 7.77 -27.21 6.34 -24.21 4.89 C-19.74 2.8 -15.96 1.77 -11.05 1.26 C-8.81 -0.98 -3.12 0.01 0 0 Z M-119.05 153.26 C-119.05 153.59 -119.05 153.92 -119.05 154.26 C-115.42 154.26 -111.79 154.26 -108.05 154.26 C-108.05 153.93 -108.05 153.6 -108.05 153.26 C-111.68 153.26 -115.31 153.26 -119.05 153.26 Z " fill="#3C2B2F" transform="translate(1227.054443359375,249.740234375)"/>
<path d="M0 0 C7.86 0.35 14.68 1.13 22 4 C22.88 4.3 23.77 4.6 24.68 4.91 C30.05 6.75 34.89 8.9 39.79 11.77 C42.84 13.47 46.02 14.79 49.25 16.11 C51 17 51 17 52 19 C53.32 19.39 54.66 19.71 56 20 C58 20.66 60 21.32 62 22 C62 22.66 62 23.32 62 24 C62.72 24.12 63.44 24.25 64.19 24.38 C66.96 24.99 69.4 25.88 72 27 C72 27.66 72 28.32 72 29 C72.66 29.1 73.32 29.21 74 29.31 C77.84 30.19 81.33 31.57 85 33 C85 33.66 85 34.32 85 35 C86.11 35.23 87.23 35.45 88.38 35.69 C93.59 36.98 98.41 39.21 103 42 C103.33 42.66 103.66 43.32 104 44 C104.7 44.13 105.39 44.27 106.11 44.4 C109.81 45.17 112.88 46.82 116.19 48.56 C120.38 51.03 120.38 51.03 125 52 C125 52.66 125 53.32 125 54 C125.58 54.29 126.16 54.58 126.75 54.88 C127.86 55.43 127.86 55.43 129 56 C129.58 56.23 130.16 56.46 130.75 56.7 C134.06 58.61 136.56 61.19 139.25 63.88 C140.08 64.67 140.08 64.67 140.93 65.48 C142.37 66.91 143.69 68.45 145 70 C145 71.32 145 72.64 145 74 C145.66 74 146.32 74 147 74 C147.33 75.65 147.66 77.3 148 79 C148.99 79.33 149.98 79.66 151 80 C151 80.99 151 81.98 151 83 C151.48 83.63 151.96 84.26 152.45 84.91 C157.18 91.29 155 102.64 154 110 C153.67 110.33 153.34 110.66 153 111 C152.77 112.51 152.59 114.04 152.44 115.56 C152.35 116.39 152.27 117.22 152.18 118.07 C152.12 118.7 152.06 119.34 152 120 C151.34 120 150.68 120 150 120 C149.81 121.08 149.81 121.08 149.62 122.19 C149.01 124.96 148.12 127.4 147 130 C146.34 130 145.68 130 145 130 C144.94 130.74 144.88 131.49 144.81 132.25 C143.74 135.87 142.17 137.04 139 139 C138.01 138.67 137.02 138.34 136 138 C136.33 139.32 136.66 140.64 137 142 C130.27 147.28 124.32 150.71 116 153 C115.67 153.33 115.34 153.66 115 154 C112.93 154.09 110.85 154.11 108.78 154.1 C107.52 154.09 106.26 154.09 104.96 154.09 C103.62 154.08 102.28 154.07 100.94 154.06 C99.59 154.06 98.25 154.05 96.9 154.05 C93.6 154.04 90.3 154.02 87 154 C86.67 153.34 86.34 152.68 86 152 C85.05 152.04 84.1 152.08 83.12 152.12 C80 152 80 152 78 150 C75.93 149.36 75.93 149.36 74 149 C74 148.34 74 147.68 74 147 C72.92 146.81 72.92 146.81 71.81 146.62 C69.04 146.01 66.6 145.12 64 144 C64 143.34 64 142.68 64 142 C62.92 141.81 62.92 141.81 61.81 141.62 C59.04 141.01 56.6 140.12 54 139 C54 138.34 54 137.68 54 137 C53.26 136.87 52.53 136.73 51.77 136.6 C41.38 134.35 31.54 128.56 22 124 C22 123.34 22 122.68 22 122 C20.35 122 18.7 122 17 122 C17 121.34 17 120.68 17 120 C15.35 119.67 13.7 119.34 12 119 C12 118.34 12 117.68 12 117 C10.35 117 8.7 117 7 117 C7 116.34 7 115.68 7 115 C5.35 114.67 3.7 114.34 2 114 C2 113.34 2 112.68 2 112 C0.35 112 -1.3 112 -3 112 C-3 111.34 -3 110.68 -3 110 C-4.65 109.67 -6.3 109.34 -8 109 C-8 108.34 -8 107.68 -8 107 C-9.65 107 -11.3 107 -13 107 C-13 106.34 -13 105.68 -13 105 C-14.65 104.67 -16.3 104.34 -18 104 C-18 103.34 -18 102.68 -18 102 C-19.65 102 -21.3 102 -23 102 C-23 101.34 -23 100.68 -23 100 C-23.89 99.76 -24.79 99.51 -25.71 99.26 C-33.27 96.36 -38.58 89.13 -42 82 C-42.33 81.01 -42.66 80.02 -43 79 C-43.66 78.67 -44.32 78.34 -45 78 C-49.14 70.77 -49.54 63.78 -49.31 55.62 C-49.3 54.56 -49.29 53.49 -49.28 52.39 C-49.13 41.74 -46.64 32.58 -40 24 C-39.61 23.26 -39.22 22.51 -38.81 21.75 C-32.11 11.59 -21 4.56 -9.07 2.05 C-6.04 1.58 -3.06 1.21 0 1 C0 0.67 0 0.34 0 0 Z " fill="#3C2B2F" transform="translate(49,252)"/>
<path d="M0 0 C0.33 0 0.66 0 1 0 C1 91.08 1 182.16 1 276 C0.67 276 0.34 276 0 276 C0 184.92 0 93.84 0 0 Z " fill="#000002" transform="translate(587,737)"/>
<path d="M0 0 C60.72 0 121.44 0 184 0 C184 0.33 184 0.66 184 1 C123.28 1 62.56 1 0 1 C0 0.67 0 0.34 0 0 Z " fill="#000002" transform="translate(401,1014)"/>
<path d="M0 0 C60.06 0 120.12 0 182 0 C182 0.33 182 0.66 182 1 C121.94 1 61.88 1 0 1 C0 0.67 0 0.34 0 0 Z " fill="#000002" transform="translate(695,1014)"/>
<path d="M0 0 C0.66 1.32 1.32 2.64 2 4 C-4.6 10.6 -11.2 17.2 -18 24 C-18.99 23.34 -19.98 22.68 -21 22 C-20.4 21.4 -19.8 20.81 -19.18 20.2 C-16.95 17.99 -14.73 15.78 -12.51 13.56 C-11.55 12.61 -10.58 11.65 -9.62 10.7 C-8.24 9.32 -6.85 7.95 -5.47 6.57 C-4.64 5.74 -3.81 4.92 -2.95 4.06 C-0.96 2.15 -0.96 2.15 0 0 Z " fill="#21181B" transform="translate(350,325)"/>
<path d="M0 0 C-3 1.73 -5.17 2.26 -8.62 2.27 C-9.93 2.27 -9.93 2.27 -11.27 2.27 C-12.17 2.27 -13.07 2.26 -14 2.25 C-14.9 2.26 -15.8 2.27 -16.73 2.27 C-17.61 2.27 -18.48 2.27 -19.38 2.27 C-20.56 2.26 -20.56 2.26 -21.77 2.26 C-24.23 1.97 -25.87 1.22 -28 0 C-18.57 -1.32 -9.44 -0.72 0 0 Z " fill="#060406" transform="translate(1136,404)"/>
<path d="M0 0 C0.33 0 0.66 0 1 0 C1 14.85 1 29.7 1 45 C0.67 45 0.34 45 0 45 C0 30.15 0 15.3 0 0 Z " fill="#000002" transform="translate(1067,617)"/>
<path d="M0 0 C8.58 0 17.16 0 26 0 C22.46 1.77 21.45 2.25 17.81 2.27 C16.64 2.27 16.64 2.27 15.45 2.27 C14.23 2.26 14.23 2.26 13 2.25 C12.19 2.26 11.39 2.27 10.55 2.27 C9.77 2.27 8.99 2.27 8.19 2.27 C7.48 2.26 6.77 2.26 6.04 2.26 C4 2 4 2 0 0 Z " fill="#000002" transform="translate(627,639)"/>
<path d="M0 0 C2.57 3.85 2.29 7.04 2.25 11.5 C2.26 12.27 2.27 13.04 2.27 13.84 C2.26 17.74 2.21 19.69 0 23 C0 15.41 0 7.82 0 0 Z " fill="#000002" transform="translate(1059,41)"/>
<path d="M0 0 C5 5 10 10 15 15 C14.67 15.66 14.34 16.32 14 17 C13.32 16.3 12.64 15.6 11.94 14.88 C9.27 12.2 6.44 9.76 3.55 7.33 C2.32 6.27 1.15 5.15 0 4 C0 2.68 0 1.36 0 0 Z M12 17 C14 18 14 18 14 18 Z " fill="#1A1315" transform="translate(455,1227)"/>
<path d="M0 0 C0 0.33 0 0.66 0 1 C-7.5 2.62 -15.5 2.62 -23 1 C-23 0.67 -23 0.34 -23 0 C-15.2 -1.21 -7.84 -0.73 0 0 Z " fill="#000002" transform="translate(347,214)"/>
<path d="M0 0 C4.32 0.47 6.34 3.03 9.25 6.06 C10.14 6.98 11.03 7.9 11.95 8.85 C12.63 9.56 13.3 10.27 14 11 C13.67 11.99 13.34 12.98 13 14 C11.5 12.62 11.5 12.62 10 11 C10 10.34 10 9.68 10 9 C9.34 9 8.68 9 8 9 C7.67 8.34 7.34 7.68 7 7 C6.34 6.69 5.68 6.38 5 6.06 C3 5 3 5 2 2 C1.34 1.34 0.68 0.68 0 0 Z " fill="#161012" transform="translate(932,330)"/>
<path d="M0 0 C0.33 0 0.66 0 1 0 C1 8.25 1 16.5 1 25 C0.67 25 0.34 25 0 25 C0 16.75 0 8.5 0 0 Z " fill="#000002" transform="translate(854,1123)"/>
<path d="M0 0 C0.33 0 0.66 0 1 0 C1.33 5.28 1.66 10.56 2 16 C-0.42 12.37 -0.21 10.62 -0.12 6.31 C-0.1 4.54 -0.1 4.54 -0.07 2.74 C-0.05 1.83 -0.02 0.93 0 0 Z " fill="#000002" transform="translate(1064,586)"/>
<path d="M0 0 C6.27 0 12.54 0 19 0 C19 0.33 19 0.66 19 1 C12.73 1 6.46 1 0 1 C0 0.67 0 0.34 0 0 Z " fill="#000002" transform="translate(140,407)"/>
<path d="M0 0 C0.33 0 0.66 0 1 0 C1 5.94 1 11.88 1 18 C0.67 18 0.34 18 0 18 C0 12.06 0 6.12 0 0 Z " fill="#000002" transform="translate(389,152)"/>
<path d="M0 0 C0.66 0.33 1.32 0.66 2 1 C-0.64 3.64 -3.28 6.28 -6 9 C-6 6 -6 6 -4.69 4.39 C-4.13 3.87 -3.57 3.35 -3 2.81 C-2.44 2.28 -1.89 1.75 -1.31 1.21 C-0.66 0.61 -0.66 0.61 0 0 Z " fill="#2B1F22" transform="translate(981,901)"/>
<path d="M0 0 C0.66 0 1.32 0 2 0 C1.67 2.97 1.34 5.94 1 9 C0.67 9 0.34 9 0 9 C0 6.03 0 3.06 0 0 Z " fill="#000002" transform="translate(1059,717)"/>
<path d="M0 0 C0.33 0 0.66 0 1 0 C1.33 3.3 1.66 6.6 2 10 C0 8 0 8 -0.2 6.05 C-0.1 3.03 -0.1 3.03 0 0 Z " fill="#000002" transform="translate(1059,555)"/>
<path d="M0 0 C0.66 0.33 1.32 0.66 2 1 C-1.47 3.97 -1.47 3.97 -5 7 C-3.38 3.77 -2.52 2.29 0 0 Z " fill="#2A1E21" transform="translate(711,546)"/>
<path d="M0 0 C0.33 0 0.66 0 1 0 C1 3.63 1 7.26 1 11 C0.67 11 0.34 11 0 11 C0 7.37 0 3.74 0 0 Z " fill="#000002" transform="translate(852,1160)"/>
<path d="M0 0 C0.33 0 0.66 0 1 0 C1 3.63 1 7.26 1 11 C0.67 11 0.34 11 0 11 C0 7.37 0 3.74 0 0 Z " fill="#000002" transform="translate(1062,700)"/>
<path d="M0 0 C1.45 0.03 1.45 0.03 2.94 0.06 C-0.06 2.06 -0.06 2.06 -2.25 1.69 C-2.85 1.48 -3.45 1.28 -4.06 1.06 C-3.06 0.06 -3.06 0.06 0 0 Z " fill="#000002" transform="translate(759.0625,1273.9375)"/>
<path d="M0 0 C0.33 0 0.66 0 1 0 C1 3.3 1 6.6 1 10 C0.67 10 0.34 10 0 10 C0 6.7 0 3.4 0 0 Z " fill="#000002" transform="translate(1062,570)"/>
<path d="M0 0 C0.62 1.88 0.62 1.88 1 4 C0.34 4.66 -0.32 5.32 -1 6 C-1.04 4.33 -1.04 2.67 -1 1 C-0.67 0.67 -0.34 0.34 0 0 Z " fill="#000002" transform="translate(850,1175)"/>
<path d="M0 0 C0.33 0 0.66 0 1 0 C1.33 2.64 1.66 5.28 2 8 C0 6 0 6 -0.12 2.88 C-0.08 1.93 -0.04 0.98 0 0 Z " fill="#000002" transform="translate(484,617)"/>
<path d="M0 0 C0.33 0 0.66 0 1 0 C1 2.97 1 5.94 1 9 C0.67 9 0.34 9 0 9 C0 6.03 0 3.06 0 0 Z " fill="#000002" transform="translate(482,603)"/>
<path d="M0 0 C2 3 2 3 2 6 C1.34 6 0.68 6 0 6 C0 4.02 0 2.04 0 0 Z " fill="#000002" transform="translate(1054,534)"/>
<path d="M0 0 C0.33 0 0.66 0 1 0 C1 2.64 1 5.28 1 8 C0.67 8 0.34 8 0 8 C0 5.36 0 2.72 0 0 Z " fill="#000002" transform="translate(1064,687)"/>
<path d="M0 0 C0.33 0 0.66 0 1 0 C1 2.64 1 5.28 1 8 C0.67 8 0.34 8 0 8 C0 5.36 0 2.72 0 0 Z " fill="#000002" transform="translate(1065,678)"/>
<path d="M0 0 C0.33 0 0.66 0 1 0 C1 2.31 1 4.62 1 7 C0.67 7 0.34 7 0 7 C0 4.69 0 2.38 0 0 Z " fill="#000002" transform="translate(1057,730)"/>
<path d="M0 0 C0.33 0 0.66 0 1 0 C1 2.31 1 4.62 1 7 C0.67 7 0.34 7 0 7 C0 4.69 0 2.38 0 0 Z " fill="#000002" transform="translate(692,595)"/>
<path d="M0 0 C0.33 0 0.66 0 1 0 C1 2.31 1 4.62 1 7 C0.67 7 0.34 7 0 7 C0 4.69 0 2.38 0 0 Z " fill="#000002" transform="translate(482,570)"/>
<path d="M0 0 C0.66 0.33 1.32 0.66 2 1 C0.68 1.99 -0.64 2.98 -2 4 C-1.34 2.68 -0.68 1.36 0 0 Z " fill="#2B1F22" transform="translate(496,546)"/>
<path d="M0 0 C2.31 0 4.62 0 7 0 C7 0.33 7 0.66 7 1 C4.69 1 2.38 1 0 1 C0 0.67 0 0.34 0 0 Z " fill="#000002" transform="translate(925,212)"/>
<path d="M0 0 C1.98 0 3.96 0 6 0 C6 0.33 6 0.66 6 1 C4.02 1 2.04 1 0 1 C0 0.67 0 0.34 0 0 Z " fill="#000002" transform="translate(746,1277)"/>
<path d="M0 0 C0.33 0.66 0.66 1.32 1 2 C0.01 3.49 0.01 3.49 -1 5 C-0.67 3.35 -0.34 1.7 0 0 Z " fill="#000002" transform="translate(1045,779)"/>
<path d="M0 0 C0.33 0 0.66 0 1 0 C1 1.98 1 3.96 1 6 C0.67 6 0.34 6 0 6 C0 4.02 0 2.04 0 0 Z " fill="#000002" transform="translate(487,629)"/>
<path d="M0 0 C0.66 1.32 1.32 2.64 2 4 C1.34 4 0.68 4 0 4 C0 2.68 0 1.36 0 0 Z " fill="#000002" transform="translate(1049,516)"/>
<path d="M0 0 C1.32 0 2.64 0 4 0 C4 0.66 4 1.32 4 2 C2.68 1.34 1.36 0.68 0 0 Z " fill="#000002" transform="translate(131,404)"/>
<path d="M0 0 C1.98 0 3.96 0 6 0 C6 0.33 6 0.66 6 1 C4.02 1 2.04 1 0 1 C0 0.67 0 0.34 0 0 Z " fill="#000002" transform="translate(950,212)"/>
<path d="M0 0 C1.65 0 3.3 0 5 0 C5 0.33 5 0.66 5 1 C3.35 1 1.7 1 0 1 C0 0.67 0 0.34 0 0 Z " fill="#000002" transform="translate(527,1277)"/>
<path d="M0 0 C1.32 0.33 2.64 0.66 4 1 C3.01 1.49 3.01 1.49 2 2 C1.34 1.34 0.68 0.68 0 0 Z " fill="#000002" transform="translate(518,1274)"/>
<path d="M0 0 C0.66 0.33 1.32 0.66 2 1 C1.01 1.66 0.02 2.32 -1 3 C-0.67 2.01 -0.34 1.02 0 0 Z " fill="#241A1D" transform="translate(818,1234)"/>
<path d="M0 0 C0.33 0 0.66 0 1 0 C1 1.65 1 3.3 1 5 C0.67 5 0.34 5 0 5 C0 3.35 0 1.7 0 0 Z " fill="#000002" transform="translate(847,1185)"/>
<path d="M0 0 C0.33 0 0.66 0 1 0 C1 1.65 1 3.3 1 5 C0.67 5 0.34 5 0 5 C0 3.35 0 1.7 0 0 Z " fill="#000002" transform="translate(1037,800)"/>
<path d="M0 0 C0.66 1.32 1.32 2.64 2 4 C1.34 3.67 0.68 3.34 0 3 C0 2.01 0 1.02 0 0 Z " fill="#000002" transform="translate(1044,501)"/>
<path d="M0 0 C0.33 0 0.66 0 1 0 C1 1.65 1 3.3 1 5 C0.67 5 0.34 5 0 5 C0 3.35 0 1.7 0 0 Z " fill="#000002" transform="translate(202,363)"/>
<path d="M0 0 C0.33 0 0.66 0 1 0 C1 1.65 1 3.3 1 5 C0.67 5 0.34 5 0 5 C0 3.35 0 1.7 0 0 Z " fill="#302326" transform="translate(885,156)"/>
<path d="M0 0 C1 4 1 4 1 4 Z " fill="#000002" transform="translate(1047,771)"/>
<path d="M0 0 C1 4 1 4 1 4 Z " fill="#000002" transform="translate(1052,753)"/>
<path d="M0 0 C4 1 4 1 4 1 Z " fill="#000002" transform="translate(763,537)"/>
<path d="M0 0 C4 1 4 1 4 1 Z " fill="#000002" transform="translate(513,537)"/>
<path d="M0 0 C4 1 4 1 4 1 Z " fill="#000002" transform="translate(756,535)"/>
<path d="M0 0 C4 1 4 1 4 1 Z " fill="#000002" transform="translate(520,535)"/>
<path d="M0 0 C1 4 1 4 1 4 Z " fill="#000002" transform="translate(1047,508)"/>
<path d="M0 0 C4 1 4 1 4 1 Z " fill="#000002" transform="translate(351,212)"/>
<path d="M0 0 C1 4 1 4 1 4 Z " fill="#000002" transform="translate(387,175)"/>
<path d="M0 0 C1 4 1 4 1 4 Z " fill="#000002" transform="translate(1057,68)"/>
<path d="M0 0 C1 4 1 4 1 4 Z " fill="#000002" transform="translate(1057,33)"/>
<path d="M0 0 C3 1 3 1 3 1 Z " fill="#000002" transform="translate(512,1272)"/>
<path d="M0 0 C0.66 0.66 1.32 1.32 2 2 C1.34 2 0.68 2 0 2 C0 1.34 0 0.68 0 0 Z " fill="#281D20" transform="translate(462,1238)"/>
<path d="M0 0 C0.99 0.5 0.99 0.5 2 1 C1.01 1.5 1.01 1.5 0 2 C0 1.34 0 0.68 0 0 Z " fill="#281D20" transform="translate(891,991)"/>
<path d="M0 0 C0.99 0.5 0.99 0.5 2 1 C1.01 1.5 1.01 1.5 0 2 C0 1.34 0 0.68 0 0 Z " fill="#281D20" transform="translate(916,963)"/>
<path d="" fill="#000002" transform="translate(0,0)"/>
<path d="" fill="#000002" transform="translate(0,0)"/>
<path d="" fill="#3D2C30" transform="translate(0,0)"/>
<path d="" fill="#000002" transform="translate(0,0)"/>
<path d="M0 0 C3 1 3 1 3 1 Z " fill="#000002" transform="translate(542,535)"/>
<path d="" fill="#000002" transform="translate(0,0)"/>
<path d="M0 0 C3 1 3 1 3 1 Z " fill="#000002" transform="translate(1102,402)"/>
<path d="M0 0 C3 1 3 1 3 1 Z " fill="#000002" transform="translate(1151,397)"/>
<path d="M0 0 C0.99 0.5 0.99 0.5 2 1 C1.01 1.5 1.01 1.5 0 2 C0 1.34 0 0.68 0 0 Z " fill="#281D20" transform="translate(186,391)"/>
<path d="M0 0 C3 1 3 1 3 1 Z " fill="#000002" transform="translate(1173,387)"/>
<path d="M0 0 C3 1 3 1 3 1 Z " fill="#000002" transform="translate(94,387)"/>
<path d="M0 0 C3 1 3 1 3 1 Z " fill="#000002" transform="translate(1228,362)"/>
<path d="M0 0 C3 1 3 1 3 1 Z " fill="#000002" transform="translate(31,357)"/>
<path d="M0 0 C0.66 0 1.32 0 2 0 C1.67 0.66 1.34 1.32 1 2 C0.67 1.34 0.34 0.68 0 0 Z " fill="#000002" transform="translate(199,333)"/>
<path d="M0 0 C3 1 3 1 3 1 Z " fill="#000002" transform="translate(317,212)"/>
<path d="" fill="#000002" transform="translate(0,0)"/>
<path d="M0 0 C2 1 2 1 2 1 Z " fill="#000002" transform="translate(766,1272)"/>
<path d="M0 0 C2 1 2 1 2 1 Z " fill="#000002" transform="translate(500,1267)"/>
<path d="" fill="#000002" transform="translate(0,0)"/>
<path d="" fill="#000002" transform="translate(0,0)"/>
<path d="" fill="#000002" transform="translate(0,0)"/>
<path d="" fill="#000002" transform="translate(0,0)"/>
<path d="" fill="#000002" transform="translate(0,0)"/>
<path d="" fill="#000002" transform="translate(0,0)"/>
<path d="" fill="#000002" transform="translate(0,0)"/>
<path d="" fill="#000002" transform="translate(0,0)"/>
<path d="M0 0 C2 1 2 1 2 1 Z " fill="#000002" transform="translate(494,651)"/>
<path d="M0 0 C2 1 2 1 2 1 Z " fill="#000002" transform="translate(658,637)"/>
<path d="M0 0 C2 1 2 1 2 1 Z " fill="#000002" transform="translate(620,637)"/>
<path d="M0 0 C2 1 2 1 2 1 Z " fill="#000002" transform="translate(668,632)"/>
<path d="M0 0 C2 1 2 1 2 1 Z " fill="#000002" transform="translate(610,632)"/>
<path d="" fill="#000002" transform="translate(0,0)"/>
<path d="" fill="#000002" transform="translate(0,0)"/>
<path d="" fill="#000002" transform="translate(0,0)"/>
<path d="" fill="#000002" transform="translate(0,0)"/>
<path d="" fill="#000002" transform="translate(0,0)"/>
<path d="M0 0 C2 1 2 1 2 1 Z " fill="#000002" transform="translate(728,537)"/>
<path d="M0 0 C2 1 2 1 2 1 Z " fill="#000002" transform="translate(550,537)"/>
<path d="" fill="#000002" transform="translate(0,0)"/>
<path d="M0 0 C2 1 2 1 2 1 Z " fill="#000002" transform="translate(1034,476)"/>
<path d="" fill="#000002" transform="translate(0,0)"/>
<path d="" fill="#000002" transform="translate(0,0)"/>
<path d="" fill="#000002" transform="translate(0,0)"/>
<path d="M0 0 C2 1 2 1 2 1 Z " fill="#000002" transform="translate(167,404)"/>
<path d="M0 0 C2 1 2 1 2 1 Z " fill="#000002" transform="translate(1141,402)"/>
<path d="M0 0 C2 1 2 1 2 1 Z " fill="#000002" transform="translate(125,402)"/>
<path d="M0 0 C2 1 2 1 2 1 Z " fill="#000002" transform="translate(1145,400)"/>
<path d="M0 0 C2 1 2 1 2 1 Z " fill="#000002" transform="translate(1092,397)"/>
<path d="M0 0 C2 1 2 1 2 1 Z " fill="#000002" transform="translate(115,397)"/>
<path d="M0 0 C2 1 2 1 2 1 Z " fill="#000002" transform="translate(1163,392)"/>
<path d="M0 0 C2 1 2 1 2 1 Z " fill="#000002" transform="translate(105,392)"/>
<path d="M0 0 C2 1 2 1 2 1 Z " fill="#000002" transform="translate(90,385)"/>
<path d="" fill="#000002" transform="translate(0,0)"/>
<path d="M0 0 C2 1 2 1 2 1 Z " fill="#000002" transform="translate(1196,377)"/>
<path d="M0 0 C2 1 2 1 2 1 Z " fill="#000002" transform="translate(1203,374)"/>
<path d="M0 0 C2 1 2 1 2 1 Z " fill="#000002" transform="translate(1218,367)"/>
<path d="M0 0 C2 1 2 1 2 1 Z " fill="#000002" transform="translate(52,367)"/>
<path d="M0 0 C2 1 2 1 2 1 Z " fill="#000002" transform="translate(48,365)"/>
<path d="M0 0 C2 1 2 1 2 1 Z " fill="#000002" transform="translate(42,362)"/>
<path d="M0 0 C2 1 2 1 2 1 Z " fill="#000002" transform="translate(38,360)"/>
<path d="M0 0 C2 1 2 1 2 1 Z " fill="#000002" transform="translate(1241,357)"/>
<path d="M0 0 C2 1 2 1 2 1 Z " fill="#000002" transform="translate(28,355)"/>
<path d="M0 0 C2 1 2 1 2 1 Z " fill="#000002" transform="translate(1251,352)"/>
<path d="" fill="#000002" transform="translate(0,0)"/>
<path d="" fill="#000002" transform="translate(0,0)"/>
<path d="" fill="#000002" transform="translate(0,0)"/>
<path d="" fill="#000002" transform="translate(0,0)"/>
<path d="M0 0 C2 1 2 1 2 1 Z " fill="#000002" transform="translate(920,210)"/>
<path d="M0 0 C2 1 2 1 2 1 Z " fill="#000002" transform="translate(313,210)"/>
<path d="M0 0 C2 1 2 1 2 1 Z " fill="#000002" transform="translate(311,209)"/>
<path d="M0 0 C2 1 2 1 2 1 Z " fill="#000002" transform="translate(363,207)"/>
<path d="" fill="#000002" transform="translate(0,0)"/>
<path d="" fill="#000002" transform="translate(0,0)"/>
<path d="" fill="#000002" transform="translate(0,0)"/>
<path d="" fill="#000002" transform="translate(0,0)"/>
<path d="" fill="#000002" transform="translate(0,0)"/>
<path d="" fill="#000002" transform="translate(0,0)"/>
<path d="" fill="#000002" transform="translate(0,0)"/>
<path d="" fill="#000002" transform="translate(0,0)"/>
<path d="" fill="#000002" transform="translate(0,0)"/>
<path d="" fill="#000002" transform="translate(0,0)"/>
<path d="" fill="#000002" transform="translate(0,0)"/>
<path d="" fill="#000002" transform="translate(0,0)"/>
<path d="M0 0 C2 1 2 1 2 1 Z " fill="#000002" transform="translate(349,81)"/>
<path d="" fill="#000002" transform="translate(0,0)"/>
<path d="" fill="#000002" transform="translate(0,0)"/>
<path d="" fill="#000002" transform="translate(0,0)"/>
<path d="" fill="#000002" transform="translate(0,0)"/>
<path d="" fill="#000002" transform="translate(0,0)"/>
<path d="" fill="#000002" transform="translate(0,0)"/>
<path d="" fill="#000002" transform="translate(0,0)"/>
<path d="" fill="#000002" transform="translate(0,0)"/>
<path d="" fill="#000002" transform="translate(0,0)"/>
<path d="" fill="#000002" transform="translate(0,0)"/>
<path d="" fill="#000002" transform="translate(0,0)"/>
<path d="" fill="#000002" transform="translate(0,0)"/>
<path d="" fill="#000002" transform="translate(0,0)"/>
<path d="" fill="#000002" transform="translate(0,0)"/>
<path d="" fill="#000002" transform="translate(0,0)"/>
<path d="" fill="#3D2C30" transform="translate(0,0)"/>
<path d="" fill="#000002" transform="translate(0,0)"/>
<path d="" fill="#000002" transform="translate(0,0)"/>
<path d="" fill="#000002" transform="translate(0,0)"/>
<path d="" fill="#000002" transform="translate(0,0)"/>
<path d="" fill="#000002" transform="translate(0,0)"/>
<path d="" fill="#000002" transform="translate(0,0)"/>
<path d="" fill="#000002" transform="translate(0,0)"/>
<path d="" fill="#000002" transform="translate(0,0)"/>
<path d="" fill="#000002" transform="translate(0,0)"/>
<path d="" fill="#000002" transform="translate(0,0)"/>
<path d="" fill="#000002" transform="translate(0,0)"/>
<path d="" fill="#000002" transform="translate(0,0)"/>
<path d="" fill="#000002" transform="translate(0,0)"/>
<path d="" fill="#000002" transform="translate(0,0)"/>
<path d="" fill="#000002" transform="translate(0,0)"/>
<path d="" fill="#000002" transform="translate(0,0)"/>
<path d="" fill="#000002" transform="translate(0,0)"/>
<path d="" fill="#000002" transform="translate(0,0)"/>
<path d="" fill="#000002" transform="translate(0,0)"/>
<path d="" fill="#000002" transform="translate(0,0)"/>
<path d="" fill="#000002" transform="translate(0,0)"/>
<path d="" fill="#000002" transform="translate(0,0)"/>
<path d="" fill="#000002" transform="translate(0,0)"/>
<path d="" fill="#000002" transform="translate(0,0)"/>
<path d="" fill="#000002" transform="translate(0,0)"/>
<path d="" fill="#000002" transform="translate(0,0)"/>
<path d="" fill="#000002" transform="translate(0,0)"/>
<path d="" fill="#000002" transform="translate(0,0)"/>
<path d="" fill="#000002" transform="translate(0,0)"/>
<path d="" fill="#000002" transform="translate(0,0)"/>
<path d="" fill="#000002" transform="translate(0,0)"/>
<path d="" fill="#000002" transform="translate(0,0)"/>
<path d="" fill="#000002" transform="translate(0,0)"/>
<path d="" fill="#000002" transform="translate(0,0)"/>
<path d="" fill="#3D2C30" transform="translate(0,0)"/>
<path d="" fill="#3D2C30" transform="translate(0,0)"/>
<path d="" fill="#000002" transform="translate(0,0)"/>
<path d="" fill="#000002" transform="translate(0,0)"/>
<path d="" fill="#000002" transform="translate(0,0)"/>
<path d="" fill="#000002" transform="translate(0,0)"/>
<path d="" fill="#000002" transform="translate(0,0)"/>
<path d="" fill="#000002" transform="translate(0,0)"/>
<path d="" fill="#000002" transform="translate(0,0)"/>
<path d="" fill="#000002" transform="translate(0,0)"/>
<path d="" fill="#000002" transform="translate(0,0)"/>
<path d="" fill="#000002" transform="translate(0,0)"/>
<path d="" fill="#000002" transform="translate(0,0)"/>
<path d="" fill="#000002" transform="translate(0,0)"/>
<path d="" fill="#000002" transform="translate(0,0)"/>
<path d="" fill="#3D2C30" transform="translate(0,0)"/>
<path d="" fill="#000002" transform="translate(0,0)"/>
<path d="" fill="#000002" transform="translate(0,0)"/>
<path d="" fill="#000002" transform="translate(0,0)"/>
<path d="" fill="#000002" transform="translate(0,0)"/>
<path d="" fill="#000002" transform="translate(0,0)"/>
<path d="" fill="#000002" transform="translate(0,0)"/>
<path d="" fill="#000002" transform="translate(0,0)"/>
<path d="" fill="#000002" transform="translate(0,0)"/>
<path d="" fill="#000002" transform="translate(0,0)"/>
<path d="" fill="#000002" transform="translate(0,0)"/>
<path d="" fill="#000002" transform="translate(0,0)"/>
<path d="" fill="#000002" transform="translate(0,0)"/>
<path d="" fill="#000002" transform="translate(0,0)"/>
<path d="" fill="#000002" transform="translate(0,0)"/>
<path d="" fill="#000002" transform="translate(0,0)"/>
<path d="" fill="#000002" transform="translate(0,0)"/>
<path d="" fill="#000002" transform="translate(0,0)"/>
<path d="" fill="#000002" transform="translate(0,0)"/>
<path d="" fill="#000002" transform="translate(0,0)"/>
<path d="" fill="#000002" transform="translate(0,0)"/>
<path d="" fill="#000002" transform="translate(0,0)"/>
<path d="" fill="#000002" transform="translate(0,0)"/>
<path d="" fill="#000002" transform="translate(0,0)"/>
<path d="" fill="#000002" transform="translate(0,0)"/>
<path d="" fill="#000002" transform="translate(0,0)"/>
<path d="" fill="#000002" transform="translate(0,0)"/>
<path d="" fill="#000002" transform="translate(0,0)"/>
<path d="" fill="#000002" transform="translate(0,0)"/>
<path d="" fill="#000002" transform="translate(0,0)"/>
<path d="" fill="#000002" transform="translate(0,0)"/>
<path d="" fill="#000002" transform="translate(0,0)"/>
<path d="" fill="#000002" transform="translate(0,0)"/>
<path d="" fill="#000002" transform="translate(0,0)"/>
<path d="" fill="#000002" transform="translate(0,0)"/>
<path d="" fill="#000002" transform="translate(0,0)"/>
<path d="" fill="#000002" transform="translate(0,0)"/>
<path d="" fill="#000002" transform="translate(0,0)"/>
<path d="" fill="#000002" transform="translate(0,0)"/>
<path d="" fill="#000002" transform="translate(0,0)"/>
<path d="" fill="#000002" transform="translate(0,0)"/>
<path d="" fill="#000002" transform="translate(0,0)"/>
<path d="" fill="#000002" transform="translate(0,0)"/>
<path d="" fill="#000002" transform="translate(0,0)"/>
<path d="" fill="#000002" transform="translate(0,0)"/>
<path d="" fill="#000002" transform="translate(0,0)"/>
<path d="" fill="#000002" transform="translate(0,0)"/>
<path d="" fill="#000002" transform="translate(0,0)"/>
<path d="" fill="#000002" transform="translate(0,0)"/>
<path d="" fill="#000002" transform="translate(0,0)"/>
<path d="" fill="#000002" transform="translate(0,0)"/>
<path d="" fill="#000002" transform="translate(0,0)"/>
<path d="" fill="#000002" transform="translate(0,0)"/>
<path d="" fill="#000002" transform="translate(0,0)"/>
<path d="" fill="#000002" transform="translate(0,0)"/>
<path d="" fill="#000002" transform="translate(0,0)"/>
<path d="" fill="#000002" transform="translate(0,0)"/>
<path d="" fill="#000002" transform="translate(0,0)"/>
<path d="" fill="#000002" transform="translate(0,0)"/>
<path d="" fill="#000002" transform="translate(0,0)"/>
<path d="" fill="#000002" transform="translate(0,0)"/>
<path d="" fill="#000002" transform="translate(0,0)"/>
<path d="" fill="#000002" transform="translate(0,0)"/>
<path d="" fill="#000002" transform="translate(0,0)"/>
<path d="" fill="#000002" transform="translate(0,0)"/>
<path d="" fill="#000002" transform="translate(0,0)"/>
<path d="" fill="#000002" transform="translate(0,0)"/>
<path d="" fill="#000002" transform="translate(0,0)"/>
<path d="" fill="#000002" transform="translate(0,0)"/>
<path d="" fill="#000002" transform="translate(0,0)"/>
<path d="" fill="#000002" transform="translate(0,0)"/>
<path d="" fill="#000002" transform="translate(0,0)"/>
<path d="" fill="#000002" transform="translate(0,0)"/>
<path d="" fill="#000002" transform="translate(0,0)"/>
<path d="" fill="#000002" transform="translate(0,0)"/>
<path d="" fill="#000002" transform="translate(0,0)"/>
<path d="" fill="#000002" transform="translate(0,0)"/>
<path d="" fill="#000002" transform="translate(0,0)"/>
<path d="" fill="#000002" transform="translate(0,0)"/>
<path d="" fill="#3D2C30" transform="translate(0,0)"/>
<path d="" fill="#000002" transform="translate(0,0)"/>
<path d="" fill="#000002" transform="translate(0,0)"/>
<path d="" fill="#000002" transform="translate(0,0)"/>
<path d="" fill="#000002" transform="translate(0,0)"/>
<path d="" fill="#000002" transform="translate(0,0)"/>
<path d="" fill="#000002" transform="translate(0,0)"/>
<path d="" fill="#000002" transform="translate(0,0)"/>
<path d="" fill="#000002" transform="translate(0,0)"/>
<path d="" fill="#000002" transform="translate(0,0)"/>
<path d="" fill="#000002" transform="translate(0,0)"/>
<path d="" fill="#000002" transform="translate(0,0)"/>
<path d="" fill="#000002" transform="translate(0,0)"/>
<path d="" fill="#000002" transform="translate(0,0)"/>
<path d="" fill="#000002" transform="translate(0,0)"/>
<path d="" fill="#000002" transform="translate(0,0)"/>
<path d="" fill="#000002" transform="translate(0,0)"/>
<path d="" fill="#000002" transform="translate(0,0)"/>
<path d="" fill="#000002" transform="translate(0,0)"/>
<path d="" fill="#000002" transform="translate(0,0)"/>
<path d="" fill="#000002" transform="translate(0,0)"/>
<path d="" fill="#000002" transform="translate(0,0)"/>
<path d="" fill="#000002" transform="translate(0,0)"/>
<path d="" fill="#000002" transform="translate(0,0)"/>
<path d="" fill="#000002" transform="translate(0,0)"/>
<path d="" fill="#000002" transform="translate(0,0)"/>
<path d="" fill="#000002" transform="translate(0,0)"/>
<path d="" fill="#000002" transform="translate(0,0)"/>
<path d="" fill="#000002" transform="translate(0,0)"/>
<path d="" fill="#000002" transform="translate(0,0)"/>
<path d="" fill="#000002" transform="translate(0,0)"/>
</svg>
