<?xml version="1.0" encoding="UTF-8"?>
<!-- Generator: visioncortex VTracer 0.6.3 -->
<svg version="1.1" xmlns="http://www.w3.org/2000/svg" width="1280" height="1280">
<path d="M0 0 C0.33 0.66 0.66 1.32 1 2 C2.49 1.01 2.49 1.01 4 0 C7.05 -0.19 10 -0.26 13.05 -0.24 C13.97 -0.24 14.9 -0.25 15.85 -0.25 C18.91 -0.25 21.98 -0.24 25.04 -0.23 C27.16 -0.23 29.29 -0.23 31.41 -0.23 C35.86 -0.23 40.31 -0.22 44.76 -0.21 C50.48 -0.19 56.2 -0.18 61.91 -0.19 C66.3 -0.19 70.68 -0.18 75.06 -0.17 C77.17 -0.17 79.28 -0.17 81.39 -0.17 C84.33 -0.16 87.27 -0.16 90.21 -0.15 C91.09 -0.15 91.97 -0.15 92.88 -0.15 C98.89 -0.11 98.89 -0.11 100 1 C103.64 1.63 107.29 2.19 110.95 2.72 C116.32 3.55 120.96 4.97 126 7 C127.73 7.5 127.73 7.5 129.5 8 C134.85 9.53 140.1 11.34 145 14 C145 14.66 145 15.32 145 16 C146.67 16.46 146.67 16.46 148.38 16.94 C152 18 152 18 154 19 C154 19.66 154 20.32 154 21 C154.99 21 155.98 21 157 21 C157 21.66 157 22.32 157 23 C159.47 23.49 159.47 23.49 162 24 C162 24.66 162 25.32 162 26 C162.58 26.26 163.16 26.51 163.76 26.78 C167.88 29.03 170.95 32.58 174.25 35.88 C175 36.6 175.74 37.32 176.51 38.06 C177.21 38.76 177.92 39.46 178.64 40.18 C179.29 40.82 179.93 41.45 180.59 42.11 C182 44 182 44 182 48 C182.66 48 183.32 48 184 48 C186.62 50.09 187.39 51.75 188 55 C188.33 55.99 188.66 56.98 189 58 C189.99 58.33 190.98 58.66 192 59 C192.19 60.42 192.19 60.42 192.38 61.88 C192.72 65.09 192.72 65.09 195 67 C195 67.99 195 68.98 195 70 C195.66 70 196.32 70 197 70 C197.66 72.64 198.32 75.28 199 78 C199.66 78 200.32 78 201 78 C200.98 78.8 200.96 79.61 200.94 80.44 C200.7 82.93 200.7 82.93 202 84 C202.07 85.52 202.08 87.04 202.06 88.56 C202.05 89.8 202.05 89.8 202.04 91.07 C202.02 91.7 202.01 92.34 202 93 C202.66 93 203.32 93 204 93 C204.04 93.78 204.09 94.55 204.14 95.35 C204.35 98.86 204.58 102.37 204.81 105.88 C204.88 107.1 204.95 108.32 205.03 109.58 C205.11 110.75 205.19 111.92 205.27 113.12 C205.34 114.2 205.41 115.27 205.48 116.39 C205.75 119.34 205.75 119.34 209 121 C209.37 123.74 209.37 123.74 209.36 127.27 C209.36 129.25 209.36 129.25 209.37 131.26 C209.35 132.71 209.34 134.15 209.33 135.6 C209.33 137.07 209.32 138.55 209.32 140.02 C209.32 143.11 209.3 146.2 209.28 149.29 C209.25 153.26 209.24 157.23 209.24 161.21 C209.23 164.25 209.22 167.29 209.21 170.34 C209.21 171.8 209.2 173.27 209.2 174.73 C209.19 176.77 209.18 178.82 209.16 180.86 C209.15 182.02 209.15 183.19 209.14 184.39 C209 187 209 187 208 188 C207.79 190.96 207.62 193.91 207.5 196.88 C207.43 198.52 207.36 200.16 207.28 201.8 C207.24 202.9 207.24 202.9 207.19 204.02 C207 206 207 206 206 209 C205.97 212.04 206.07 215.06 206.16 218.09 C206 221.03 205.5 222.52 204 225 C202.59 227.82 202.62 230.59 202.38 233.71 C201.97 236.15 201.1 237.8 200 240 C199.62 242.19 199.62 242.19 199.5 244.44 C199.25 247.17 198.98 249.06 197.94 251.62 C196.77 254.15 196.77 254.15 197 257.69 C197 258.78 197 259.87 197 261 C196.34 261.66 195.68 262.32 195 263 C193.6 267.23 193 271.36 193 275.81 C193 279.05 192.51 280.26 191 283 C191 284.32 191 285.64 191 287 C190.34 287 189.68 287 189 287 C189 287.66 189 288.32 189 289 C188.34 289 187.68 289 187 289 C186.81 290.67 186.81 290.67 186.62 292.38 C185.67 299.78 184.61 306.38 181.02 312.99 C178.06 318.83 176 325.46 176 332 C175.34 332 174.68 332 174 332 C173.67 332.99 173.34 333.98 173 335 C172.01 335 171.02 335 170 335 C170.23 335.89 170.45 336.77 170.69 337.69 C171.07 341.74 170.11 342.61 168 346 C167.12 348.11 166.29 350.23 165.5 352.38 C160.93 364.5 160.93 364.5 158.38 368.62 C156.92 371.13 156.46 373.16 156 376 C155 378 155 378 153.62 380.25 C151.31 384.18 149.35 388.18 147.56 392.38 C145.85 396.34 143.96 400.15 142 404 C141.34 404 140.68 404 140 404 C139.9 405.28 139.79 406.56 139.69 407.88 C139.51 410.05 139.51 410.05 139 412 C138.01 412.66 137.02 413.32 136 414 C135.86 414.6 135.71 415.2 135.56 415.81 C134.78 418.84 132.97 420.61 131 423 C130.29 424.31 129.61 425.64 129 427 C128.34 427 127.68 427 127 427 C126.71 427.91 126.42 428.81 126.12 429.75 C125.22 432.35 124.28 434.58 123 437 C122.32 438.49 122.32 438.49 121.62 440 C120 443 120 443 118 444.88 C115.97 447.03 115.47 448.2 114.56 450.94 C113.21 454.96 111.13 457.12 108 460 C107.67 460.99 107.34 461.98 107 463 C106.34 462.67 105.68 462.34 105 462 C105.33 463.65 105.66 465.3 106 467 C105.34 467 104.68 467 104 467 C103.67 467.99 103.34 468.98 103 470 C102.34 470 101.68 470 101 470 C99.48 472.98 98.06 475.82 97 479 C96.34 479 95.68 479 95 479 C94.34 480.98 93.68 482.96 93 485 C92.01 484.67 91.02 484.34 90 484 C90.33 484.99 90.66 485.98 91 487 C89.63 489.06 89.63 489.06 88 491 C87.67 491.66 87.34 492.32 87 493 C86.34 492.67 85.68 492.34 85 492 C85.33 492.99 85.66 493.98 86 495 C85.36 495.23 84.72 495.45 84.06 495.69 C81.73 496.83 81.73 496.83 81.44 499.5 C81.29 500.32 81.15 501.15 81 502 C80.01 502.66 79.02 503.32 78 504 C77.51 505.15 77.01 506.31 76.5 507.5 C75 511 75 511 72 513 C71.34 512.67 70.68 512.34 70 512 C70.33 512.99 70.66 513.98 71 515 C69.88 517.12 69.88 517.12 68 519 C65.31 519.75 65.31 519.75 63 520 C62.96 520.99 62.92 521.98 62.88 523 C62.19 527.93 59.31 531.42 56 535 C55.01 535.66 54.02 536.32 53 537 C52.67 537.83 52.34 538.65 52 539.5 C51 542 51 542 48 544 C47.67 544.66 47.34 545.32 47 546 C46.36 546.25 45.72 546.5 45.06 546.75 C42.71 547.86 42.71 547.86 42.15 550.75 C40.85 554.43 39.22 556.37 36.56 559.19 C35.78 560.03 35 560.87 34.19 561.73 C33.47 562.48 32.75 563.23 32 564 C31.45 564.59 30.9 565.19 30.34 565.8 C29 567 29 567 27 567 C27.33 567.99 27.66 568.98 28 570 C27.34 570 26.68 570 26 570 C25.76 570.56 25.53 571.12 25.28 571.7 C23.71 574.52 21.79 576.48 19.5 578.75 C18.71 579.55 17.91 580.35 17.09 581.17 C15 583 15 583 13 583 C12.88 583.8 12.75 584.61 12.62 585.44 C12.42 586.28 12.21 587.13 12 588 C11.34 588.33 10.68 588.66 10 589 C9.7 589.61 9.39 590.22 9.08 590.85 C7.9 593.21 6.59 594.61 4.69 596.44 C3.75 597.35 3.75 597.35 2.79 598.28 C2.2 598.85 1.61 599.41 1 600 C0.2 600.83 -0.61 601.65 -1.44 602.5 C-4.26 605.26 -7.22 607.81 -10.23 610.35 C-12.22 612.07 -12.22 612.07 -14 615 C-14.99 615 -15.98 615 -17 615 C-17.24 616.05 -17.48 617.1 -17.72 618.19 C-18.83 622.01 -20.57 624.19 -23.42 627.02 C-24.33 627.94 -25.25 628.86 -26.19 629.81 C-27.19 630.79 -28.19 631.77 -29.19 632.75 C-30.21 633.77 -31.24 634.79 -32.26 635.81 C-34.4 637.94 -36.54 640.06 -38.69 642.18 C-41.46 644.9 -44.2 647.63 -46.95 650.37 C-49.06 652.47 -51.17 654.57 -53.29 656.67 C-54.3 657.68 -55.32 658.69 -56.33 659.69 C-57.74 661.1 -59.16 662.49 -60.58 663.89 C-61.39 664.68 -62.2 665.48 -63.03 666.3 C-65 668 -65 668 -67 668 C-67.33 668.66 -67.66 669.32 -68 670 C-68.66 669.67 -69.32 669.34 -70 669 C-69.67 669.99 -69.34 670.98 -69 672 C-69.66 672 -70.32 672 -71 672 C-71 672.66 -71 673.32 -71 674 C-71.59 674.26 -72.18 674.52 -72.79 674.79 C-75.12 676.06 -76.56 677.39 -78.38 679.31 C-80.52 681.53 -82.59 683.48 -85 685.44 C-88.1 688.09 -90.62 690.91 -93.27 694 C-99.99 701.77 -99.99 701.77 -105 703 C-105.33 703.66 -105.66 704.32 -106 705 C-106.99 705 -107.98 705 -109 705 C-109.26 705.59 -109.52 706.17 -109.79 706.77 C-111.07 709.13 -112.45 710.71 -114.34 712.6 C-114.99 713.26 -115.64 713.91 -116.31 714.59 C-116.99 715.26 -117.67 715.93 -118.38 716.62 C-119.05 717.31 -119.72 717.99 -120.41 718.69 C-121.4 719.67 -121.4 719.67 -122.4 720.66 C-122.99 721.26 -123.59 721.85 -124.2 722.46 C-126.05 724.04 -127.82 724.96 -130 726 C-131.25 727.17 -132.46 728.38 -133.62 729.62 C-135.41 731.54 -135.41 731.54 -137 733 C-137.66 733 -138.32 733 -139 733 C-139 733.66 -139 734.32 -139 735 C-141.65 736.46 -142.89 737 -146 737 C-146.26 737.58 -146.52 738.17 -146.78 738.77 C-148.1 741.18 -149.55 742.82 -151.5 744.75 C-152.11 745.36 -152.72 745.98 -153.34 746.61 C-155 748 -155 748 -157 748 C-157.33 748.99 -157.66 749.98 -158 751 C-159.66 752.02 -161.32 753.01 -163 754 C-165.36 756.27 -167.58 758.64 -169.82 761.04 C-172.03 763.03 -173.13 763.56 -176 764 C-179.16 765.27 -179.16 765.27 -181 768 C-184.31 772.85 -184.31 772.85 -187.62 773.56 C-188.41 773.71 -189.19 773.85 -190 774 C-190.29 774.58 -190.58 775.15 -190.88 775.75 C-192.63 779.26 -195.78 780.89 -199 783 C-199.99 783.66 -200.98 784.32 -202 785 C-202.66 785 -203.32 785 -204 785 C-204.23 785.56 -204.45 786.11 -204.69 786.69 C-206.4 789.7 -208.37 791.75 -211 794 C-212.32 794 -213.64 794 -215 794 C-215.33 794.99 -215.66 795.98 -216 797 C-217.32 797 -218.64 797 -220 797 C-220.04 797.58 -220.08 798.15 -220.12 798.75 C-221.45 802.17 -223.9 803.23 -227 805 C-227.66 805 -228.32 805 -229 805 C-229.66 806.32 -230.32 807.64 -231 809 C-231.66 809 -232.32 809 -233 809 C-233.33 809.66 -233.66 810.32 -234 811 C-234.33 810.67 -234.66 810.34 -235 810 C-235.74 810.97 -236.49 811.94 -237.25 812.94 C-238.97 815.02 -239.74 815.9 -242.31 816.88 C-243.15 816.94 -243.15 816.94 -244 817 C-244.33 816.34 -244.66 815.68 -245 815 C-245.06 816.14 -245.06 816.14 -245.12 817.31 C-246 820 -246 820 -249 821.62 C-249.99 822.08 -250.98 822.53 -252 823 C-252.33 823.99 -252.66 824.98 -253 826 C-255.44 827.25 -255.44 827.25 -258 828 C-258.66 827.67 -259.32 827.34 -260 827 C-260.06 827.78 -260.12 828.57 -260.19 829.38 C-260.46 830.24 -260.72 831.11 -261 832 C-263.37 833.25 -263.37 833.25 -266 834 C-269.28 834.75 -269.28 834.75 -271 838 C-271.66 837.67 -272.32 837.34 -273 837 C-273 837.66 -273 838.32 -273 839 C-273.66 839 -274.32 839 -275 839 C-275.66 840.32 -276.32 841.64 -277 843 C-277.99 842.67 -278.98 842.34 -280 842 C-279.67 842.99 -279.34 843.98 -279 845 C-279.83 845.26 -279.83 845.26 -280.68 845.52 C-285.17 846.79 -285.17 846.79 -288.12 850.06 C-288.41 850.7 -288.7 851.34 -289 852 C-290.99 852.69 -292.99 853.36 -295 854 C-295.33 854.99 -295.66 855.98 -296 857 C-298.61 858.24 -301.26 859.09 -304 860 C-304.66 860.99 -305.32 861.98 -306 863 C-306.66 862.67 -307.32 862.34 -308 862 C-308 862.66 -308 863.32 -308 864 C-308.66 864 -309.32 864 -310 864 C-310.31 864.96 -310.31 864.96 -310.62 865.94 C-312 868 -312 868 -315.12 868.75 C-316.07 868.83 -317.02 868.91 -318 869 C-318 869.66 -318 870.32 -318 871 C-320.37 872.06 -320.37 872.06 -323 873 C-323.66 872.67 -324.32 872.34 -325 872 C-324.67 872.99 -324.34 873.98 -324 875 C-324.87 875.15 -324.87 875.15 -325.75 875.31 C-328.37 876.11 -329.88 877.28 -332 879 C-335.75 882.03 -339.45 883.48 -344 885 C-344.66 885.99 -345.32 886.98 -346 888 C-348.32 889.03 -350.65 890.03 -353 891 C-356.07 893.01 -356.07 893.01 -358 896 C-359.65 896.71 -361.32 897.37 -363 898 C-363.72 898.37 -364.44 898.74 -365.19 899.12 C-367 900 -367 900 -369 900 C-369.66 900.99 -370.32 901.98 -371 903 C-373.31 904.05 -375.65 905.04 -378 906 C-378.93 906.56 -379.86 907.11 -380.81 907.69 C-383 909 -383 909 -385 909 C-385 909.66 -385 910.32 -385 911 C-391 914 -391 914 -393.31 915.06 C-395.18 915.89 -395.18 915.89 -396 918 C-397.66 918.35 -399.33 918.68 -401 919 C-403.97 920.84 -403.97 920.84 -406 923 C-407.73 923.75 -409.46 924.5 -411.2 925.21 C-413.6 926.26 -415.76 927.65 -418 929 C-419.66 929.67 -421.33 930.34 -423 931 C-423.99 931.66 -424.98 932.32 -426 933 C-426.66 932.67 -427.32 932.34 -428 932 C-428 932.66 -428 933.32 -428 934 C-428.66 934 -429.32 934 -430 934 C-430.37 934.96 -430.37 934.96 -430.75 935.94 C-432 938 -432 938 -433.88 938.62 C-434.58 938.75 -435.28 938.87 -436 939 C-439.16 940.27 -439.16 940.27 -441 943 C-442.98 943.73 -444.98 944.39 -447 945 C-450.12 945.65 -450.12 945.65 -451 948 C-452.99 948.7 -454.99 949.35 -457 950 C-463.05 952.12 -463.05 952.12 -467.69 956.25 C-468.12 956.83 -468.55 957.4 -469 958 C-471 958.04 -473 958.04 -475 958 C-476.01 958.99 -477.01 959.99 -478 961 C-479.94 961.81 -479.94 961.81 -482 962.44 C-485.32 963.56 -485.32 963.56 -487.62 966.19 C-488.31 967.08 -488.31 967.08 -489 968 C-491 968.04 -493 968.04 -495 968 C-496.75 969.42 -496.75 969.42 -498 971 C-498.66 971 -499.32 971 -500 971 C-500.33 971.66 -500.66 972.32 -501 973 C-502.98 973.73 -504.98 974.39 -507 975 C-510.12 975.65 -510.12 975.65 -511 978 C-513.33 978.67 -515.67 979.34 -518 980 C-519.67 980.99 -521.34 981.99 -523 983 C-525.81 983.69 -525.81 983.69 -528 984 C-528.33 983.34 -528.66 982.68 -529 982 C-529 982.99 -529 983.98 -529 985 C-529.84 985.15 -529.84 985.15 -530.69 985.31 C-533.45 986.13 -535.54 987.5 -538 989 C-539.66 989.67 -541.33 990.34 -543 991 C-544.23 991.62 -545.46 992.24 -546.69 992.88 C-549.78 994.45 -552.89 995.76 -556.12 997 C-559.12 998.16 -561.37 999.25 -564.06 1001.06 C-567.83 1003.55 -571.7 1004.74 -576 1006 C-576 1006.66 -576 1007.32 -576 1008 C-579.96 1008.33 -583.92 1008.66 -588 1009 C-588.02 1007.59 -588.04 1006.19 -588.06 1004.74 C-588.14 999.46 -588.23 994.17 -588.32 988.89 C-588.36 986.61 -588.39 984.34 -588.42 982.07 C-588.4 960.21 -588.4 960.21 -593 939 C-593.44 937.07 -593.85 935.13 -594.25 933.19 C-595.66 926.87 -597.68 920.89 -599.93 914.82 C-601.01 911.91 -601.98 909.12 -602.55 906.06 C-602.7 905.38 -602.85 904.7 -603 904 C-603.66 903.67 -604.32 903.34 -605 903 C-606.38 900.41 -607.68 897.83 -608.94 895.19 C-611.03 890.82 -613.03 886.84 -616 883 C-616 882.34 -616 881.68 -616 881 C-616.62 880.38 -617.24 879.76 -617.88 879.12 C-619.96 877.04 -620.71 875.59 -622 873 C-627.35 864.76 -633.73 857.89 -640.75 851.06 C-641.68 850.14 -642.61 849.23 -643.57 848.28 C-645.29 846.59 -647.02 844.89 -648.75 843.21 C-649.49 842.48 -650.23 841.75 -651 841 C-652.14 839.93 -652.14 839.93 -653.29 838.84 C-655 837 -655 837 -655 835 C-655.76 834.88 -656.53 834.75 -657.31 834.62 C-660 834 -660 834 -663 832 C-663 831.34 -663 830.68 -663 830 C-665.22 828.85 -667.3 827.9 -669.69 827.12 C-670.45 826.75 -671.21 826.38 -672 826 C-672.14 825.34 -672.29 824.68 -672.44 824 C-672.72 823.01 -672.72 823.01 -673 822 C-675.76 820.86 -675.76 820.86 -679 820 C-681.02 819.03 -683.02 818.03 -685 817 C-685.6 816.7 -686.2 816.4 -686.82 816.09 C-688.46 815.27 -690.08 814.44 -691.7 813.6 C-696.98 810.88 -702.11 808.45 -707.79 806.71 C-710.24 805.92 -712.57 804.94 -714.94 803.94 C-719.88 801.92 -724.76 800.92 -730 800 C-731.67 799.66 -733.34 799.3 -735 798.94 C-735.72 798.78 -736.44 798.63 -737.19 798.46 C-739 798 -739 798 -741 797 C-742.52 796.98 -744.04 797.01 -745.56 797.06 C-749.81 797.11 -753.51 796.63 -757.6 795.54 C-763.64 794.19 -769.54 793.89 -775.71 793.97 C-777.13 793.99 -778.56 794 -779.98 794.01 C-782.19 794.03 -784.4 794.06 -786.62 794.1 C-788.77 794.13 -790.93 794.14 -793.09 794.16 C-794.37 794.18 -795.64 794.19 -796.96 794.21 C-800 794 -800 794 -802 792 C-802 790.68 -802 789.36 -802 788 C-801.34 788 -800.68 788 -800 788 C-799.88 787.28 -799.75 786.56 -799.62 785.81 C-799.01 783.04 -798.12 780.6 -797 778 C-796.34 778 -795.68 778 -795 778 C-795.06 776.58 -795.06 776.58 -795.12 775.12 C-795 772 -795 772 -793 770 C-792.27 768.33 -791.54 766.66 -790.85 764.97 C-790.01 763.02 -789.06 761.18 -788.06 759.31 C-785.4 754.11 -783.74 748.56 -782 743 C-781.34 743 -780.68 743 -780 743 C-779.01 739.7 -778.02 736.4 -777 733 C-776.34 733 -775.68 733 -775 733 C-774.9 732.31 -774.79 731.62 -774.69 730.91 C-773.61 726.35 -771.42 722.36 -769.38 718.16 C-767.92 715.12 -767.92 715.12 -767.44 712.16 C-767.29 711.44 -767.15 710.73 -767 710 C-766.34 709.67 -765.68 709.34 -765 709 C-764.1 707.05 -763.28 705.06 -762.5 703.06 C-760.21 697.21 -760.21 697.21 -758 695 C-757.37 693.52 -756.8 692.01 -756.25 690.5 C-754.42 685.76 -752.1 681.6 -749.37 677.32 C-747.97 674.94 -746.98 672.58 -746 670 C-744.43 666.65 -742.71 663.53 -740.69 660.44 C-737.17 654.94 -734.64 648.95 -732 643 C-731.34 643 -730.68 643 -730 643 C-729.88 642.28 -729.75 641.56 -729.62 640.81 C-729.01 638.04 -728.12 635.6 -727 633 C-726.34 633 -725.68 633 -725 633 C-724.75 632.13 -724.5 631.27 -724.25 630.38 C-723 627 -723 627 -721.18 624.3 C-718.75 620.62 -716.85 616.84 -714.94 612.88 C-712.89 608.62 -710.91 604.75 -708 601 C-707.67 600.01 -707.34 599.02 -707 598 C-706.34 598 -705.68 598 -705 598 C-704.88 597.28 -704.75 596.56 -704.62 595.81 C-704.01 593.04 -703.12 590.6 -702 588 C-701.34 588 -700.68 588 -700 588 C-699.74 587.3 -699.47 586.61 -699.2 585.89 C-695.63 577.29 -690.83 569.37 -685.29 561.93 C-683.81 560.11 -683.81 560.11 -684 558 C-683.34 558 -682.68 558 -682 558 C-682 557.01 -682 556.02 -682 555 C-681.34 555 -680.68 555 -680 555 C-679.77 554.17 -679.55 553.35 -679.31 552.5 C-677.96 548.89 -676.24 546.02 -674.12 542.83 C-672.84 540.89 -672.84 540.89 -672 538 C-670.67 536.67 -669.33 535.33 -668 534 C-665.69 530.49 -663.84 526.78 -662 523 C-661.34 523 -660.68 523 -660 523 C-659.73 522.09 -659.46 521.18 -659.19 520.25 C-658.08 517.21 -657 515.48 -655 513 C-654.56 512.25 -654.11 511.5 -653.66 510.73 C-651.3 506.84 -648.55 503.27 -645.84 499.62 C-644.32 497.45 -643.09 495.41 -642 493 C-641.34 493 -640.68 493 -640 493 C-639.6 492.16 -639.6 492.16 -639.19 491.31 C-637.14 487.32 -634.92 483.42 -632 480 C-631.34 480 -630.68 480 -630 480 C-629.77 479.11 -629.55 478.23 -629.31 477.31 C-627.81 473.52 -625.93 471.79 -623 469 C-621.98 467.34 -620.98 465.68 -620 464 C-618.33 462 -616.67 460 -615 458 C-613.99 456.34 -612.99 454.67 -612 453 C-610.67 451.33 -609.34 449.66 -608 448 C-607.3 446.91 -606.6 445.81 -605.88 444.69 C-605.26 443.8 -604.64 442.91 -604 442 C-603.34 442 -602.68 442 -602 442 C-602 441.34 -602 440.68 -602 440 C-601.34 440 -600.68 440 -600 440 C-599.96 439.3 -599.92 438.6 -599.88 437.88 C-598.8 434.35 -597.19 433.05 -594.54 430.6 C-592.98 428.98 -592.04 427.49 -591 425.5 C-589.26 422.19 -587.07 419.95 -584.37 417.39 C-582.84 415.94 -582.84 415.94 -581.56 413.56 C-580.07 411.11 -578.63 409.59 -576.56 407.62 C-574.21 405.36 -572.46 403.33 -570.94 400.44 C-569.03 397.06 -567.14 395.01 -564.37 392.39 C-562.84 390.94 -562.84 390.94 -561.56 388.56 C-560.07 386.11 -558.63 384.59 -556.56 382.62 C-553.76 379.92 -552.03 377.37 -550.23 373.89 C-548.04 370.53 -545.04 367.94 -542.12 365.21 C-539.93 363.09 -539.93 363.09 -538.51 360.52 C-536.79 357.65 -534.79 355.63 -532.38 353.31 C-529.28 350.46 -529.28 350.46 -527 347 C-526.34 347 -525.68 347 -525 347 C-524.81 346.34 -524.63 345.68 -524.44 345 C-521.75 339.4 -517.17 335.1 -512.75 330.81 C-510.02 328.28 -510.02 328.28 -508.83 325.83 C-506.11 321.63 -502.57 318.36 -499 314.88 C-498.28 314.16 -497.55 313.44 -496.8 312.71 C-495.46 311.38 -494.11 310.05 -492.76 308.73 C-492.18 308.16 -491.6 307.59 -491 307 C-490.49 306.53 -489.98 306.07 -489.46 305.59 C-487.88 303.98 -487.88 303.98 -486.66 301.69 C-481.29 292.99 -472.98 285.86 -465.75 278.72 C-464.8 277.78 -463.85 276.84 -462.9 275.89 C-458.93 271.94 -454.94 267.99 -450.95 264.05 C-448.97 262.09 -446.99 260.12 -445.01 258.16 C-443.16 256.31 -441.3 254.47 -439.44 252.64 C-438.61 251.81 -437.77 250.98 -436.92 250.13 C-436.18 249.4 -435.45 248.68 -434.69 247.93 C-432.79 246.01 -432.79 246.01 -432 243 C-430.43 241.11 -429.04 240.02 -426.86 238.87 C-422.88 236.27 -419.76 233.01 -416.43 229.63 C-415.72 228.91 -415 228.19 -414.26 227.45 C-411.98 225.16 -409.71 222.86 -407.44 220.56 C-405.9 219.02 -404.37 217.48 -402.84 215.94 C-400.02 213.11 -397.21 210.27 -394.4 207.44 C-393.81 206.83 -393.21 206.23 -392.6 205.61 C-391.28 204.28 -389.98 202.93 -388.68 201.58 C-387 200 -387 200 -384.72 199.21 C-380.45 197.31 -377.69 193.92 -374.5 190.56 C-370.54 186.41 -367.03 182.84 -362 180 C-360.13 178.37 -358.3 176.7 -356.5 175 C-353.89 172.54 -351.52 170.31 -348.43 168.47 C-345.66 166.79 -343.77 164.86 -341.56 162.5 C-338.22 159.06 -335.36 157.03 -331 155 C-330.38 154.22 -329.76 153.43 -329.12 152.62 C-326.69 149.62 -324.24 148.19 -320.95 146.26 C-318.75 144.94 -318.75 144.94 -316.38 142.38 C-313.77 139.77 -311.29 138.61 -308 137 C-307.36 136.36 -306.72 135.72 -306.06 135.06 C-303.91 132.91 -301.71 131.7 -299.05 130.27 C-295.6 128.14 -292.57 125.47 -289.44 122.9 C-287.33 121.25 -285.28 119.91 -282.94 118.62 C-279.92 117.32 -279.92 117.32 -279 115 C-277 114 -275 113 -273 112 C-271.74 111.12 -270.49 110.23 -269.25 109.31 C-266 107 -266 107 -264 107 C-264 106.34 -264 105.68 -264 105 C-263.17 104.61 -262.35 104.22 -261.5 103.81 C-254.25 100.51 -254.25 100.51 -249 95 C-247.34 94.31 -245.67 93.65 -244 93 C-241.36 91.47 -238.79 89.86 -236.21 88.24 C-234 87 -234 87 -232 87 C-232 86.34 -232 85.68 -232 85 C-226.25 82 -226.25 82 -224 82 C-224 81.34 -224 80.68 -224 80 C-223.24 79.62 -222.48 79.25 -221.69 78.86 C-214.69 75.4 -214.69 75.4 -207.81 71.69 C-196.65 65.41 -185.3 59.59 -173.69 54.18 C-169.31 52.13 -165.03 49.99 -160.81 47.62 C-155.34 44.57 -150.39 42 -144 42 C-144 41.34 -144 40.68 -144 40 C-142.76 39.61 -141.52 39.22 -140.25 38.81 C-135.26 37.17 -130.5 35.11 -125.7 32.99 C-123 32 -123 32 -119 32 C-119 31.34 -119 30.68 -119 30 C-113.9 28.09 -109.54 26.57 -104 27 C-104 26.34 -104 25.68 -104 25 C-98.9 23.09 -94.54 21.57 -89 22 C-89 21.34 -89 20.68 -89 20 C-87.26 19.6 -87.26 19.6 -85.49 19.2 C-83.95 18.84 -82.41 18.48 -80.88 18.12 C-80.11 17.95 -79.35 17.78 -78.57 17.6 C-73.44 16.4 -68.45 15.1 -63.62 12.94 C-60.77 11.92 -58.04 11.6 -55.04 11.28 C-51.93 10.85 -49 9.91 -46 9 C-40.94 7.56 -36.04 6.69 -30.79 6.25 C-28.98 6.18 -28.98 6.18 -28 5 C-24.79 4.52 -21.59 4.13 -18.37 3.75 C-14.89 3.6 -14.89 3.6 -12 2 C-9.98 1.93 -7.96 1.92 -5.94 1.94 C-4.83 1.95 -3.73 1.96 -2.59 1.96 C-1.74 1.98 -0.88 1.99 0 2 C0 1.34 0 0.68 0 0 Z M199 79 C200 82 200 82 200 82 Z M200 84 C200 85.65 200 87.3 200 89 C200.33 89 200.66 89 201 89 C201 87.35 201 85.7 201 84 C200.67 84 200.34 84 200 84 Z M195 254 C196 257 196 257 196 257 Z M190 273 C191 276 191 276 191 276 Z M189 283 C190 286 190 286 190 286 Z M-254 316 C-255.56 316.16 -257.12 316.28 -258.69 316.38 C-261.96 316.67 -263.9 316.95 -266.88 318.44 C-270.9 320.45 -274.76 320.88 -279.2 321.47 C-282.86 322.16 -285.32 323.57 -288.44 325.56 C-291.06 327.04 -293.06 327.49 -296 328 C-299.02 329.05 -300.72 329.72 -303 332 C-304.65 332.71 -306.32 333.38 -308 334 C-308 334.66 -308 335.32 -308 336 C-309.49 335.5 -309.49 335.5 -311 335 C-311.66 335.66 -312.32 336.32 -313 337 C-313.66 337 -314.32 337 -315 337 C-315.5 338.49 -315.5 338.49 -316 340 C-316.72 340.25 -317.44 340.5 -318.19 340.75 C-321.18 342.08 -322.02 343.05 -324 345.56 C-326.04 348.11 -326.68 348.9 -329.88 349.94 C-330.58 349.96 -331.28 349.98 -332 350 C-332.33 351.32 -332.66 352.64 -333 354 C-333.66 354 -334.32 354 -335 354 C-336.98 355.58 -337.9 356.47 -338.38 359 C-339.3 361.97 -341.36 362.52 -344 364 C-344.66 364.99 -345.32 365.98 -346 367 C-346.66 367.66 -347.32 368.32 -348 369 C-348.31 369.85 -348.62 370.69 -348.94 371.56 C-349.46 372.77 -349.46 372.77 -350 374 C-351.49 374.5 -351.49 374.5 -353 375 C-353.33 376.15 -353.66 377.31 -354 378.5 C-354.33 379.65 -354.66 380.81 -355 382 C-356.49 382.5 -356.49 382.5 -358 383 C-359.6 385.35 -360.01 386.7 -359.94 389.56 C-360.02 392.67 -360.87 392.87 -363 395 C-364.17 397.12 -364.17 397.12 -365.12 399.44 C-365.46 400.2 -365.79 400.96 -366.13 401.75 C-366.94 403.83 -367.51 405.82 -368 408 C-368.26 409.17 -368.26 409.17 -368.54 410.36 C-368.8 411.54 -368.8 411.54 -369.06 412.75 C-369.24 413.55 -369.42 414.35 -369.6 415.17 C-369.73 415.78 -369.86 416.38 -370 417 C-370.33 417 -370.66 417 -371 417 C-371.06 417.71 -371.12 418.42 -371.18 419.15 C-371.27 420.07 -371.35 420.99 -371.44 421.94 C-371.52 422.85 -371.6 423.77 -371.68 424.71 C-372 427 -372 427 -373 428 C-373.21 429.33 -373.37 430.66 -373.5 432 C-373.89 435.89 -373.89 435.89 -375 437 C-375.28 441.35 -375.23 445.71 -375.25 450.06 C-375.27 451.28 -375.29 452.49 -375.31 453.75 C-375.34 460.67 -374.77 465.68 -372 472 C-371.55 474.24 -371.17 476.49 -370.88 478.75 C-370.12 485.07 -370.12 485.07 -368 491 C-367.34 491 -366.68 491 -366 491 C-366.04 491.91 -366.08 492.81 -366.12 493.75 C-366 497 -365.59 498.27 -364 501 C-363.57 502.11 -363.57 502.11 -363.12 503.25 C-360.66 509.26 -357.63 514.61 -354 520 C-353.67 520.99 -353.34 521.98 -353 523 C-351.76 523.96 -351.76 523.96 -350.5 524.94 C-347.81 527.16 -347.67 527.79 -347 531 C-346.01 531.33 -345.02 531.66 -344 532 C-343.3 533.31 -342.63 534.65 -342 536 C-339.68 538.76 -337.11 541.27 -334.56 543.81 C-333.49 544.89 -333.49 544.89 -332.39 545.98 C-323.89 554.84 -323.89 554.84 -313 559 C-313 559.66 -313 560.32 -313 561 C-310.89 562.6 -310.89 562.6 -308.25 564.12 C-307.37 564.66 -306.49 565.2 -305.58 565.76 C-302.88 567.29 -302.88 567.29 -299 567 C-298.67 567.66 -298.34 568.32 -298 569 C-296.3 569.88 -296.3 569.88 -294.2 570.62 C-293.42 570.92 -292.63 571.21 -291.82 571.51 C-290.97 571.82 -290.12 572.12 -289.25 572.44 C-288.38 572.75 -287.52 573.06 -286.63 573.39 C-279.83 575.8 -273.11 577.75 -266 579 C-264.32 579.32 -264.32 579.32 -262.6 579.65 C-247.61 582.06 -230.93 581.82 -216 579 C-215.67 578.67 -215.34 578.34 -215 578 C-213.85 577.88 -212.69 577.75 -211.5 577.62 C-206.72 577.07 -202.49 575.7 -198 574 C-197.11 573.66 -196.21 573.32 -195.29 572.97 C-189.33 570.6 -183.61 567.87 -177.94 564.88 C-177.29 564.54 -176.65 564.2 -175.99 563.85 C-172.9 562.19 -170.35 560.61 -168 558 C-166.34 556.98 -164.68 555.98 -163 555 C-160.74 553.53 -160.74 553.53 -159 552 C-159 551.34 -159 550.68 -159 550 C-158.41 549.9 -157.83 549.8 -157.22 549.7 C-154.58 548.87 -153.41 547.79 -151.47 545.83 C-150.82 545.19 -150.18 544.54 -149.51 543.87 C-148.85 543.19 -148.18 542.51 -147.5 541.81 C-146.84 541.15 -146.17 540.49 -145.49 539.81 C-141.81 536.09 -138.76 532.44 -136 528 C-135.36 527.24 -134.72 526.47 -134.06 525.69 C-131.77 522.7 -130.06 519.62 -128.29 516.31 C-127.11 514.21 -125.84 512.24 -124.5 510.25 C-121.09 504.9 -119.16 498.93 -117 493 C-116.65 492.16 -116.31 491.33 -115.95 490.47 C-113.17 483.26 -111.83 475.65 -111 468 C-110.67 467.01 -110.34 466.02 -110 465 C-109.9 462.61 -109.87 460.21 -109.87 457.81 C-109.87 457.11 -109.87 456.41 -109.86 455.69 C-109.86 454.22 -109.87 452.74 -109.87 451.27 C-109.87 449.01 -109.87 446.75 -109.86 444.49 C-109.86 443.06 -109.87 441.62 -109.87 440.19 C-109.87 438.88 -109.87 437.58 -109.87 436.23 C-109.85 432.98 -109.85 432.98 -111 430 C-111.31 428.17 -111.6 426.34 -111.88 424.5 C-112.85 418.52 -114.26 412.8 -116 407 C-116.3 405.91 -116.3 405.91 -116.61 404.8 C-119.49 395.23 -124.4 386.23 -130 378 C-130.33 377.32 -130.66 376.64 -131 375.94 C-132.35 373.32 -134.04 371.2 -136 369 C-136.66 369 -137.32 369 -138 369 C-138.25 368.26 -138.49 367.53 -138.74 366.77 C-140.14 363.69 -141.68 361.99 -144.1 359.64 C-144.9 358.86 -145.7 358.07 -146.53 357.26 C-147.36 356.45 -148.2 355.64 -149.06 354.81 C-150.72 353.2 -152.38 351.58 -154.04 349.96 C-154.77 349.25 -155.51 348.53 -156.27 347.8 C-158 346 -158 346 -159 344 C-159.66 344 -160.32 344 -161 344 C-161.33 343.34 -161.66 342.68 -162 342 C-163.1 340.82 -163.1 340.82 -165.19 339.69 C-167.16 338.5 -169.1 337.24 -171 335.94 C-173.66 334.22 -176.08 333.15 -179 332 C-179.62 331.53 -180.24 331.05 -180.88 330.56 C-185.88 326.88 -190.97 325.83 -197 325 C-197.99 324.01 -197.99 324.01 -199 323 C-200.92 322.41 -202.86 321.9 -204.81 321.44 C-205.85 321.19 -206.89 320.94 -207.96 320.68 C-210.63 320.08 -213.31 319.52 -216 319 C-216 318.34 -216 317.68 -216 317 C-216.78 316.94 -217.56 316.88 -218.37 316.82 C-219.38 316.73 -220.39 316.65 -221.44 316.56 C-222.95 316.44 -222.95 316.44 -224.5 316.32 C-227 316 -227 316 -228 315 C-229.84 314.9 -231.69 314.87 -233.53 314.87 C-235.21 314.87 -235.21 314.87 -236.93 314.86 C-238.7 314.87 -238.7 314.87 -240.5 314.88 C-241.68 314.87 -242.86 314.87 -244.07 314.86 C-245.19 314.86 -246.31 314.87 -247.47 314.87 C-249.02 314.87 -249.02 314.87 -250.61 314.87 C-252.95 314.73 -252.95 314.73 -254 316 Z M174 328 C175 331 175 331 175 331 Z M-340 359 C-339 361 -339 361 -339 361 Z M-774 792 C-770 793 -770 793 -770 793 Z M-750 795 C-750 795.33 -750 795.66 -750 796 C-747.03 796 -744.06 796 -741 796 C-741 795.67 -741 795.34 -741 795 C-743.97 795 -746.94 795 -750 795 Z M-232 806 C-232.33 806.66 -232.66 807.32 -233 808 C-232.34 808 -231.68 808 -231 808 C-231.33 807.34 -231.66 806.68 -232 806 Z " fill="#3C2C30" transform="translate(1067,0)"/>
<path d="M0 0 C0.49 0.16 0.98 0.31 1.49 0.48 C4.29 1.06 7.03 1.19 9.89 1.29 C29.81 2.03 48.44 6.83 67 14 C67 14.66 67 15.32 67 16 C69.31 16.33 71.62 16.66 74 17 C74 17.66 74 18.32 74 19 C75.98 19.33 77.96 19.66 80 20 C80 20.66 80 21.32 80 22 C80.62 22.14 81.24 22.29 81.88 22.44 C84 23 84 23 86 24 C86 24.66 86 25.32 86 26 C86.89 26.23 87.77 26.45 88.69 26.69 C92.49 28.2 94.2 30.06 97 33 C98.99 34.34 100.99 35.68 103 37 C103.33 37.66 103.66 38.32 104 39 C104.7 39.21 105.4 39.41 106.12 39.62 C109.78 41.37 111.59 43.74 114.15 46.83 C116.51 49.59 119.08 52.07 121.71 54.55 C123 56 123 56 123 58 C123.99 58.33 124.98 58.66 126 59 C126 60.32 126 61.64 126 63 C126.99 63.33 127.98 63.66 129 64 C129 64.66 129 65.32 129 66 C129.99 66.33 130.98 66.66 132 67 C133.03 68.98 134.03 70.98 135 73 C135.52 73.52 136.03 74.03 136.56 74.56 C138.47 76.47 139.01 78.5 140 81 C141.3 83.02 142.64 85.02 144 87 C144.95 88.41 145.89 89.83 146.81 91.25 C147.47 92.25 147.47 92.25 148.14 93.27 C148.43 93.84 148.71 94.41 149 95 C148.67 95.66 148.34 96.32 148 97 C148.4 99.1 148.4 99.1 149 101 C149.66 101 150.32 101 151 101 C151 102.65 151 104.3 151 106 C151.66 106.33 152.32 106.66 153 107 C153.7 109.32 154.37 111.66 155 114 C155.33 114.33 155.66 114.66 156 115 C155.96 116.09 155.92 117.19 155.88 118.31 C156.01 122.26 156.47 123.16 159 126 C160.28 129.85 160.07 132.95 160 137 C160.33 137 160.66 137 161 137 C161.05 143.94 161.09 150.88 161.11 157.83 C161.12 160.19 161.13 162.55 161.15 164.91 C161.18 168.3 161.19 171.7 161.2 175.09 C161.21 176.15 161.22 177.21 161.23 178.3 C161.23 179.28 161.23 180.26 161.23 181.27 C161.23 182.14 161.24 183.01 161.24 183.9 C161 186 161 186 159 188 C158.8 190.14 158.8 190.14 158.94 192.5 C159.1 196.8 159.1 196.8 158 199 C157.34 199 156.68 199 156 199 C156.23 200.07 156.45 201.14 156.69 202.25 C157.05 206.58 156.58 206.83 154 210 C153.61 212.32 153.28 214.66 153 217 C152.37 219.01 151.71 221.01 151 223 C150.65 224.33 150.31 225.66 150 227 C149.34 227 148.68 227 148 227 C146.58 229.8 145.26 232.62 144 235.5 C142.23 239.54 140.45 243.32 138 247 C137.34 247 136.68 247 136 247 C135.9 247.78 135.79 248.57 135.69 249.38 C135 252 135 252 132 254 C131.73 254.72 131.46 255.44 131.19 256.19 C127.7 264.44 119.01 271.69 112 277 C110 276 110 276 109 275 C108.96 275.76 108.92 276.53 108.88 277.31 C108 280 108 280 105 281.62 C104.01 282.08 103.02 282.53 102 283 C101.67 283.99 101.34 284.98 101 286 C98.56 287.25 98.56 287.25 96 288 C95.34 287.67 94.68 287.34 94 287 C94.33 287.99 94.66 288.98 95 290 C94.4 290.1 93.8 290.21 93.19 290.31 C90.92 290.83 90.92 290.83 89.5 292.56 C88 294 88 294 84 294 C83.67 294.99 83.34 295.98 83 297 C80.62 298.06 80.62 298.06 78 299 C75.03 300.84 75.03 300.84 73 303 C66.95 307.34 66.95 307.34 63 308 C62.26 308.19 61.51 308.37 60.75 308.56 C60.17 308.71 59.6 308.85 59 309 C59 309.66 59 310.32 59 311 C58.48 311.24 57.96 311.48 57.43 311.73 C54.2 313.28 51.37 314.69 48.62 317 C45.45 319.42 42.27 320.59 38.56 321.99 C35.52 323.19 32.65 324.63 29.74 326.13 C28 327 28 327 25.31 328.06 C22.93 328.96 22.93 328.96 20.62 330.44 C17.47 332.31 14.43 333.7 11 335 C10.34 334.67 9.68 334.34 9 334 C9 334.66 9 335.32 9 336 C7.78 336.45 6.57 336.91 5.31 337.38 C2.99 338.25 0.68 339.13 -1.62 340.06 C-9.49 343.17 -9.49 343.17 -13 342 C-12.67 342.99 -12.34 343.98 -12 345 C-16.64 347.08 -21.27 349.14 -26 351 C-26.66 351.33 -27.32 351.66 -28 352 C-29.26 352.12 -30.52 352.25 -31.81 352.38 C-35.57 352.8 -37.8 353.95 -41 356 C-43.31 356.73 -45.65 357.4 -48 358 C-48.8 358.21 -49.61 358.41 -50.44 358.62 C-50.95 358.75 -51.47 358.87 -52 359 C-52 359.66 -52 360.32 -52 361 C-55.96 361.33 -59.92 361.66 -64 362 C-64 362.66 -64 363.32 -64 364 C-64.91 364.14 -65.81 364.29 -66.75 364.44 C-69.22 364.87 -71.57 365.38 -74 366 C-78 367 -82 368 -86 369 C-86 369.66 -86 370.32 -86 371 C-86.9 371.05 -87.81 371.1 -88.74 371.15 C-89.92 371.22 -91.1 371.3 -92.31 371.38 C-93.48 371.44 -94.66 371.51 -95.86 371.59 C-99.16 371.79 -99.16 371.79 -102 374 C-105.19 374.23 -105.19 374.23 -109.07 374.2 C-109.76 374.19 -110.44 374.19 -111.15 374.19 C-113.33 374.18 -115.51 374.15 -117.69 374.12 C-119.17 374.11 -120.65 374.11 -122.13 374.1 C-125.75 374.08 -129.38 374.04 -133 374 C-133 373.34 -133 372.68 -133 372 C-133.59 371.95 -134.18 371.9 -134.79 371.85 C-139.24 371.43 -142.89 370.83 -147 369 C-147.76 368.9 -148.53 368.79 -149.31 368.69 C-152.03 367.99 -153.51 367.1 -155.81 365.56 C-159.81 362.93 -163.36 362.04 -168 361 C-168.66 360.34 -169.32 359.68 -170 359 C-172.77 357.06 -172.77 357.06 -175 356 C-175 355.34 -175 354.68 -175 354 C-175.55 353.77 -176.11 353.54 -176.68 353.3 C-179.65 351.63 -181.77 349.53 -184.19 347.12 C-185.07 346.26 -185.95 345.4 -186.86 344.51 C-188.92 342.09 -189.44 341 -190 338 C-191.98 336.72 -191.98 336.72 -194 336 C-194 334.68 -194 333.36 -194 332 C-194.99 331.67 -195.98 331.34 -197 331 C-200.93 325.11 -203.38 318.55 -206 312 C-206.3 311.31 -206.6 310.62 -206.91 309.91 C-213.6 293.97 -213.48 271.23 -208 255 C-207.5 254.01 -207.5 254.01 -207 253 C-206.35 250.32 -205.73 247.63 -205.12 244.94 C-203.72 238.83 -202.14 232.9 -200 227 C-197.3 219.08 -195 211.12 -193 203 C-192.34 203 -191.68 203 -191 203 C-191.08 202.15 -191.16 201.31 -191.25 200.44 C-190.99 196.83 -189.98 194.95 -188.08 191.92 C-185.67 187.64 -184.52 182.75 -183.12 178.06 C-182.12 175.34 -180.96 172.94 -179.62 170.38 C-176.75 164.79 -174.84 158.99 -173 153 C-172.34 153 -171.68 153 -171 153 C-170.88 152.28 -170.75 151.56 -170.62 150.81 C-170.01 148.04 -169.12 145.6 -168 143 C-167.34 143 -166.68 143 -166 143 C-165.91 142.33 -165.83 141.67 -165.74 140.98 C-164.77 137.08 -163.04 133.8 -161.19 130.25 C-160.46 128.83 -159.74 127.41 -159.01 125.98 C-158.66 125.3 -158.32 124.62 -157.96 123.92 C-156.17 120.34 -154.58 116.68 -153 113 C-152.34 113 -151.68 113 -151 113 C-150.82 112.31 -150.64 111.63 -150.45 110.92 C-150.2 110.02 -149.95 109.12 -149.69 108.19 C-149.44 107.29 -149.2 106.4 -148.95 105.48 C-147.94 102.83 -146.97 101.96 -145 100 C-143 97.1 -141.2 94.07 -139.38 91.06 C-138.62 89.85 -138.62 89.85 -137.85 88.6 C-137.37 87.82 -136.89 87.03 -136.4 86.22 C-135.96 85.51 -135.53 84.79 -135.08 84.06 C-133.92 82.05 -133.92 82.05 -133.47 79.86 C-132.78 77.14 -130.98 75.93 -129 74 C-127.28 71.38 -125.9 68.78 -124.56 65.94 C-122.99 62.98 -121.35 61.35 -119 59 C-117.55 56.72 -116.28 54.38 -115 52 C-114.34 52 -113.68 52 -113 52 C-112.71 51.4 -112.42 50.8 -112.12 50.19 C-111 48 -111 48 -109 45 C-108.34 45 -107.68 45 -107 45 C-107 44.34 -107 43.68 -107 43 C-105.39 41.63 -105.39 41.63 -103.25 40.12 C-100.94 38.45 -98.9 36.9 -96.88 34.88 C-94.5 32.5 -91.79 30.86 -89 29 C-88.32 28.3 -87.64 27.6 -86.94 26.88 C-83.53 23.58 -79.57 22.78 -75 22 C-75 21.34 -75 20.68 -75 20 C-71.27 17.97 -69.33 17 -65 17 C-65 16.34 -65 15.68 -65 15 C-60.73 12.71 -56.66 11.28 -52 10 C-50.66 9.49 -49.33 8.97 -48 8.44 C-44.36 7.03 -40.87 6.5 -37 6 C-36.03 5.67 -35.06 5.34 -34.06 5 C-31.48 4.16 -29.36 3.74 -26.69 3.44 C-23.2 3.41 -23.2 3.41 -22 2 C-20.37 1.91 -18.73 1.89 -17.09 1.9 C-16.1 1.91 -15.11 1.91 -14.09 1.91 C-13.05 1.92 -12.01 1.93 -10.94 1.94 C-9.37 1.94 -9.37 1.94 -7.77 1.95 C-5.18 1.96 -2.59 1.98 0 2 C0 1.34 0 0.68 0 0 Z M146 93 C147 95 147 95 147 95 Z M154 118 C155 121 155 121 155 121 Z M158 129 C158 130.98 158 132.96 158 135 C158.33 135 158.66 135 159 135 C159 133.02 159 131.04 159 129 C158.67 129 158.34 129 158 129 Z M154 200 C155 204 155 204 155 204 Z M149 218 C150 220 150 220 150 220 Z M-99 370 C-99 370.33 -99 370.66 -99 371 C-97.35 371 -95.7 371 -94 371 C-94 370.67 -94 370.34 -94 370 C-95.65 370 -97.3 370 -99 370 Z M-130 372 C-130 372.33 -130 372.66 -130 373 C-126.7 373 -123.4 373 -120 373 C-120 372.67 -120 372.34 -120 372 C-123.3 372 -126.6 372 -130 372 Z " fill="#3D2C30" transform="translate(213,900)"/>
<path d="M0 0 C0.99 0.33 1.98 0.66 3 1 C3 4.3 3 7.6 3 11 C2.67 11 2.34 11 2 11 C1.67 8.69 1.34 6.38 1 4 C0.67 4 0.34 4 0 4 C0.01 5.01 0.01 5.01 0.02 6.04 C0.04 9.15 0.05 12.26 0.06 15.38 C0.07 16.44 0.08 17.5 0.09 18.59 C0.14 35.72 0.14 35.72 -2 40 C-2.66 40 -3.32 40 -4 40 C-3.99 40.98 -3.98 41.96 -3.96 42.96 C-3.83 62.19 -3.83 62.19 -7 68 C-7.66 68 -8.32 68 -9 68 C-8.79 69.28 -8.59 70.56 -8.38 71.88 C-7.65 78.3 -8.38 84.57 -12 90 C-12.66 90 -13.32 90 -14 90 C-13.66 91.61 -13.66 91.61 -13.31 93.25 C-13 97 -13 97 -14.44 98.88 C-16.42 101.57 -16.49 103.44 -16.69 106.75 C-16.75 107.73 -16.82 108.72 -16.89 109.73 C-16.92 110.48 -16.96 111.23 -17 112 C-17.66 112 -18.32 112 -19 112 C-18.97 113.18 -18.97 113.18 -18.94 114.38 C-19 117 -19 117 -20 119 C-20 120.32 -20 121.64 -20 123 C-20.66 123 -21.32 123 -22 123 C-23.79 128.14 -25 132.54 -25 138 C-25.66 138 -26.32 138 -27 138 C-27.29 138.89 -27.58 139.77 -27.88 140.69 C-28.54 142.65 -29.25 144.59 -30.06 146.5 C-31.12 149.05 -31.12 149.05 -31.44 152.12 C-32 155 -32 155 -33.41 156.33 C-35.52 158.55 -36.05 160.64 -36.94 163.56 C-39.78 172.49 -43.3 180.7 -47.55 189.04 C-50.16 194.35 -52.28 199.81 -54.12 205.44 C-55 208 -55 208 -57 211 C-57 211.66 -57 212.32 -57 213 C-57.66 213 -58.32 213 -59 213 C-59.33 215.31 -59.66 217.62 -60 220 C-60.33 219.34 -60.66 218.68 -61 218 C-64.53 221.53 -65.85 226.55 -67.5 231.19 C-68.61 234.22 -69.96 236.47 -72 239 C-72 239.66 -72 240.32 -72 241 C-72.99 241 -73.98 241 -75 241 C-76.6 244.06 -77.98 246.94 -79 250.25 C-80 253 -80 253 -83 255 C-83.73 257.56 -83.73 257.56 -84 260 C-84.66 260 -85.32 260 -86 260 C-86.33 260.99 -86.66 261.98 -87 263 C-87.66 263 -88.32 263 -89 263 C-89.1 263.78 -89.21 264.57 -89.31 265.38 C-90 268 -90 268 -93 270 C-93.73 272.56 -93.73 272.56 -94 275 C-94.66 275 -95.32 275 -96 275 C-96.33 275.99 -96.66 276.98 -97 278 C-97.66 278 -98.32 278 -99 278 C-99.29 278.97 -99.58 279.94 -99.88 280.94 C-101 284 -101 284 -103 285 C-103.47 285.95 -103.95 286.9 -104.44 287.88 C-105.78 290.56 -106.77 292.09 -109 294 C-109.66 293.67 -110.32 293.34 -111 293 C-110.67 293.99 -110.34 294.98 -110 296 C-110.78 296.76 -111.57 297.53 -112.38 298.31 C-115.07 300.91 -115.07 300.91 -117 304 C-117.66 303.67 -118.32 303.34 -119 303 C-118.67 303.99 -118.34 304.98 -118 306 C-118.66 306 -119.32 306 -120 306 C-120.33 306.99 -120.66 307.98 -121 309 C-121.66 309 -122.32 309 -123 309 C-123.16 309.99 -123.33 310.98 -123.5 312 C-125.43 318.73 -131.75 322.95 -136.88 327.31 C-141.16 330.99 -144.86 335.13 -148.61 339.35 C-155.15 346.58 -155.15 346.58 -158.19 348.06 C-160.54 349.28 -160.87 350.67 -162 353 C-162.99 353.33 -163.98 353.66 -165 354 C-165.68 355.33 -166.34 356.66 -167 358 C-168.91 359.85 -168.91 359.85 -171.06 361.62 C-173.98 363.95 -173.98 363.95 -176 367 C-178 367.33 -180 367.67 -182 368 C-182.33 368.66 -182.66 369.32 -183 370 C-185 372 -185 372 -187 373 C-187.27 373.64 -187.54 374.28 -187.81 374.94 C-189.41 377.71 -190.97 378.17 -194 379 C-194.66 378.67 -195.32 378.34 -196 378 C-195.67 378.99 -195.34 379.98 -195 381 C-195.99 381 -196.98 381 -198 381 C-198.33 381.66 -198.66 382.32 -199 383 C-200.33 383.67 -201.67 384.33 -203 385 C-203.33 385.66 -203.66 386.32 -204 387 C-206.44 388.19 -206.44 388.19 -209 389 C-209.66 388.67 -210.32 388.34 -211 388 C-210.67 388.99 -210.34 389.98 -210 391 C-210.58 391.1 -211.15 391.21 -211.75 391.31 C-214.33 392.1 -215.88 393.36 -218 395 C-218.99 395.33 -219.98 395.66 -221 396 C-221.33 396.66 -221.66 397.32 -222 398 C-223.66 398.69 -225.33 399.35 -227 400 C-229.7 401.51 -231.81 402.81 -234 405 C-235.69 405.6 -237.4 406.14 -239.12 406.62 C-240.49 407.02 -240.49 407.02 -241.88 407.41 C-242.93 407.7 -242.93 407.7 -244 408 C-244 408.66 -244 409.32 -244 410 C-244.58 410.11 -245.16 410.22 -245.75 410.34 C-248.23 411.07 -249.84 412.13 -251.94 413.62 C-255.62 416.02 -255.62 416.02 -259 415.81 C-259.66 415.54 -260.32 415.28 -261 415 C-261.33 415.99 -261.66 416.98 -262 418 C-262.74 417.96 -263.49 417.92 -264.25 417.88 C-267.18 418.01 -268.48 418.58 -271 420 C-272.66 420.67 -274.33 421.34 -276 422 C-276.66 422.33 -277.32 422.66 -278 423 C-280.33 423.36 -282.66 423.7 -285 424 C-285 424.33 -285 424.66 -285 425 C-286.65 425.33 -288.3 425.66 -290 426 C-290 426.33 -290 426.66 -290 427 C-294.66 427.53 -299.18 428.03 -303.88 427.88 C-306.99 427.69 -306.99 427.69 -308.88 429.48 C-311.47 431.33 -312.85 431.38 -316 431.39 C-316.99 431.4 -317.98 431.41 -319 431.42 C-320.06 431.41 -321.13 431.4 -322.22 431.4 C-323.32 431.4 -324.42 431.4 -325.55 431.41 C-327.86 431.41 -330.18 431.4 -332.5 431.39 C-336.05 431.38 -339.6 431.39 -343.16 431.41 C-345.41 431.41 -347.66 431.4 -349.91 431.4 C-350.98 431.4 -352.04 431.41 -353.14 431.42 C-354.13 431.41 -355.12 431.4 -356.13 431.39 C-357 431.39 -357.87 431.38 -358.77 431.38 C-361.48 430.92 -362.2 429.99 -364 428 C-366.73 427.42 -366.73 427.42 -369.69 427.31 C-371.18 427.21 -371.18 427.21 -372.7 427.11 C-373.46 427.08 -374.22 427.04 -375 427 C-375 426.34 -375 425.68 -375 425 C-375.83 424.81 -376.66 424.61 -377.52 424.41 C-378.61 424.15 -379.69 423.89 -380.81 423.62 C-381.89 423.37 -382.97 423.11 -384.08 422.85 C-387 422 -387 422 -390 420 C-390.66 420 -391.32 420 -392 420 C-392 419.34 -392 418.68 -392 418 C-394.61 416.92 -397.16 415.96 -399.88 415.19 C-403.2 413.92 -405.52 412.31 -408.29 410.12 C-410.18 408.88 -411.8 408.43 -414 408 C-414 407.34 -414 406.68 -414 406 C-416.15 404.88 -418.19 403.94 -420.5 403.19 C-423.67 401.68 -424.92 399.8 -427 397 C-428.65 395.32 -430.32 393.65 -432 392 C-433.71 390.31 -435.42 388.63 -437.12 386.94 C-438.4 385.68 -438.4 385.68 -439.7 384.4 C-445 378.87 -445 378.87 -445 375 C-445.66 375 -446.32 375 -447 375 C-448.29 373.32 -448.29 373.32 -449.62 371.12 C-450.07 370.41 -450.52 369.69 -450.98 368.95 C-452 367 -452 367 -452 365 C-452.66 365 -453.32 365 -454 365 C-454.23 364.34 -454.45 363.68 -454.69 363 C-455.81 360.43 -457.01 358.44 -458.56 356.12 C-461.01 352.34 -461.72 349.47 -462 345 C-462.66 345 -463.32 345 -464 345 C-471.14 322.2 -471.14 322.2 -471.79 314.07 C-472.03 311.67 -472.52 309.36 -473 307 C-473.92 300.35 -474.1 293.7 -474.12 287 C-474.13 286.26 -474.13 285.52 -474.14 284.75 C-474.13 281.57 -474.01 279.04 -473 276 C-468.68 273.45 -463.97 271.8 -459.32 269.97 C-456.71 268.88 -454.4 267.49 -452 266 C-447.83 263.99 -444.67 262.58 -440 263 C-440 262.34 -440 261.68 -440 261 C-436.27 258.97 -434.33 258 -430 258 C-430 257.34 -430 256.68 -430 256 C-429.21 255.76 -428.43 255.52 -427.62 255.27 C-420.57 253.06 -420.57 253.06 -414 249.75 C-411 248 -411 248 -407 248 C-407 247.34 -407 246.68 -407 246 C-405.75 245.49 -404.5 244.99 -403.25 244.5 C-402.21 244.08 -402.21 244.08 -401.14 243.66 C-399 243 -399 243 -395 243 C-395 242.34 -395 241.68 -395 241 C-394.32 240.8 -393.64 240.61 -392.94 240.41 C-382.87 237.3 -373.29 232.83 -364.29 227.35 C-361.54 225.73 -358.78 224.76 -355.77 223.75 C-353.79 223.04 -353.79 223.04 -352 221 C-350.5 220.43 -348.97 219.92 -347.44 219.44 C-341.2 217.28 -335.58 214.23 -329.84 211 C-328.79 210.42 -328.79 210.42 -327.72 209.83 C-326.79 209.3 -326.79 209.3 -325.84 208.76 C-324 208 -324 208 -320 208 C-320 207.34 -320 206.68 -320 206 C-316.27 203.97 -314.33 203 -310 203 C-310 202.34 -310 201.68 -310 201 C-309.47 200.75 -308.93 200.51 -308.38 200.25 C-305.92 199.11 -303.46 197.96 -301 196.81 C-300.16 196.43 -299.32 196.04 -298.46 195.64 C-293.64 193.38 -289.12 190.95 -284.69 188 C-282.53 186.72 -280.49 186.23 -278 186 C-278 185.34 -278 184.68 -278 184 C-274.59 182.35 -271.17 180.7 -267.75 179.06 C-266.78 178.59 -265.81 178.13 -264.82 177.64 C-263.88 177.19 -262.95 176.75 -261.98 176.29 C-261.13 175.87 -260.27 175.46 -259.38 175.03 C-257.25 174.11 -255.27 173.48 -253 173 C-253 172.34 -253 171.68 -253 171 C-247.25 168 -247.25 168 -245 168 C-245 167.34 -245 166.68 -245 166 C-241.68 164.58 -238.56 163.61 -235 163 C-235 162.34 -235 161.68 -235 161 C-234.11 160.57 -233.23 160.13 -232.31 159.69 C-229.09 158.11 -229.09 158.11 -226.5 156.44 C-223.75 154.85 -221.03 153.92 -218 153 C-218 152.34 -218 151.68 -218 151 C-217.01 151 -216.02 151 -215 151 C-215 150.34 -215 149.68 -215 149 C-213.35 148.67 -211.7 148.34 -210 148 C-210 147.34 -210 146.68 -210 146 C-209.27 145.72 -208.54 145.44 -207.79 145.16 C-203.39 143.33 -199.37 140.89 -195.25 138.5 C-194.37 138 -193.5 137.5 -192.6 136.99 C-191.77 136.51 -190.93 136.03 -190.08 135.53 C-188.94 134.87 -188.94 134.87 -187.78 134.21 C-185.85 133.11 -185.85 133.11 -185 131 C-183.35 130.3 -181.68 129.64 -180 129 C-178.53 128.17 -177.08 127.3 -175.64 126.4 C-174.86 125.91 -174.07 125.42 -173.26 124.91 C-171.62 123.88 -169.97 122.85 -168.33 121.81 C-167.55 121.33 -166.76 120.84 -165.96 120.34 C-164.89 119.66 -164.89 119.66 -163.8 118.98 C-162 118 -162 118 -160 118 C-160 117.34 -160 116.68 -160 116 C-159.17 115.61 -158.35 115.22 -157.5 114.81 C-150.25 111.51 -150.25 111.51 -145 106 C-143.85 105.69 -142.69 105.38 -141.5 105.06 C-140.35 104.71 -139.19 104.36 -138 104 C-137.67 103.01 -137.34 102.02 -137 101 C-133.79 99.11 -131.75 98 -128 98 C-128 97.34 -128 96.68 -128 96 C-126.17 94.63 -126.17 94.63 -123.75 93.12 C-121.18 91.48 -119.04 90.04 -116.88 87.88 C-114.78 85.78 -112.51 84.49 -109.88 83.12 C-107.86 81.97 -107.86 81.97 -105.66 80.12 C-101.9 77.12 -97.87 74.6 -93.84 72 C-91.25 70.17 -89.19 68.27 -87 66 C-85.33 65 -83.67 64 -82 63 C-79.64 61.17 -77.31 59.31 -74.99 57.43 C-73 56 -73 56 -71 56 C-70.67 55.01 -70.34 54.02 -70 53 C-68.36 51.79 -68.36 51.79 -66.31 50.62 C-61.85 47.96 -58.02 44.83 -54.17 41.34 C-49.98 37.58 -45.7 34.39 -40.96 31.34 C-38.87 30 -38.87 30 -36.88 27.88 C-34.73 25.73 -32.37 24.5 -29.73 23.07 C-27.1 21.44 -25.15 19.2 -23 17 C-22.05 16.38 -21.1 15.76 -20.12 15.12 C-17.51 13.35 -15.71 11.76 -13.56 9.5 C-10.31 6.14 -7.14 4.15 -3 2 C-1.51 1.01 -1.51 1.01 0 0 Z M-2 26 C-1 28 -1 28 -1 28 Z M-3 29 C-3 30.98 -3 32.96 -3 35 C-2.67 35 -2.34 35 -2 35 C-2 33.02 -2 31.04 -2 29 C-2.33 29 -2.66 29 -3 29 Z M-6 41 C-6 45.62 -6 50.24 -6 55 C-5.67 55 -5.34 55 -5 55 C-5 50.38 -5 45.76 -5 41 C-5.33 41 -5.66 41 -6 41 Z M-11 69 C-11 70.98 -11 72.96 -11 75 C-10.67 75 -10.34 75 -10 75 C-10 73.02 -10 71.04 -10 69 C-10.33 69 -10.66 69 -11 69 Z M-11 78 C-10 80 -10 80 -10 80 Z M-16 91 C-15 95 -15 95 -15 95 Z M-22 119 C-21 122 -21 122 -21 122 Z M-27 134 C-26 137 -26 137 -26 137 Z " fill="#3D2C30" transform="translate(953,849)"/>
<path d="M0 0 C0.63 1.81 0.63 1.81 1 4 C0.34 4.99 -0.32 5.98 -1 7 C-1.66 7 -2.32 7 -3 7 C-3 7.66 -3 8.32 -3 9 C-4.49 9.5 -4.49 9.5 -6 10 C-6.33 10.66 -6.66 11.32 -7 12 C-7.66 12 -8.32 12 -9 12 C-9.06 12.72 -9.12 13.44 -9.19 14.19 C-10.27 17.92 -12.17 19.36 -15 22 C-16.55 23.86 -18.07 25.74 -19.57 27.64 C-21 29 -21 29 -24 29 C-24 30.65 -24 32.3 -24 34 C-24.66 34 -25.32 34 -26 34 C-26.33 34.99 -26.66 35.98 -27 37 C-27.66 37 -28.32 37 -29 37 C-29.09 38.08 -29.09 38.08 -29.19 39.19 C-30.24 42.85 -32.21 44.49 -35 47 C-35.66 46.67 -36.32 46.34 -37 46 C-36.67 47.65 -36.34 49.3 -36 51 C-36.66 51 -37.32 51 -38 51 C-38.33 51.99 -38.66 52.98 -39 54 C-39.66 54 -40.32 54 -41 54 C-41.37 54.93 -41.37 54.93 -41.75 55.88 C-43 58 -43 58 -45.06 58.88 C-45.7 59.25 -46.34 59.62 -47 60 C-47.12 60.93 -47.25 61.86 -47.38 62.81 C-48.12 66.62 -49.5 67.48 -52.52 69.73 C-54.81 71.7 -55.7 74.3 -57 77 C-58.5 78.86 -60.07 80.63 -61.7 82.39 C-63.22 84.08 -63.22 84.08 -64 87 C-64.99 86.67 -65.98 86.34 -67 86 C-66.67 86.99 -66.34 87.98 -66 89 C-66.82 89.78 -67.65 90.57 -68.5 91.38 C-71.23 93.64 -71.23 93.64 -71 96 C-72.49 96.99 -72.49 96.99 -74 98 C-75.14 99.92 -75.14 99.92 -76.06 102.06 C-77.79 105.89 -77.79 105.89 -80 107 C-80.66 106.67 -81.32 106.34 -82 106 C-81.67 106.99 -81.34 107.98 -81 109 C-82.25 111.19 -82.25 111.19 -84 113 C-84.99 113 -85.98 113 -87 113 C-86.67 113.99 -86.34 114.98 -86 116 C-87.49 116.99 -87.49 116.99 -89 118 C-89.73 120.56 -89.73 120.56 -90 123 C-90.66 123 -91.32 123 -92 123 C-92.33 123.99 -92.66 124.98 -93 126 C-93.66 126 -94.32 126 -95 126 C-95.1 126.78 -95.21 127.57 -95.31 128.38 C-96 131 -96 131 -99 133 C-99.73 135.56 -99.73 135.56 -100 138 C-100.66 138 -101.32 138 -102 138 C-102.33 138.99 -102.66 139.98 -103 141 C-103.66 141 -104.32 141 -105 141 C-105.29 141.93 -105.58 142.86 -105.88 143.81 C-107 147 -107 147 -109 150 C-109.33 150.66 -109.66 151.32 -110 152 C-110.66 151.67 -111.32 151.34 -112 151 C-111.67 152.65 -111.34 154.3 -111 156 C-111.66 156 -112.32 156 -113 156 C-113.33 156.99 -113.66 157.98 -114 159 C-114.66 159 -115.32 159 -116 159 C-117.65 162.23 -119.2 165.45 -120.56 168.81 C-122 172 -122 172 -124 173 C-124.66 175.53 -124.66 175.53 -125 178 C-125.66 178 -126.32 178 -127 178 C-127.33 178.99 -127.66 179.98 -128 181 C-128.66 181 -129.32 181 -130 181 C-130.19 181.71 -130.39 182.42 -130.59 183.15 C-130.98 184.53 -130.98 184.53 -131.38 185.94 C-131.76 187.31 -131.76 187.31 -132.15 188.71 C-133 191 -133 191 -135 192 C-135.66 191.67 -136.32 191.34 -137 191 C-136.67 191.99 -136.34 192.98 -136 194 C-136.81 195.94 -136.81 195.94 -138 198 C-138.31 198.66 -138.62 199.32 -138.94 200 C-140.11 202.21 -141.37 204.1 -143 206 C-143.66 206 -144.32 206 -145 206 C-145.29 206.91 -145.58 207.82 -145.88 208.75 C-146.77 211.34 -147.75 213.58 -149 216 C-149.31 216.87 -149.62 217.73 -149.94 218.62 C-151 221 -151 221 -154 223 C-155.57 225.66 -155.57 225.66 -157 228.75 C-157.74 230.29 -157.74 230.29 -158.5 231.86 C-159.24 233.41 -159.24 233.41 -160 235 C-161 237 -162 239 -163 241 C-163.66 241 -164.32 241 -165 241 C-165.29 241.91 -165.58 242.82 -165.88 243.75 C-166.78 246.35 -167.72 248.58 -169 251 C-169.74 252.52 -169.74 252.52 -170.5 254.06 C-172 257 -172 257 -174 260 C-174.33 260.66 -174.66 261.32 -175 262 C-175.66 261.67 -176.32 261.34 -177 261 C-176.67 261.99 -176.34 262.98 -176 264 C-177.19 265.69 -178.4 267.38 -179.66 269.02 C-181.05 271.08 -181.87 272.98 -182.69 275.31 C-184 279 -184 279 -186 281 C-186.55 282.31 -187.04 283.65 -187.5 285 C-188.43 287.74 -188.91 288.91 -191 291 C-191.17 293.58 -191.17 293.58 -191 296 C-191.66 296 -192.32 296 -193 296 C-193 296.66 -193 297.32 -193 298 C-193.66 298 -194.32 298 -195 298 C-195.18 298.6 -195.36 299.21 -195.55 299.83 C-196.9 304.12 -198.12 307.49 -201 311 C-203.15 315.81 -204.81 320.86 -206 326 C-206.66 326 -207.32 326 -208 326 C-209.13 329.31 -210.21 332.59 -211 336 C-211.66 336 -212.32 336 -213 336 C-214.84 339.59 -216.42 343.27 -218 346.98 C-219 349 -219 349 -221 351 C-221.55 352.31 -222.04 353.65 -222.5 355 C-223.43 357.74 -223.91 358.91 -226 361 C-225.97 362.49 -225.97 362.49 -225.94 364 C-225.96 364.99 -225.98 365.98 -226 367 C-226.99 367.66 -227.98 368.32 -229 369 C-229.14 369.93 -229.29 370.86 -229.44 371.81 C-230.11 375.61 -231.58 377.06 -234 380 C-235.21 383.05 -235.21 383.05 -236 386 C-237 389 -237 389 -239 392 C-239.31 392.93 -239.62 393.86 -239.94 394.81 C-241.35 399.04 -242.82 402.82 -246 406 C-245.97 407.49 -245.97 407.49 -245.94 409 C-245.96 409.99 -245.98 410.98 -246 412 C-246.99 412.66 -247.98 413.32 -249 414 C-249.14 414.93 -249.29 415.86 -249.44 416.81 C-250.11 420.63 -251.55 422.05 -254 425 C-255.72 428.58 -257 431.99 -258.06 435.81 C-259 439 -259 439 -261 441 C-261.78 442.8 -261.78 442.8 -262.44 444.81 C-263.31 447.26 -264.13 449.21 -265.5 451.44 C-267.28 454.47 -268.19 457.52 -269.25 460.86 C-270.17 463.48 -271.51 465.66 -273 468 C-273.66 469.65 -274.32 471.3 -275 473 C-279.62 473 -284.24 473 -289 473 C-289 472.34 -289 471.68 -289 471 C-289.57 470.95 -290.14 470.9 -290.72 470.85 C-295.7 470.37 -300.19 469.42 -305 468 C-306.32 468 -307.64 468 -309 468 C-309.99 467.34 -310.98 466.68 -312 466 C-312.99 465.86 -313.98 465.71 -315 465.56 C-318 465 -318 465 -319.32 463.56 C-321.64 461.4 -323.8 461.11 -326.88 460.44 C-330.75 459.58 -334.4 458.71 -338 457 C-339.31 454.88 -339.31 454.88 -340 453 C-340.99 453 -341.98 453 -343 453 C-343 452.34 -343 451.68 -343 451 C-344.98 450.67 -346.96 450.34 -349 450 C-349.04 449.38 -349.08 448.76 -349.12 448.12 C-349.41 447.42 -349.7 446.72 -350 446 C-351.98 445.26 -353.98 444.61 -356 444 C-361.73 440.54 -361.73 440.54 -363 438 C-363.61 437.7 -364.21 437.4 -364.84 437.09 C-367.26 435.87 -368.7 434.47 -370.56 432.5 C-372.68 430.28 -374.42 428.72 -377 427 C-377 426.34 -377 425.68 -377 425 C-377.66 425 -378.32 425 -379 425 C-382 421.54 -382 421.54 -382 419 C-383.21 418.63 -383.21 418.63 -384.44 418.25 C-387 417 -387 417 -387.81 414.88 C-387.87 414.26 -387.94 413.64 -388 413 C-388.66 413 -389.32 413 -390 413 C-390.33 411.35 -390.66 409.7 -391 408 C-391.66 408 -392.32 408 -393 408 C-395.17 404.84 -396.67 401.59 -398 398 C-398.66 398 -399.32 398 -400 398 C-400.65 396.73 -401.29 395.46 -401.94 394.19 C-402.48 393.13 -402.48 393.13 -403.03 392.04 C-404 390 -404 390 -405 387 C-405.66 386.34 -406.32 385.68 -407 385 C-418.08 364.7 -422.38 340.23 -422.26 317.41 C-422.25 314.87 -422.26 312.34 -422.27 309.8 C-422.28 301.64 -422.13 293.93 -420 286 C-419.69 284.65 -419.38 283.3 -419.07 281.95 C-413.52 259.52 -413.52 259.52 -410 256 C-409.36 253.93 -409.36 253.93 -409 252 C-408.34 252 -407.68 252 -407 252 C-406.88 251.28 -406.75 250.56 -406.62 249.81 C-406.01 247.04 -405.12 244.6 -404 242 C-403.34 242 -402.68 242 -402 242 C-401.69 241.05 -401.38 240.1 -401.06 239.12 C-400 236 -400 236 -399 234 C-398.34 234 -397.68 234 -397 234 C-396.9 233.46 -396.79 232.93 -396.69 232.38 C-395.32 227.66 -392.94 223.87 -390 220 C-389.67 219.01 -389.34 218.02 -389 217 C-388.34 217 -387.68 217 -387 217 C-386.77 216.32 -386.55 215.64 -386.31 214.94 C-384.91 211.81 -383.19 209.36 -381.12 206.65 C-379.81 204.88 -379.81 204.88 -379 202 C-378.34 202 -377.68 202 -377 202 C-376.73 201.44 -376.46 200.89 -376.19 200.31 C-374.14 196.32 -371.92 192.42 -369 189 C-368.34 189 -367.68 189 -367 189 C-366.81 188.15 -366.63 187.31 -366.44 186.44 C-364.8 182.53 -362.88 180.74 -359.84 177.9 C-357.98 175.98 -356.7 174.09 -355.31 171.81 C-352.21 166.89 -348.25 163.05 -344.05 159.07 C-341.6 156.73 -340.09 155.28 -339 152 C-338.01 152 -337.02 152 -336 152 C-335.94 151.45 -335.89 150.91 -335.83 150.35 C-334.63 146.96 -332.27 144.88 -329.75 142.44 C-329.27 141.96 -328.79 141.47 -328.3 140.98 C-326.18 138.89 -324.18 137.1 -321.59 135.62 C-317.74 133.21 -314.88 129.95 -311.75 126.69 C-307.08 121.9 -302.63 117.64 -296.85 114.2 C-294.88 112.92 -293.42 111.52 -291.81 109.81 C-288.93 106.93 -286.62 105.78 -283 104 C-279.3 101.35 -275.59 98.63 -272.4 95.37 C-270.27 93.29 -267.67 92.31 -265 91 C-259.71 88.3 -259.71 88.3 -256 84 C-254.34 83.32 -252.67 82.66 -251 82 C-249.11 80.84 -247.23 79.65 -245.38 78.44 C-239.26 74.55 -232.88 71.47 -226.3 68.43 C-220.84 65.9 -215.49 63.22 -210.19 60.38 C-204.9 57.54 -199.61 54.75 -194.25 52.06 C-193.16 51.52 -192.07 50.97 -190.95 50.41 C-189.05 49.5 -187.13 48.65 -185.17 47.87 C-183.06 47.19 -183.06 47.19 -182 46 C-180 45.96 -178 45.96 -176 46 C-176 45.34 -176 44.68 -176 44 C-171.05 42.51 -171.05 42.51 -166 41 C-166 40.34 -166 39.68 -166 39 C-165.41 38.83 -164.81 38.66 -164.2 38.48 C-158.72 36.88 -153.35 35.09 -148 33.11 C-143.42 31.42 -138.82 29.8 -134.23 28.16 C-131.7 27.25 -129.19 26.3 -126.69 25.31 C-123.17 24.06 -119.79 23.28 -116.15 22.53 C-113.72 21.99 -113.72 21.99 -110.5 20.5 C-106.93 18.97 -103.61 18.16 -99.82 17.43 C-97.99 17.17 -97.99 17.17 -97 16 C-95.06 15.77 -93.13 15.53 -91.19 15.31 C-87.15 14.74 -83.34 13.6 -79.62 11.94 C-75.86 10.59 -72 10.1 -68 10 C-67.34 10.33 -66.68 10.66 -66 11 C-66 10.34 -66 9.68 -66 9 C-65.15 8.87 -64.29 8.73 -63.41 8.6 C-62.31 8.42 -61.2 8.24 -60.06 8.06 C-58.96 7.89 -57.86 7.71 -56.72 7.54 C-54.1 7.28 -54.1 7.28 -53 6 C-51.17 5.81 -49.34 5.68 -47.5 5.56 C-42.93 5.22 -38.68 4.57 -34.24 3.47 C-30.87 2.76 -27.49 2.51 -24.07 2.25 C-21.94 2.11 -21.94 2.11 -20 1 C-17.18 0.77 -14.38 0.58 -11.56 0.44 C-10.79 0.39 -10.01 0.35 -9.21 0.31 C-6.14 0.14 -3.08 0 0 0 Z M-286 471 C-286 471.33 -286 471.66 -286 472 C-282.37 472 -278.74 472 -275 472 C-275 471.67 -275 471.34 -275 471 C-278.63 471 -282.26 471 -286 471 Z " fill="#3C2B2F" transform="translate(424,321)"/>
<path d="M0 0 C0.66 0.33 1.32 0.66 2 1 C0.48 4.57 -1.62 6.86 -4.36 9.58 C-5.26 10.49 -6.16 11.39 -7.09 12.31 C-8.07 13.29 -9.06 14.26 -10.04 15.23 C-11.05 16.24 -12.05 17.24 -13.06 18.24 C-15.7 20.88 -18.35 23.51 -21 26.13 C-23.7 28.82 -26.4 31.51 -29.1 34.2 C-34.4 39.47 -39.7 44.74 -45 50 C-45.66 49.67 -46.32 49.34 -47 49 C-46.16 48.18 -45.31 47.36 -44.45 46.52 C-43.34 45.43 -42.23 44.34 -41.12 43.25 C-40.57 42.71 -40.01 42.17 -39.44 41.62 C-38.91 41.09 -38.37 40.56 -37.82 40.02 C-37.33 39.53 -36.84 39.05 -36.33 38.56 C-34.92 37.05 -34.92 37.05 -34.12 35.12 C-32.91 32.82 -31.58 31.34 -29.74 29.52 C-29.08 28.86 -28.42 28.2 -27.74 27.52 C-27.03 26.81 -26.32 26.11 -25.59 25.39 C-24.86 24.66 -24.13 23.94 -23.37 23.19 C-21.05 20.87 -18.71 18.56 -16.38 16.25 C-14.79 14.68 -13.21 13.11 -11.63 11.54 C-7.76 7.68 -3.88 3.84 0 0 Z " fill="#503D42" transform="translate(632,248)"/>
<path d="M0 0 C0.66 0.33 1.32 0.66 2 1 C-4.6 7.6 -11.2 14.2 -18 21 C-18.99 20.67 -19.98 20.34 -21 20 C-17.16 15.31 -13.07 10.93 -8.81 6.62 C-8.29 6.09 -7.77 5.55 -7.23 5 C-4.84 2.61 -3.25 1.08 0 0 Z " fill="#49383C" transform="translate(664,218)"/>
<path d="M0 0 C0.66 0.33 1.32 0.66 2 1 C-0.02 5.44 -2.98 8.38 -6.38 11.81 C-7.24 12.73 -7.24 12.73 -8.12 13.66 C-8.69 14.23 -9.25 14.81 -9.84 15.39 C-10.35 15.92 -10.86 16.44 -11.38 16.98 C-11.92 17.32 -12.45 17.65 -13 18 C-14.32 17.67 -15.64 17.34 -17 17 C-11.39 11.39 -5.78 5.78 0 0 Z " fill="#4A383D" transform="translate(632,248)"/>
<path d="M0 0 C0.66 0.33 1.32 0.66 2 1 C0.46 4.68 -1.78 6.99 -4.62 9.75 C-5.85 10.95 -5.85 10.95 -7.1 12.17 C-7.73 12.78 -8.35 13.38 -9 14 C-9.99 13.67 -10.98 13.34 -12 13 C-8.2 8.44 -4.25 4.15 0 0 Z " fill="#4B393E" transform="translate(925,535)"/>
<path d="M0 0 C0.66 0.33 1.32 0.66 2 1 C-2.95 5.95 -7.9 10.9 -13 16 C-13.99 15.67 -14.98 15.34 -16 15 C-12.38 10.43 -8.98 7.14 -4 4 C-2.63 2.7 -1.28 1.38 0 0 Z " fill="#513F43" transform="translate(121,441)"/>
<path d="M0 0 C0.99 0 1.98 0 3 0 C3 0.66 3 1.32 3 2 C2.01 1.67 1.02 1.34 0 1 C0 0.67 0 0.34 0 0 Z M-2 2 C-1.34 2.66 -0.68 3.32 0 4 C-4.29 8.29 -8.58 12.58 -13 17 C-13.66 16.34 -14.32 15.68 -15 15 C-10.71 10.71 -6.42 6.42 -2 2 Z " fill="#4E3C41" transform="translate(700,183)"/>
<path d="M0 0 C0.33 0 0.66 0 1 0 C1 15.18 1 30.36 1 46 C0.67 46 0.34 46 0 46 C0 30.82 0 15.64 0 0 Z " fill="#000002" transform="translate(1277,131)"/>
<path d="M0 0 C13.86 0.33 27.72 0.66 42 1 C42 1.33 42 1.66 42 2 C28.47 2 14.94 2 1 2 C0.67 1.34 0.34 0.68 0 0 Z " fill="#000002" transform="translate(265,794)"/>
<path d="M0 0 C0.81 1.67 0.81 1.67 1 4 C-1.09 6.58 -1.09 6.58 -3.94 9.25 C-4.87 10.14 -5.81 11.03 -6.78 11.95 C-7.51 12.63 -8.24 13.3 -9 14 C-9.66 13.67 -10.32 13.34 -11 13 C-7.93 7.96 -4.27 4.05 0 0 Z " fill="#4C3A3F" transform="translate(82,478)"/>
<path d="M0 0 C0.62 1.81 0.62 1.81 1 4 C0.01 5.49 0.01 5.49 -1 7 C-1.66 7 -2.32 7 -3 7 C-3 7.66 -3 8.32 -3 9 C-3.66 9 -4.32 9 -5 9 C-4.81 8.4 -4.63 7.8 -4.44 7.19 C-3.78 4.84 -3.78 4.84 -5 2 C-5.66 1.67 -6.32 1.34 -7 1 C-4.51 0.31 -2.62 0 0 0 Z " fill="#271F22" transform="translate(424,321)"/>
<path d="M0 0 C1.32 0.33 2.64 0.66 4 1 C1.69 3.31 -0.62 5.62 -3 8 C-3.99 7.67 -4.98 7.34 -6 7 C-4.02 4.69 -2.04 2.38 0 0 Z " fill="#4B393E" transform="translate(649,231)"/>
<path d="M0 0 C0.33 0 0.66 0 1 0 C1 9.57 1 19.14 1 29 C0.67 29 0.34 29 0 29 C0 19.43 0 9.86 0 0 Z " fill="#000002" transform="translate(375,1047)"/>
<path d="M0 0 C0.33 0 0.66 0 1 0 C1 8.91 1 17.82 1 27 C0.67 27 0.34 27 0 27 C0 18.09 0 9.18 0 0 Z " fill="#7B656B" transform="translate(693,437)"/>
<path d="M0 0 C0.66 0.66 1.32 1.32 2 2 C-0.64 4.64 -3.28 7.28 -6 10 C-6.66 9.34 -7.32 8.68 -8 8 C-5.36 5.36 -2.72 2.72 0 0 Z " fill="#4D3B40" transform="translate(728,160)"/>
<path d="M0 0 C8.25 0 16.5 0 25 0 C25 0.33 25 0.66 25 1 C16.75 1 8.5 1 0 1 C0 0.67 0 0.34 0 0 Z " fill="#7B656B" transform="translate(814,316)"/>
<path d="M0 0 C0.33 0 0.66 0 1 0 C1 6.27 1 12.54 1 19 C0.67 19 0.34 19 0 19 C0 12.73 0 6.46 0 0 Z " fill="#7B656B" transform="translate(953,853)"/>
<path d="M0 0 C0.33 0 0.66 0 1 0 C1 4.62 1 9.24 1 14 C0.67 14 0.34 14 0 14 C0 9.38 0 4.76 0 0 Z " fill="#7B656B" transform="translate(1273,105)"/>
<path d="M0 0 C2.97 0 5.94 0 9 0 C9 0.33 9 0.66 9 1 C6.03 1 3.06 1 0 1 C0 0.67 0 0.34 0 0 Z " fill="#7B656B" transform="translate(841,318)"/>
<path d="M0 0 C0.33 0 0.66 0 1 0 C1 2.97 1 5.94 1 9 C0.67 9 0.34 9 0 9 C0 6.03 0 3.06 0 0 Z " fill="#000002" transform="translate(1275,188)"/>
<path d="M0 0 C0.33 0 0.66 0 1 0 C1 2.64 1 5.28 1 8 C0.67 8 0.34 8 0 8 C0 5.36 0 2.72 0 0 Z " fill="#000002" transform="translate(372,1088)"/>
<path d="M0 0 C0.33 0 0.66 0 1 0 C1 2.64 1 5.28 1 8 C0.67 8 0.34 8 0 8 C0 5.36 0 2.72 0 0 Z " fill="#000002" transform="translate(1267,240)"/>
<path d="M0 0 C2.31 0 4.62 0 7 0 C7 0.33 7 0.66 7 1 C4.69 1 2.38 1 0 1 C0 0.67 0 0.34 0 0 Z " fill="#000002" transform="translate(646,1277)"/>
<path d="M0 0 C2.31 0 4.62 0 7 0 C7 0.33 7 0.66 7 1 C4.69 1 2.38 1 0 1 C0 0.67 0 0.34 0 0 Z " fill="#7B656B" transform="translate(803,318)"/>
<path d="M0 0 C0.33 0 0.66 0 1 0 C1 1.98 1 3.96 1 6 C0.67 6 0.34 6 0 6 C0 4.02 0 2.04 0 0 Z " fill="#000002" transform="translate(950,890)"/>
<path d="M0 0 C0.33 0 0.66 0 1 0 C1 1.98 1 3.96 1 6 C0.67 6 0.34 6 0 6 C0 4.02 0 2.04 0 0 Z " fill="#000002" transform="translate(695,428)"/>
<path d="M0 0 C0.33 0 0.66 0 1 0 C1 1.98 1 3.96 1 6 C0.67 6 0.34 6 0 6 C0 4.02 0 2.04 0 0 Z " fill="#000002" transform="translate(1262,263)"/>
<path d="M0 0 C0.33 0 0.66 0 1 0 C1 1.98 1 3.96 1 6 C0.67 6 0.34 6 0 6 C0 4.02 0 2.04 0 0 Z " fill="#000002" transform="translate(1275,114)"/>
<path d="M0 0 C0.33 0 0.66 0 1 0 C1 1.98 1 3.96 1 6 C0.67 6 0.34 6 0 6 C0 4.02 0 2.04 0 0 Z " fill="#000002" transform="translate(1272,96)"/>
<path d="M0 0 C1.65 0 3.3 0 5 0 C5 0.33 5 0.66 5 1 C3.35 1 1.7 1 0 1 C0 0.67 0 0.34 0 0 Z " fill="#000002" transform="translate(72,1272)"/>
<path d="M0 0 C0.66 0.33 1.32 0.66 2 1 C0.68 1.33 -0.64 1.66 -2 2 C-1.34 1.34 -0.68 0.68 0 0 Z " fill="#000002" transform="translate(680,1269)"/>
<path d="M0 0 C0.33 0 0.66 0 1 0 C1 1.65 1 3.3 1 5 C0.67 5 0.34 5 0 5 C0 3.35 0 1.7 0 0 Z " fill="#000002" transform="translate(937,950)"/>
<path d="M0 0 C1.65 0 3.3 0 5 0 C5 0.33 5 0.66 5 1 C3.35 1 1.7 1 0 1 C0 0.67 0 0.34 0 0 Z " fill="#000002" transform="translate(127,792)"/>
<path d="M0 0 C0.33 0 0.66 0 1 0 C1 1.65 1 3.3 1 5 C0.67 5 0.34 5 0 5 C0 3.35 0 1.7 0 0 Z " fill="#000002" transform="translate(697,477)"/>
<path d="M0 0 C0.33 0 0.66 0 1 0 C1 1.65 1 3.3 1 5 C0.67 5 0.34 5 0 5 C0 3.35 0 1.7 0 0 Z " fill="#000002" transform="translate(695,465)"/>
<path d="M0 0 C4 1 4 1 4 1 Z " fill="#000002" transform="translate(585,1277)"/>
<path d="M0 0 C4 1 4 1 4 1 Z " fill="#000002" transform="translate(671,1272)"/>
<path d="M0 0 C4 1 4 1 4 1 Z " fill="#000002" transform="translate(568,1272)"/>
<path d="M0 0 C4 1 4 1 4 1 Z " fill="#000002" transform="translate(686,1267)"/>
<path d="M0 0 C1 4 1 4 1 4 Z " fill="#000002" transform="translate(367,1110)"/>
<path d="M0 0 C1 4 1 4 1 4 Z " fill="#000002" transform="translate(370,1100)"/>
<path d="M0 0 C1 4 1 4 1 4 Z " fill="#000002" transform="translate(902,1045)"/>
<path d="M0 0 C1 4 1 4 1 4 Z " fill="#000002" transform="translate(917,1010)"/>
<path d="M0 0 C1 4 1 4 1 4 Z " fill="#000002" transform="translate(945,918)"/>
<path d="M0 0 C4 1 4 1 4 1 Z " fill="#000002" transform="translate(358,807)"/>
<path d="M0 0 C4 1 4 1 4 1 Z " fill="#000002" transform="translate(343,802)"/>
<path d="M0 0 C1 4 1 4 1 4 Z " fill="#000002" transform="translate(157,775)"/>
<path d="M0 0 C4 1 4 1 4 1 Z " fill="#000002" transform="translate(858,322)"/>
<path d="M0 0 C1 4 1 4 1 4 Z " fill="#000002" transform="translate(1265,252)"/>
<path d="M0 0 C3 1 3 1 3 1 Z " fill="#000002" transform="translate(63,1269)"/>
<path d="M0 0 C3 1 3 1 3 1 Z " fill="#000002" transform="translate(135,1267)"/>
<path d="M0 0 C3 1 3 1 3 1 Z " fill="#000002" transform="translate(553,1265)"/>
<path d="M0 0 C3 1 3 1 3 1 Z " fill="#7B656B" transform="translate(162,1258)"/>
<path d="M0 0 C3 1 3 1 3 1 Z " fill="#000002" transform="translate(168,1257)"/>
<path d="M0 0 C3 1 3 1 3 1 Z " fill="#000002" transform="translate(181,1252)"/>
<path d="M0 0 C3 1 3 1 3 1 Z " fill="#000002" transform="translate(218,1237)"/>
<path d="" fill="#000002" transform="translate(0,0)"/>
<path d="" fill="#000002" transform="translate(0,0)"/>
<path d="" fill="#000002" transform="translate(0,0)"/>
<path d="" fill="#000002" transform="translate(0,0)"/>
<path d="" fill="#000002" transform="translate(0,0)"/>
<path d="M0 0 C3 1 3 1 3 1 Z " fill="#000002" transform="translate(511,997)"/>
<path d="" fill="#000002" transform="translate(0,0)"/>
<path d="" fill="#000002" transform="translate(0,0)"/>
<path d="M0 0 C3 1 3 1 3 1 Z " fill="#000002" transform="translate(119,790)"/>
<path d="M0 0 C3 1 3 1 3 1 Z " fill="#000002" transform="translate(109,787)"/>
<path d="M0 0 C3 1 3 1 3 1 Z " fill="#000002" transform="translate(97,782)"/>
<path d="" fill="#000002" transform="translate(0,0)"/>
<path d="" fill="#000002" transform="translate(0,0)"/>
<path d="M0 0 C0.66 0 1.32 0 2 0 C1.67 0.66 1.34 1.32 1 2 C0.67 1.34 0.34 0.68 0 0 Z " fill="#281D20" transform="translate(1131,521)"/>
<path d="" fill="#000002" transform="translate(0,0)"/>
<path d="" fill="#000002" transform="translate(0,0)"/>
<path d="M0 0 C0.99 0.5 0.99 0.5 2 1 C1.01 1.5 1.01 1.5 0 2 C0 1.34 0 0.68 0 0 Z " fill="#281D20" transform="translate(736,351)"/>
<path d="M0 0 C0.99 0.5 0.99 0.5 2 1 C1.01 1.5 1.01 1.5 0 2 C0 1.34 0 0.68 0 0 Z " fill="#281D20" transform="translate(401,351)"/>
<path d="M0 0 C0.66 0.66 1.32 1.32 2 2 C1.34 2 0.68 2 0 2 C0 1.34 0 0.68 0 0 Z " fill="#000002" transform="translate(891,334)"/>
<path d="M0 0 C3 1 3 1 3 1 Z " fill="#000002" transform="translate(874,327)"/>
<path d="M0 0 C3 1 3 1 3 1 Z " fill="#000002" transform="translate(798,320)"/>
<path d="" fill="#000002" transform="translate(0,0)"/>
<path d="" fill="#000002" transform="translate(0,0)"/>
<path d="" fill="#000002" transform="translate(0,0)"/>
<path d="" fill="#000002" transform="translate(0,0)"/>
<path d="" fill="#000002" transform="translate(0,0)"/>
<path d="" fill="#000002" transform="translate(0,0)"/>
<path d="M0 0 C2 1 2 1 2 1 Z " fill="#000002" transform="translate(95,1275)"/>
<path d="M0 0 C2 1 2 1 2 1 Z " fill="#000002" transform="translate(576,1274)"/>
<path d="M0 0 C2 1 2 1 2 1 Z " fill="#000002" transform="translate(557,1267)"/>
<path d="M0 0 C2 1 2 1 2 1 Z " fill="#000002" transform="translate(693,1265)"/>
<path d="M0 0 C2 1 2 1 2 1 Z " fill="#000002" transform="translate(143,1265)"/>
<path d="M0 0 C2 1 2 1 2 1 Z " fill="#000002" transform="translate(54,1265)"/>
<path d="M0 0 C2 1 2 1 2 1 Z " fill="#7B656B" transform="translate(51,1263)"/>
<path d="M0 0 C2 1 2 1 2 1 Z " fill="#000002" transform="translate(711,1257)"/>
<path d="M0 0 C2 1 2 1 2 1 Z " fill="#7B656B" transform="translate(177,1253)"/>
<path d="M0 0 C2 1 2 1 2 1 Z " fill="#000002" transform="translate(721,1252)"/>
<path d="M0 0 C2 1 2 1 2 1 Z " fill="#000002" transform="translate(190,1249)"/>
<path d="M0 0 C2 1 2 1 2 1 Z " fill="#7B656B" transform="translate(727,1248)"/>
<path d="M0 0 C2 1 2 1 2 1 Z " fill="#000002" transform="translate(196,1247)"/>
<path d="M0 0 C2 1 2 1 2 1 Z " fill="#000002" transform="translate(201,1245)"/>
<path d="M0 0 C2 1 2 1 2 1 Z " fill="#000002" transform="translate(738,1242)"/>
<path d="M0 0 C2 1 2 1 2 1 Z " fill="#000002" transform="translate(208,1242)"/>
<path d="M0 0 C2 1 2 1 2 1 Z " fill="#000002" transform="translate(746,1237)"/>
<path d="M0 0 C2 1 2 1 2 1 Z " fill="#7B656B" transform="translate(237,1228)"/>
<path d="M0 0 C2 1 2 1 2 1 Z " fill="#000002" transform="translate(241,1227)"/>
<path d="M0 0 C2 1 2 1 2 1 Z " fill="#000002" transform="translate(251,1222)"/>
<path d="" fill="#7B656B" transform="translate(0,0)"/>
<path d="" fill="#000002" transform="translate(0,0)"/>
<path d="" fill="#000002" transform="translate(0,0)"/>
<path d="" fill="#7B656B" transform="translate(0,0)"/>
<path d="" fill="#000002" transform="translate(0,0)"/>
<path d="" fill="#000002" transform="translate(0,0)"/>
<path d="" fill="#7B656B" transform="translate(0,0)"/>
<path d="M0 0 C2 1 2 1 2 1 Z " fill="#000002" transform="translate(493,1005)"/>
<path d="M0 0 C2 1 2 1 2 1 Z " fill="#000002" transform="translate(495,1004)"/>
<path d="M0 0 C2 1 2 1 2 1 Z " fill="#7B656B" transform="translate(507,998)"/>
<path d="" fill="#000002" transform="translate(0,0)"/>
<path d="M0 0 C2 1 2 1 2 1 Z " fill="#000002" transform="translate(523,992)"/>
<path d="M0 0 C2 1 2 1 2 1 Z " fill="#000002" transform="translate(533,987)"/>
<path d="M0 0 C2 1 2 1 2 1 Z " fill="#000002" transform="translate(538,985)"/>
<path d="" fill="#000002" transform="translate(0,0)"/>
<path d="" fill="#000002" transform="translate(0,0)"/>
<path d="" fill="#000002" transform="translate(0,0)"/>
<path d="M0 0 C2 1 2 1 2 1 Z " fill="#000002" transform="translate(586,962)"/>
<path d="M0 0 C2 1 2 1 2 1 Z " fill="#7B656B" transform="translate(592,958)"/>
<path d="M0 0 C2 1 2 1 2 1 Z " fill="#000002" transform="translate(643,932)"/>
<path d="M0 0 C2 1 2 1 2 1 Z " fill="#000002" transform="translate(665,920)"/>
<path d="M0 0 C2 1 2 1 2 1 Z " fill="#7B656B" transform="translate(667,918)"/>
<path d="M0 0 C2 1 2 1 2 1 Z " fill="#000002" transform="translate(688,907)"/>
<path d="M0 0 C2 1 2 1 2 1 Z " fill="#000002" transform="translate(713,892)"/>
<path d="M0 0 C2 1 2 1 2 1 Z " fill="#7B656B" transform="translate(727,883)"/>
<path d="M0 0 C2 1 2 1 2 1 Z " fill="#000002" transform="translate(738,877)"/>
<path d="M0 0 C2 1 2 1 2 1 Z " fill="#000002" transform="translate(746,872)"/>
<path d="M0 0 C2 1 2 1 2 1 Z " fill="#000002" transform="translate(390,822)"/>
<path d="M0 0 C2 1 2 1 2 1 Z " fill="#000002" transform="translate(353,805)"/>
<path d="M0 0 C2 1 2 1 2 1 Z " fill="#000002" transform="translate(335,800)"/>
<path d="M0 0 C2 1 2 1 2 1 Z " fill="#000002" transform="translate(145,795)"/>
<path d="" fill="#000002" transform="translate(0,0)"/>
<path d="M0 0 C2 1 2 1 2 1 Z " fill="#7B656B" transform="translate(101,783)"/>
<path d="M0 0 C2 1 2 1 2 1 Z " fill="#000002" transform="translate(83,775)"/>
<path d="M0 0 C2 1 2 1 2 1 Z " fill="#000002" transform="translate(70,767)"/>
<path d="" fill="#7B656B" transform="translate(0,0)"/>
<path d="" fill="#000002" transform="translate(0,0)"/>
<path d="" fill="#000002" transform="translate(0,0)"/>
<path d="" fill="#7B656B" transform="translate(0,0)"/>
<path d="" fill="#000002" transform="translate(0,0)"/>
<path d="" fill="#7B656B" transform="translate(0,0)"/>
<path d="" fill="#000002" transform="translate(0,0)"/>
<path d="" fill="#000002" transform="translate(0,0)"/>
<path d="" fill="#7B656B" transform="translate(0,0)"/>
<path d="" fill="#7B656B" transform="translate(0,0)"/>
<path d="" fill="#1E1619" transform="translate(0,0)"/>
<path d="" fill="#7B656B" transform="translate(0,0)"/>
<path d="" fill="#7B656B" transform="translate(0,0)"/>
<path d="" fill="#000002" transform="translate(0,0)"/>
<path d="" fill="#7B656B" transform="translate(0,0)"/>
<path d="" fill="#000002" transform="translate(0,0)"/>
<path d="" fill="#000002" transform="translate(0,0)"/>
<path d="" fill="#7B656B" transform="translate(0,0)"/>
<path d="" fill="#000002" transform="translate(0,0)"/>
<path d="" fill="#000002" transform="translate(0,0)"/>
<path d="" fill="#000002" transform="translate(0,0)"/>
<path d="" fill="#000002" transform="translate(0,0)"/>
<path d="" fill="#000002" transform="translate(0,0)"/>
<path d="" fill="#000002" transform="translate(0,0)"/>
<path d="" fill="#000002" transform="translate(0,0)"/>
<path d="" fill="#000002" transform="translate(0,0)"/>
<path d="" fill="#7B656B" transform="translate(0,0)"/>
<path d="" fill="#000002" transform="translate(0,0)"/>
<path d="" fill="#000002" transform="translate(0,0)"/>
<path d="" fill="#000002" transform="translate(0,0)"/>
<path d="" fill="#000002" transform="translate(0,0)"/>
<path d="" fill="#000002" transform="translate(0,0)"/>
<path d="" fill="#000002" transform="translate(0,0)"/>
<path d="" fill="#000002" transform="translate(0,0)"/>
<path d="" fill="#7B656B" transform="translate(0,0)"/>
<path d="" fill="#000002" transform="translate(0,0)"/>
<path d="" fill="#7B656B" transform="translate(0,0)"/>
<path d="" fill="#7B656B" transform="translate(0,0)"/>
<path d="" fill="#000002" transform="translate(0,0)"/>
<path d="" fill="#000002" transform="translate(0,0)"/>
<path d="" fill="#7B656B" transform="translate(0,0)"/>
<path d="" fill="#000002" transform="translate(0,0)"/>
<path d="M0 0 C2 1 2 1 2 1 Z " fill="#000002" transform="translate(885,332)"/>
<path d="M0 0 C2 1 2 1 2 1 Z " fill="#7B656B" transform="translate(767,330)"/>
<path d="M0 0 C2 1 2 1 2 1 Z " fill="#000002" transform="translate(781,325)"/>
<path d="M0 0 C2 1 2 1 2 1 Z " fill="#000002" transform="translate(866,324)"/>
<path d="M0 0 C2 1 2 1 2 1 Z " fill="#000002" transform="translate(791,322)"/>
<path d="" fill="#000002" transform="translate(0,0)"/>
<path d="" fill="#000002" transform="translate(0,0)"/>
<path d="" fill="#000002" transform="translate(0,0)"/>
<path d="" fill="#7B656B" transform="translate(0,0)"/>
<path d="" fill="#000002" transform="translate(0,0)"/>
<path d="" fill="#7B656B" transform="translate(0,0)"/>
<path d="" fill="#000002" transform="translate(0,0)"/>
<path d="" fill="#000002" transform="translate(0,0)"/>
<path d="" fill="#000002" transform="translate(0,0)"/>
<path d="" fill="#7B656B" transform="translate(0,0)"/>
<path d="" fill="#000002" transform="translate(0,0)"/>
<path d="" fill="#000002" transform="translate(0,0)"/>
<path d="" fill="#000002" transform="translate(0,0)"/>
<path d="" fill="#000002" transform="translate(0,0)"/>
<path d="" fill="#000002" transform="translate(0,0)"/>
<path d="" fill="#000002" transform="translate(0,0)"/>
<path d="" fill="#000002" transform="translate(0,0)"/>
<path d="" fill="#000002" transform="translate(0,0)"/>
<path d="" fill="#7B656B" transform="translate(0,0)"/>
<path d="" fill="#000002" transform="translate(0,0)"/>
<path d="" fill="#000002" transform="translate(0,0)"/>
<path d="" fill="#7B656B" transform="translate(0,0)"/>
<path d="" fill="#000002" transform="translate(0,0)"/>
<path d="" fill="#000002" transform="translate(0,0)"/>
<path d="" fill="#000002" transform="translate(0,0)"/>
<path d="" fill="#000002" transform="translate(0,0)"/>
<path d="" fill="#7B656B" transform="translate(0,0)"/>
<path d="" fill="#000002" transform="translate(0,0)"/>
<path d="" fill="#000002" transform="translate(0,0)"/>
<path d="" fill="#7B656B" transform="translate(0,0)"/>
<path d="" fill="#7B656B" transform="translate(0,0)"/>
<path d="" fill="#7B656B" transform="translate(0,0)"/>
<path d="" fill="#7B656B" transform="translate(0,0)"/>
<path d="" fill="#000002" transform="translate(0,0)"/>
<path d="" fill="#7B656B" transform="translate(0,0)"/>
<path d="" fill="#7B656B" transform="translate(0,0)"/>
<path d="" fill="#000002" transform="translate(0,0)"/>
<path d="" fill="#7B656B" transform="translate(0,0)"/>
<path d="" fill="#000002" transform="translate(0,0)"/>
<path d="" fill="#7B656B" transform="translate(0,0)"/>
<path d="" fill="#000002" transform="translate(0,0)"/>
<path d="" fill="#7B656B" transform="translate(0,0)"/>
<path d="" fill="#000002" transform="translate(0,0)"/>
<path d="" fill="#000002" transform="translate(0,0)"/>
<path d="" fill="#7B656B" transform="translate(0,0)"/>
<path d="" fill="#000002" transform="translate(0,0)"/>
<path d="" fill="#7B656B" transform="translate(0,0)"/>
<path d="" fill="#000002" transform="translate(0,0)"/>
<path d="" fill="#000002" transform="translate(0,0)"/>
<path d="" fill="#000002" transform="translate(0,0)"/>
<path d="" fill="#7B656B" transform="translate(0,0)"/>
<path d="" fill="#3D2C30" transform="translate(0,0)"/>
<path d="" fill="#000002" transform="translate(0,0)"/>
<path d="" fill="#000002" transform="translate(0,0)"/>
<path d="" fill="#3D2C30" transform="translate(0,0)"/>
<path d="" fill="#000002" transform="translate(0,0)"/>
<path d="" fill="#7B656B" transform="translate(0,0)"/>
<path d="" fill="#000002" transform="translate(0,0)"/>
<path d="" fill="#000002" transform="translate(0,0)"/>
<path d="" fill="#000002" transform="translate(0,0)"/>
<path d="" fill="#7B656B" transform="translate(0,0)"/>
<path d="" fill="#7B656B" transform="translate(0,0)"/>
<path d="" fill="#000002" transform="translate(0,0)"/>
<path d="" fill="#7B656B" transform="translate(0,0)"/>
<path d="" fill="#000002" transform="translate(0,0)"/>
<path d="" fill="#7B656B" transform="translate(0,0)"/>
<path d="" fill="#000002" transform="translate(0,0)"/>
<path d="" fill="#000002" transform="translate(0,0)"/>
<path d="" fill="#000002" transform="translate(0,0)"/>
<path d="" fill="#000002" transform="translate(0,0)"/>
<path d="" fill="#000002" transform="translate(0,0)"/>
<path d="" fill="#7B656B" transform="translate(0,0)"/>
<path d="" fill="#7B656B" transform="translate(0,0)"/>
<path d="" fill="#000002" transform="translate(0,0)"/>
<path d="" fill="#000002" transform="translate(0,0)"/>
<path d="" fill="#7B656B" transform="translate(0,0)"/>
<path d="" fill="#000002" transform="translate(0,0)"/>
<path d="" fill="#000002" transform="translate(0,0)"/>
<path d="" fill="#7B656B" transform="translate(0,0)"/>
<path d="" fill="#000002" transform="translate(0,0)"/>
<path d="" fill="#000002" transform="translate(0,0)"/>
<path d="" fill="#000002" transform="translate(0,0)"/>
<path d="" fill="#7B656B" transform="translate(0,0)"/>
<path d="" fill="#000002" transform="translate(0,0)"/>
<path d="" fill="#7B656B" transform="translate(0,0)"/>
<path d="" fill="#7B656B" transform="translate(0,0)"/>
<path d="" fill="#7B656B" transform="translate(0,0)"/>
<path d="" fill="#7B656B" transform="translate(0,0)"/>
<path d="" fill="#000002" transform="translate(0,0)"/>
<path d="" fill="#000002" transform="translate(0,0)"/>
<path d="" fill="#7B656B" transform="translate(0,0)"/>
<path d="" fill="#7B656B" transform="translate(0,0)"/>
<path d="" fill="#000002" transform="translate(0,0)"/>
<path d="" fill="#000002" transform="translate(0,0)"/>
<path d="" fill="#7B656B" transform="translate(0,0)"/>
<path d="" fill="#7B656B" transform="translate(0,0)"/>
<path d="" fill="#000002" transform="translate(0,0)"/>
<path d="" fill="#000002" transform="translate(0,0)"/>
<path d="" fill="#000002" transform="translate(0,0)"/>
<path d="" fill="#000002" transform="translate(0,0)"/>
<path d="" fill="#7B656B" transform="translate(0,0)"/>
<path d="" fill="#000002" transform="translate(0,0)"/>
<path d="" fill="#7B656B" transform="translate(0,0)"/>
<path d="" fill="#000002" transform="translate(0,0)"/>
<path d="" fill="#000002" transform="translate(0,0)"/>
<path d="" fill="#7B656B" transform="translate(0,0)"/>
<path d="" fill="#3D2C30" transform="translate(0,0)"/>
<path d="" fill="#7B656B" transform="translate(0,0)"/>
<path d="" fill="#7B656B" transform="translate(0,0)"/>
<path d="" fill="#000002" transform="translate(0,0)"/>
<path d="" fill="#7B656B" transform="translate(0,0)"/>
<path d="" fill="#000002" transform="translate(0,0)"/>
<path d="" fill="#000002" transform="translate(0,0)"/>
<path d="" fill="#3D2C30" transform="translate(0,0)"/>
<path d="" fill="#7B656B" transform="translate(0,0)"/>
<path d="" fill="#000002" transform="translate(0,0)"/>
<path d="" fill="#000002" transform="translate(0,0)"/>
<path d="" fill="#000002" transform="translate(0,0)"/>
<path d="" fill="#000002" transform="translate(0,0)"/>
<path d="" fill="#7B656B" transform="translate(0,0)"/>
<path d="" fill="#000002" transform="translate(0,0)"/>
<path d="" fill="#7B656B" transform="translate(0,0)"/>
<path d="" fill="#000002" transform="translate(0,0)"/>
<path d="" fill="#7B656B" transform="translate(0,0)"/>
<path d="" fill="#7B656B" transform="translate(0,0)"/>
<path d="" fill="#000002" transform="translate(0,0)"/>
<path d="" fill="#000002" transform="translate(0,0)"/>
<path d="" fill="#7B656B" transform="translate(0,0)"/>
<path d="" fill="#000002" transform="translate(0,0)"/>
<path d="" fill="#000002" transform="translate(0,0)"/>
<path d="" fill="#000002" transform="translate(0,0)"/>
<path d="" fill="#000002" transform="translate(0,0)"/>
<path d="" fill="#7B656B" transform="translate(0,0)"/>
<path d="" fill="#000002" transform="translate(0,0)"/>
<path d="" fill="#000002" transform="translate(0,0)"/>
<path d="" fill="#000002" transform="translate(0,0)"/>
<path d="" fill="#000002" transform="translate(0,0)"/>
<path d="" fill="#000002" transform="translate(0,0)"/>
<path d="" fill="#7B656B" transform="translate(0,0)"/>
<path d="" fill="#7B656B" transform="translate(0,0)"/>
<path d="" fill="#000002" transform="translate(0,0)"/>
<path d="" fill="#7B656B" transform="translate(0,0)"/>
<path d="" fill="#000002" transform="translate(0,0)"/>
<path d="" fill="#000002" transform="translate(0,0)"/>
<path d="" fill="#7B656B" transform="translate(0,0)"/>
<path d="" fill="#7B656B" transform="translate(0,0)"/>
<path d="" fill="#000002" transform="translate(0,0)"/>
<path d="" fill="#7B656B" transform="translate(0,0)"/>
<path d="" fill="#000002" transform="translate(0,0)"/>
<path d="" fill="#7B656B" transform="translate(0,0)"/>
<path d="" fill="#000002" transform="translate(0,0)"/>
<path d="" fill="#000002" transform="translate(0,0)"/>
<path d="" fill="#000002" transform="translate(0,0)"/>
<path d="" fill="#000002" transform="translate(0,0)"/>
<path d="" fill="#000002" transform="translate(0,0)"/>
<path d="" fill="#000002" transform="translate(0,0)"/>
<path d="" fill="#000002" transform="translate(0,0)"/>
<path d="" fill="#000002" transform="translate(0,0)"/>
<path d="" fill="#7B656B" transform="translate(0,0)"/>
<path d="" fill="#000002" transform="translate(0,0)"/>
<path d="" fill="#7B656B" transform="translate(0,0)"/>
<path d="" fill="#000002" transform="translate(0,0)"/>
<path d="" fill="#000002" transform="translate(0,0)"/>
<path d="" fill="#000002" transform="translate(0,0)"/>
<path d="" fill="#7B656B" transform="translate(0,0)"/>
<path d="" fill="#000002" transform="translate(0,0)"/>
<path d="" fill="#000002" transform="translate(0,0)"/>
<path d="" fill="#000002" transform="translate(0,0)"/>
<path d="" fill="#7B656B" transform="translate(0,0)"/>
<path d="" fill="#000002" transform="translate(0,0)"/>
<path d="" fill="#000002" transform="translate(0,0)"/>
<path d="" fill="#7B656B" transform="translate(0,0)"/>
<path d="" fill="#000002" transform="translate(0,0)"/>
<path d="" fill="#7B656B" transform="translate(0,0)"/>
<path d="" fill="#7B656B" transform="translate(0,0)"/>
<path d="" fill="#000002" transform="translate(0,0)"/>
<path d="" fill="#000002" transform="translate(0,0)"/>
<path d="" fill="#7B656B" transform="translate(0,0)"/>
<path d="" fill="#7B656B" transform="translate(0,0)"/>
<path d="" fill="#7B656B" transform="translate(0,0)"/>
<path d="" fill="#000002" transform="translate(0,0)"/>
<path d="" fill="#7B656B" transform="translate(0,0)"/>
<path d="" fill="#000002" transform="translate(0,0)"/>
<path d="" fill="#000002" transform="translate(0,0)"/>
<path d="" fill="#7B656B" transform="translate(0,0)"/>
<path d="" fill="#7B656B" transform="translate(0,0)"/>
<path d="" fill="#7B656B" transform="translate(0,0)"/>
<path d="" fill="#7B656B" transform="translate(0,0)"/>
<path d="" fill="#000002" transform="translate(0,0)"/>
<path d="" fill="#000002" transform="translate(0,0)"/>
<path d="" fill="#000002" transform="translate(0,0)"/>
<path d="" fill="#7B656B" transform="translate(0,0)"/>
<path d="" fill="#7B656B" transform="translate(0,0)"/>
<path d="" fill="#7B656B" transform="translate(0,0)"/>
<path d="" fill="#000002" transform="translate(0,0)"/>
<path d="" fill="#7B656B" transform="translate(0,0)"/>
<path d="" fill="#000002" transform="translate(0,0)"/>
<path d="" fill="#7B656B" transform="translate(0,0)"/>
<path d="" fill="#7B656B" transform="translate(0,0)"/>
<path d="" fill="#7B656B" transform="translate(0,0)"/>
<path d="" fill="#000002" transform="translate(0,0)"/>
<path d="" fill="#7B656B" transform="translate(0,0)"/>
<path d="" fill="#000002" transform="translate(0,0)"/>
<path d="" fill="#7B656B" transform="translate(0,0)"/>
<path d="" fill="#000002" transform="translate(0,0)"/>
<path d="" fill="#7B656B" transform="translate(0,0)"/>
<path d="" fill="#7B656B" transform="translate(0,0)"/>
<path d="" fill="#000002" transform="translate(0,0)"/>
<path d="" fill="#7B656B" transform="translate(0,0)"/>
<path d="" fill="#7B656B" transform="translate(0,0)"/>
<path d="" fill="#000002" transform="translate(0,0)"/>
<path d="" fill="#7B656B" transform="translate(0,0)"/>
<path d="" fill="#000002" transform="translate(0,0)"/>
<path d="" fill="#7B656B" transform="translate(0,0)"/>
<path d="" fill="#000002" transform="translate(0,0)"/>
<path d="" fill="#7B656B" transform="translate(0,0)"/>
<path d="" fill="#7B656B" transform="translate(0,0)"/>
<path d="" fill="#3D2C30" transform="translate(0,0)"/>
<path d="" fill="#7B656B" transform="translate(0,0)"/>
<path d="" fill="#000002" transform="translate(0,0)"/>
<path d="" fill="#000002" transform="translate(0,0)"/>
<path d="" fill="#7B656B" transform="translate(0,0)"/>
<path d="" fill="#000002" transform="translate(0,0)"/>
<path d="" fill="#7B656B" transform="translate(0,0)"/>
<path d="" fill="#7B656B" transform="translate(0,0)"/>
<path d="" fill="#000002" transform="translate(0,0)"/>
<path d="" fill="#7B656B" transform="translate(0,0)"/>
<path d="" fill="#7B656B" transform="translate(0,0)"/>
<path d="" fill="#000002" transform="translate(0,0)"/>
<path d="" fill="#000002" transform="translate(0,0)"/>
<path d="" fill="#7B656B" transform="translate(0,0)"/>
<path d="" fill="#000002" transform="translate(0,0)"/>
<path d="" fill="#7B656B" transform="translate(0,0)"/>
<path d="" fill="#000002" transform="translate(0,0)"/>
<path d="" fill="#7B656B" transform="translate(0,0)"/>
<path d="" fill="#3D2C30" transform="translate(0,0)"/>
<path d="" fill="#000002" transform="translate(0,0)"/>
<path d="" fill="#7B656B" transform="translate(0,0)"/>
<path d="" fill="#7B656B" transform="translate(0,0)"/>
<path d="" fill="#3D2C30" transform="translate(0,0)"/>
<path d="" fill="#000002" transform="translate(0,0)"/>
<path d="" fill="#7B656B" transform="translate(0,0)"/>
<path d="" fill="#7B656B" transform="translate(0,0)"/>
<path d="" fill="#7B656B" transform="translate(0,0)"/>
<path d="" fill="#7B656B" transform="translate(0,0)"/>
<path d="" fill="#000002" transform="translate(0,0)"/>
<path d="" fill="#7B656B" transform="translate(0,0)"/>
<path d="" fill="#000002" transform="translate(0,0)"/>
<path d="" fill="#000002" transform="translate(0,0)"/>
<path d="" fill="#7B656B" transform="translate(0,0)"/>
<path d="" fill="#000002" transform="translate(0,0)"/>
<path d="" fill="#000002" transform="translate(0,0)"/>
<path d="" fill="#7B656B" transform="translate(0,0)"/>
<path d="" fill="#000002" transform="translate(0,0)"/>
<path d="" fill="#000002" transform="translate(0,0)"/>
<path d="" fill="#000002" transform="translate(0,0)"/>
<path d="" fill="#7B656B" transform="translate(0,0)"/>
<path d="" fill="#7B656B" transform="translate(0,0)"/>
<path d="" fill="#000002" transform="translate(0,0)"/>
<path d="" fill="#000002" transform="translate(0,0)"/>
<path d="" fill="#000002" transform="translate(0,0)"/>
<path d="" fill="#000002" transform="translate(0,0)"/>
<path d="" fill="#000002" transform="translate(0,0)"/>
<path d="" fill="#7B656B" transform="translate(0,0)"/>
<path d="" fill="#000002" transform="translate(0,0)"/>
<path d="" fill="#000002" transform="translate(0,0)"/>
<path d="" fill="#7B656B" transform="translate(0,0)"/>
<path d="" fill="#000002" transform="translate(0,0)"/>
<path d="" fill="#000002" transform="translate(0,0)"/>
<path d="" fill="#000002" transform="translate(0,0)"/>
<path d="" fill="#000002" transform="translate(0,0)"/>
<path d="" fill="#000002" transform="translate(0,0)"/>
<path d="" fill="#000002" transform="translate(0,0)"/>
<path d="" fill="#000002" transform="translate(0,0)"/>
<path d="" fill="#000002" transform="translate(0,0)"/>
<path d="" fill="#7B656B" transform="translate(0,0)"/>
<path d="" fill="#7B656B" transform="translate(0,0)"/>
<path d="" fill="#7B656B" transform="translate(0,0)"/>
<path d="" fill="#000002" transform="translate(0,0)"/>
<path d="" fill="#000002" transform="translate(0,0)"/>
<path d="" fill="#000002" transform="translate(0,0)"/>
<path d="" fill="#7B656B" transform="translate(0,0)"/>
<path d="" fill="#000002" transform="translate(0,0)"/>
<path d="" fill="#000002" transform="translate(0,0)"/>
<path d="" fill="#000002" transform="translate(0,0)"/>
<path d="" fill="#7B656B" transform="translate(0,0)"/>
<path d="" fill="#7B656B" transform="translate(0,0)"/>
<path d="" fill="#000002" transform="translate(0,0)"/>
<path d="" fill="#000002" transform="translate(0,0)"/>
<path d="" fill="#000002" transform="translate(0,0)"/>
<path d="" fill="#7B656B" transform="translate(0,0)"/>
<path d="" fill="#7B656B" transform="translate(0,0)"/>
<path d="" fill="#000002" transform="translate(0,0)"/>
<path d="" fill="#3D2C30" transform="translate(0,0)"/>
<path d="" fill="#7B656B" transform="translate(0,0)"/>
<path d="" fill="#7B656B" transform="translate(0,0)"/>
<path d="" fill="#000002" transform="translate(0,0)"/>
<path d="" fill="#000002" transform="translate(0,0)"/>
<path d="" fill="#000002" transform="translate(0,0)"/>
<path d="" fill="#000002" transform="translate(0,0)"/>
<path d="" fill="#000002" transform="translate(0,0)"/>
<path d="" fill="#000002" transform="translate(0,0)"/>
<path d="" fill="#000002" transform="translate(0,0)"/>
<path d="" fill="#000002" transform="translate(0,0)"/>
<path d="" fill="#7B656B" transform="translate(0,0)"/>
<path d="" fill="#7B656B" transform="translate(0,0)"/>
<path d="" fill="#000002" transform="translate(0,0)"/>
<path d="" fill="#7B656B" transform="translate(0,0)"/>
<path d="" fill="#000002" transform="translate(0,0)"/>
<path d="" fill="#7B656B" transform="translate(0,0)"/>
<path d="" fill="#7B656B" transform="translate(0,0)"/>
<path d="" fill="#000002" transform="translate(0,0)"/>
<path d="" fill="#000002" transform="translate(0,0)"/>
<path d="" fill="#7B656B" transform="translate(0,0)"/>
<path d="" fill="#000002" transform="translate(0,0)"/>
<path d="" fill="#000002" transform="translate(0,0)"/>
<path d="" fill="#000002" transform="translate(0,0)"/>
<path d="" fill="#7B656B" transform="translate(0,0)"/>
<path d="" fill="#000002" transform="translate(0,0)"/>
<path d="" fill="#000002" transform="translate(0,0)"/>
<path d="" fill="#000002" transform="translate(0,0)"/>
<path d="" fill="#7B656B" transform="translate(0,0)"/>
<path d="" fill="#7B656B" transform="translate(0,0)"/>
<path d="" fill="#000002" transform="translate(0,0)"/>
<path d="" fill="#7B656B" transform="translate(0,0)"/>
<path d="" fill="#7B656B" transform="translate(0,0)"/>
<path d="" fill="#7B656B" transform="translate(0,0)"/>
<path d="" fill="#000002" transform="translate(0,0)"/>
<path d="" fill="#000002" transform="translate(0,0)"/>
<path d="" fill="#7B656B" transform="translate(0,0)"/>
<path d="" fill="#000002" transform="translate(0,0)"/>
<path d="" fill="#7B656B" transform="translate(0,0)"/>
<path d="" fill="#3D2C30" transform="translate(0,0)"/>
<path d="" fill="#000002" transform="translate(0,0)"/>
<path d="" fill="#000002" transform="translate(0,0)"/>
<path d="" fill="#000002" transform="translate(0,0)"/>
<path d="" fill="#7B656B" transform="translate(0,0)"/>
<path d="" fill="#7B656B" transform="translate(0,0)"/>
<path d="" fill="#7B656B" transform="translate(0,0)"/>
<path d="" fill="#000002" transform="translate(0,0)"/>
<path d="" fill="#7B656B" transform="translate(0,0)"/>
<path d="" fill="#7B656B" transform="translate(0,0)"/>
<path d="" fill="#7B656B" transform="translate(0,0)"/>
<path d="" fill="#000002" transform="translate(0,0)"/>
<path d="" fill="#000002" transform="translate(0,0)"/>
<path d="" fill="#000002" transform="translate(0,0)"/>
<path d="" fill="#7B656B" transform="translate(0,0)"/>
<path d="" fill="#000002" transform="translate(0,0)"/>
<path d="" fill="#000002" transform="translate(0,0)"/>
<path d="" fill="#7B656B" transform="translate(0,0)"/>
<path d="" fill="#7B656B" transform="translate(0,0)"/>
<path d="" fill="#7B656B" transform="translate(0,0)"/>
<path d="" fill="#7B656B" transform="translate(0,0)"/>
<path d="" fill="#000002" transform="translate(0,0)"/>
<path d="" fill="#000002" transform="translate(0,0)"/>
<path d="" fill="#7B656B" transform="translate(0,0)"/>
<path d="" fill="#7B656B" transform="translate(0,0)"/>
<path d="" fill="#000002" transform="translate(0,0)"/>
<path d="" fill="#000002" transform="translate(0,0)"/>
<path d="" fill="#7B656B" transform="translate(0,0)"/>
<path d="" fill="#7B656B" transform="translate(0,0)"/>
<path d="" fill="#7B656B" transform="translate(0,0)"/>
<path d="" fill="#000002" transform="translate(0,0)"/>
<path d="" fill="#7B656B" transform="translate(0,0)"/>
<path d="" fill="#7B656B" transform="translate(0,0)"/>
<path d="" fill="#000002" transform="translate(0,0)"/>
<path d="" fill="#7B656B" transform="translate(0,0)"/>
<path d="" fill="#7B656B" transform="translate(0,0)"/>
<path d="" fill="#000002" transform="translate(0,0)"/>
<path d="" fill="#000002" transform="translate(0,0)"/>
<path d="" fill="#7B656B" transform="translate(0,0)"/>
<path d="" fill="#000002" transform="translate(0,0)"/>
<path d="" fill="#7B656B" transform="translate(0,0)"/>
<path d="" fill="#7B656B" transform="translate(0,0)"/>
<path d="" fill="#000002" transform="translate(0,0)"/>
<path d="" fill="#000002" transform="translate(0,0)"/>
<path d="" fill="#7B656B" transform="translate(0,0)"/>
<path d="" fill="#7B656B" transform="translate(0,0)"/>
<path d="" fill="#7B656B" transform="translate(0,0)"/>
<path d="" fill="#7B656B" transform="translate(0,0)"/>
<path d="" fill="#3D2C30" transform="translate(0,0)"/>
<path d="" fill="#000002" transform="translate(0,0)"/>
<path d="" fill="#7B656B" transform="translate(0,0)"/>
<path d="" fill="#7B656B" transform="translate(0,0)"/>
<path d="" fill="#7B656B" transform="translate(0,0)"/>
<path d="" fill="#7B656B" transform="translate(0,0)"/>
<path d="" fill="#000002" transform="translate(0,0)"/>
<path d="" fill="#000002" transform="translate(0,0)"/>
<path d="" fill="#7B656B" transform="translate(0,0)"/>
<path d="" fill="#7B656B" transform="translate(0,0)"/>
<path d="" fill="#000002" transform="translate(0,0)"/>
<path d="" fill="#000002" transform="translate(0,0)"/>
<path d="" fill="#000002" transform="translate(0,0)"/>
<path d="" fill="#7B656B" transform="translate(0,0)"/>
<path d="" fill="#7B656B" transform="translate(0,0)"/>
<path d="" fill="#000002" transform="translate(0,0)"/>
<path d="" fill="#000002" transform="translate(0,0)"/>
<path d="" fill="#000002" transform="translate(0,0)"/>
<path d="" fill="#7B656B" transform="translate(0,0)"/>
<path d="" fill="#7B656B" transform="translate(0,0)"/>
<path d="" fill="#000002" transform="translate(0,0)"/>
<path d="" fill="#000002" transform="translate(0,0)"/>
<path d="" fill="#000002" transform="translate(0,0)"/>
<path d="" fill="#7B656B" transform="translate(0,0)"/>
<path d="" fill="#000002" transform="translate(0,0)"/>
<path d="" fill="#000002" transform="translate(0,0)"/>
<path d="" fill="#7B656B" transform="translate(0,0)"/>
<path d="" fill="#000002" transform="translate(0,0)"/>
<path d="" fill="#000002" transform="translate(0,0)"/>
<path d="" fill="#000002" transform="translate(0,0)"/>
<path d="" fill="#7B656B" transform="translate(0,0)"/>
<path d="" fill="#000002" transform="translate(0,0)"/>
<path d="" fill="#000002" transform="translate(0,0)"/>
<path d="" fill="#7B656B" transform="translate(0,0)"/>
<path d="" fill="#000002" transform="translate(0,0)"/>
<path d="" fill="#7B656B" transform="translate(0,0)"/>
<path d="" fill="#7B656B" transform="translate(0,0)"/>
<path d="" fill="#7B656B" transform="translate(0,0)"/>
<path d="" fill="#3D2C30" transform="translate(0,0)"/>
<path d="" fill="#7B656B" transform="translate(0,0)"/>
<path d="" fill="#000002" transform="translate(0,0)"/>
<path d="" fill="#000002" transform="translate(0,0)"/>
<path d="" fill="#7B656B" transform="translate(0,0)"/>
<path d="" fill="#000002" transform="translate(0,0)"/>
<path d="" fill="#000002" transform="translate(0,0)"/>
<path d="" fill="#7B656B" transform="translate(0,0)"/>
<path d="" fill="#7B656B" transform="translate(0,0)"/>
<path d="" fill="#000002" transform="translate(0,0)"/>
<path d="" fill="#3D2C30" transform="translate(0,0)"/>
<path d="" fill="#7B656B" transform="translate(0,0)"/>
<path d="" fill="#7B656B" transform="translate(0,0)"/>
<path d="" fill="#7B656B" transform="translate(0,0)"/>
<path d="" fill="#000002" transform="translate(0,0)"/>
<path d="" fill="#000002" transform="translate(0,0)"/>
<path d="" fill="#7B656B" transform="translate(0,0)"/>
<path d="" fill="#000002" transform="translate(0,0)"/>
<path d="" fill="#000002" transform="translate(0,0)"/>
<path d="" fill="#000002" transform="translate(0,0)"/>
<path d="" fill="#000002" transform="translate(0,0)"/>
<path d="" fill="#000002" transform="translate(0,0)"/>
<path d="" fill="#7B656B" transform="translate(0,0)"/>
<path d="" fill="#7B656B" transform="translate(0,0)"/>
<path d="" fill="#000002" transform="translate(0,0)"/>
<path d="" fill="#000002" transform="translate(0,0)"/>
<path d="" fill="#7B656B" transform="translate(0,0)"/>
<path d="" fill="#000002" transform="translate(0,0)"/>
<path d="" fill="#7B656B" transform="translate(0,0)"/>
<path d="" fill="#7B656B" transform="translate(0,0)"/>
<path d="" fill="#000002" transform="translate(0,0)"/>
<path d="" fill="#7B656B" transform="translate(0,0)"/>
<path d="" fill="#7B656B" transform="translate(0,0)"/>
<path d="" fill="#7B656B" transform="translate(0,0)"/>
<path d="" fill="#000002" transform="translate(0,0)"/>
<path d="" fill="#7B656B" transform="translate(0,0)"/>
<path d="" fill="#000002" transform="translate(0,0)"/>
<path d="" fill="#7B656B" transform="translate(0,0)"/>
<path d="" fill="#7B656B" transform="translate(0,0)"/>
<path d="" fill="#000002" transform="translate(0,0)"/>
<path d="" fill="#7B656B" transform="translate(0,0)"/>
<path d="" fill="#7B656B" transform="translate(0,0)"/>
<path d="" fill="#7B656B" transform="translate(0,0)"/>
<path d="" fill="#7B656B" transform="translate(0,0)"/>
<path d="" fill="#7B656B" transform="translate(0,0)"/>
<path d="" fill="#000002" transform="translate(0,0)"/>
<path d="" fill="#000002" transform="translate(0,0)"/>
<path d="" fill="#7B656B" transform="translate(0,0)"/>
<path d="" fill="#000002" transform="translate(0,0)"/>
<path d="" fill="#000002" transform="translate(0,0)"/>
<path d="" fill="#000002" transform="translate(0,0)"/>
<path d="" fill="#000002" transform="translate(0,0)"/>
<path d="" fill="#000002" transform="translate(0,0)"/>
</svg>
